<?xml version="1.0" standalone="no"?>
<!DOCTYPE svg PUBLIC "-//W3C//DTD SVG 1.1//EN" "http://www.w3.org/Graphics/SVG/1.1/DTD/svg11.dtd" >
<svg xmlns="http://www.w3.org/2000/svg" xmlns:xlink="http://www.w3.org/1999/xlink" version="1.1">
<metadata>
Created by FontForge 20190801 at Thu May 14 15:25:17 2015
 By www-data
Copyright (c) 2009 by Maximiliano R. Sproviero &#38; Sabrina M. Lopez. All rights reserved.
</metadata>
<defs>
<font id="AphroditeSlimText" horiz-adv-x="551" >
  <font-face 
    font-family="AphroditeSlimText"
    font-weight="400"
    font-stretch="normal"
    units-per-em="1000"
    panose-1="2 0 0 0 0 0 0 0 0 0"
    ascent="800"
    descent="-200"
    x-height="514"
    cap-height="1133"
    bbox="-1056.81 -891.94 2405.12 1574.4"
    underline-thickness="50"
    underline-position="-100"
    unicode-range="U+0020-FB02"
  />
<missing-glyph horiz-adv-x="317" 
 />
    <glyph glyph-name="f_f" unicode="ff" horiz-adv-x="666" 
d="M965 794q1 -28 -27 -36q-12 -3 -25 3t-18 21q-2 5 -6 19t-8 22t-13 18t-25 13.5t-39 1.5q-18 -1 -34 -8.5t-30.5 -23t-26.5 -30t-24.5 -41.5t-21 -44.5t-20.5 -52.5t-18 -53t-18.5 -57.5t-17.5 -54.5q174 3 201 57q5 8 12 9t11 -4.5t2 -11.5q-28 -72 -234 -75
q-15 -47 -64 -205.5t-89 -286.5t-49 -153q-63 -172 -163.5 -317t-231 -247t-280.5 -135.5t-313 16.5q-88 -19 -175 -12q-88 7 -148.5 37t-86.5 72.5t-33 93t6.5 98.5t37.5 88.5t55 63.5q23 16 34 -2q8 -15 -7 -25q-4 -3 -15.5 -7.5t-19 -9.5t-20 -22.5t-25.5 -45.5
q-51 -112 9.5 -206.5t216.5 -106.5q67 -6 129 3q-79 41 -119.5 111t-41.5 147t29 157t83.5 143.5t132 103t164.5 37.5q128 -2 162 -91q30 -78 -24 -176q-54 -101 -160 -150q-24 -11 -34 6q-8 15 9 25q1 0 3 1q7 3 23 4t32.5 6.5t32.5 21.5q60 61 84 123.5t13 108t-48.5 74
t-92.5 28.5q-88 0 -161 -40.5t-117 -103t-64.5 -140.5t-12 -152t50 -138t111.5 -97q101 23 191 82.5t153 132.5t118.5 168t89 175t61.5 167q78 240 176 577q-32 -2 -84 -8q-11 -2 -16 3.5t-1.5 13t13.5 8.5q43 5 96 7q112 387 300 382q62 -1 93 -24t34 -56q1 -28 -27 -36
q-12 -3 -25 3t-18 21q-2 5 -6 19t-8 22t-13 18t-25 13.5t-39 1.5q-18 -1 -34 -8t-30.5 -22.5t-26 -29t-24 -40t-21 -44t-20.5 -52t-18 -52.5t-18.5 -57.5t-17.5 -56.5q8 0 277 -3q60 206 135 295.5t165 87.5q62 -1 93 -24t34 -56zM351 -119q57 172 179 585q-18 0 -120.5 2.5
t-156.5 1.5l-177 -565q-41 -127 -100.5 -243.5t-137.5 -219.5t-179 -180t-213 -111q111 -24 210 -13.5t188 56.5t164.5 114.5t140 161t114.5 194.5t88 217z" />
    <glyph glyph-name="f_i" unicode="fi" horiz-adv-x="573" 
d="M536 874q62 0 98.5 -33t43 -76t-4 -83.5t-34.5 -56.5q-32 -22 -57.5 0t-7.5 51q8 14 26.5 18.5t33.5 9.5t19 19q12 42 -20.5 90t-108.5 43q-29 -2 -53.5 -14.5t-46 -40t-36 -51t-32.5 -69t-26.5 -70t-25.5 -78.5q-7 -23 -11 -34h183q116 0 85 -104q-6 -17 -50.5 -140.5
t-51.5 -155.5q-5 -23 4 -45.5t33 -22.5q19 0 37 12.5t28.5 27t25.5 38.5q4 6 8 3q2 -2 0 -5q-17 -46 -52 -79t-77 -35q-49 -1 -64 37t6 95q7 21 47.5 131t53.5 148q11 32 -1 50t-43 18q-151 0 -181 1l-106 -341q-27 -87 -60.5 -172.5t-84.5 -188.5t-108.5 -191.5t-135 -173
t-161.5 -143t-190.5 -91.5t-220.5 -28q-170 8 -239 107q-59 85 -18 193q43 116 176 191q112 63 264 79q21 2 25 -17q4 -18 -14 -22q-10 -3 -23 2q-41 14 -116 -6q-68 -17 -126.5 -58.5t-95 -93t-49 -109t2.5 -106.5t70.5 -85.5t144.5 -47.5q97 -12 191.5 15.5t172.5 82
t151.5 134.5t131 169t109 190t88 191.5t64.5 180.5q5 17 76 251q7 22 7.5 38t-6.5 25t-13.5 14.5t-22.5 7.5t-23.5 2.5t-26.5 0.5q-13 0 -17 6.5t0.5 13t14.5 6.5h121q110 375 299 375z" />
    <glyph glyph-name="C_h2" unicode="Ch" horiz-adv-x="1389" 
d="M1619 1180q48 0 73.5 -12t19.5 -30q-8 -25 -43 -10q-39 17 -73 23.5t-78 -2t-85.5 -38t-90.5 -92t-98 -156.5q-49 -96 -103 -232.5t-81 -243.5l3 -1q31 53 79.5 90.5t109.5 37.5q57 0 75.5 -47t-10.5 -124q-16 -38 -74 -213q-34 -102 27 -102q29 0 54 24t39 59q1 2 4 2.5
t4 -2t0 -5.5q-14 -45 -46.5 -79.5t-76.5 -34.5q-105 0 -62 142q13 43 47 136.5t41 124.5q10 43 -3.5 68t-44.5 25q-57 0 -110 -60t-80 -133q-38 -103 -99.5 -185t-132.5 -131t-144 -74t-143 -25q-158 0 -245.5 103t-87.5 259q0 120 52 254q-151 17 -254 103t-103 211
q0 69 29.5 141t89.5 138.5t142.5 119t198.5 84t248 31.5q34 0 38 -22q3 -19 -16 -26q-14 -6 -31 2q-37 17 -97 17q-65 0 -137 -19t-144.5 -59t-130.5 -95.5t-94.5 -137t-36.5 -174.5q0 -110 87.5 -192t219.5 -99q70 166 200 316t281.5 241.5t278.5 91.5q95 0 125 -79
q31 -85 -28 -204q-73 -147 -241 -250q-235 -143 -570 -143q-45 -124 -45 -248q0 -139 75 -238.5t198 -99.5q89 0 164.5 32t122 74.5t85 102t54.5 98t29 78.5q28 87 50 152.5t51.5 145t56 138.5t61 123.5t67.5 110.5t74.5 90t84.5 70.5t94 42.5t106 16zM955 1131
q-97 0 -225.5 -82t-248.5 -227t-182 -307q345 -1 578 159q146 100 201 228q45 109 0 175q-37 54 -123 54z" />
    <glyph glyph-name="T_h" unicode="Th" horiz-adv-x="1152" 
d="M1469 1090q0 -61 -56.5 -106t-146.5 -63t-191 -7q-118 -200 -219 -527l3 -1q31 53 79.5 90.5t109.5 37.5q57 0 75.5 -47t-10.5 -124q-16 -38 -74 -213q-34 -102 27 -102q29 0 54 24t39 59q1 2 4 2.5t4 -2t0 -5.5q-14 -45 -46.5 -79.5t-76.5 -34.5q-105 0 -62 142
q13 43 47 136.5t41 124.5q10 43 -3.5 68t-44.5 25q-57 0 -112 -60.5t-78 -132.5q-43 -135 -91 -266q-5 -13 -17 -19q-36 -16 -39 -17t-5.5 1.5t-1.5 5.5q36 122 125 398q108 331 228 520q-131 16 -292 76q-39 -116 -117.5 -378t-82.5 -275q-106 -350 -296 -350
q-82 0 -141 45q-15 11 -11.5 25.5t16.5 17.5t26 -8q4 -4 16.5 -20t20.5 -23t28.5 -14.5t48.5 -7.5q130 0 213 260q8 25 55.5 178t102.5 332.5t73 235.5q-14 5 -72.5 29t-77.5 31t-68 23.5t-78 22.5t-71 12t-81 6q-164 0 -251 -104q-70 -84 -57 -188q13 -108 106 -167
q75 -49 187 -49q26 0 39 0.5t48.5 6t58 16.5t48.5 35t39 58q8 22 28 16q18 -5 15 -22q-1 -5 -5 -11q-80 -116 -272 -116q-202 0 -291 112q-69 85 -43 197q26 110 128 177q93 62 222 62q70 0 156 -18.5t144 -37.5t158 -56q6 20 22.5 39.5t35.5 26.5q14 5 15.5 -7t-2.5 -17
q-7 -18 -21 -60q185 -69 294 -88q157 237 319 237q49 0 77 -25t28 -63zM1357 1155q-133 0 -270 -221q88 -13 170.5 4.5t132.5 58.5t50 92q0 29 -21.5 47.5t-61.5 18.5z" />
    <glyph glyph-name="t_i" unicode="ti" horiz-adv-x="560" 
d="M506 401q14 42 -2 65t-51 23h-159q-3 0 -3 -1q-57 -160 -95 -279q-37 -111 -31 -147q6 -29 34 -31q47 -3 93 79q2 5 6 2q3 -2 1 -6q-15 -45 -51 -79.5t-80 -33.5q-97 3 -42 165q1 5 2 7q3 6 14 38.5t31 88t34 96.5q0 1 1 5q26 96 -8 97q-12 0 -16 6.5t1 13t14 6.5h50
q2 0 2 2l42 112q25 65 50.5 90t57.5 27q10 0 15 -2t4 -5t-1 -4q-44 -29 -70 -95q-23 -55 -47 -124l1 -1h167q57 0 79.5 -33t9.5 -78q-11 -29 -39 -100t-49.5 -127.5t-26.5 -78.5q-6 -23 2 -45.5t32 -22.5q19 0 38.5 13.5t28.5 25.5t27 39q7 8 8 2q1 -2 0 -4
q-19 -46 -54.5 -79t-77.5 -35q-49 -1 -62.5 37t9.5 95q9 24 53 132t58 144zM587 695q17 0 29 -12.5t12 -28.5q0 -17 -12 -29t-29 -12t-29 12t-12 29t12 29t29 12z" />
    <glyph glyph-name="P_i" unicode="Pi" horiz-adv-x="1500" 
d="M1463 109q7 8 8 2q1 -2 0 -4q-18 -46 -56 -80t-78 -34q-47 0 -59 37.5t10 94.5l116 292q28 73 -32 75q-113 -70 -240 -70q-104 0 -127 46q-14 29 12 51q10 8 14 3q0 -3 -2 -7q-9 -13 0 -30t39 -30.5t76 -13.5q155 0 267.5 115.5t112.5 275.5q0 76 -28 136.5t-76.5 97
t-103.5 58t-118 29.5q-10 1 -16.5 -1.5t-8.5 -6t-4 -10.5q-4 -12 -60 -188.5t-115 -358t-82 -242.5q-21 -56 -47 -109t-69 -113t-92 -103.5t-118 -72.5t-145 -29q-103 0 -183 29.5t-125 78t-69 110t-18 127.5t30 127t73.5 112.5t114.5 80.5q3 43 14 74q30 96 99 187
t171.5 167.5t249 123t312.5 46.5q210 0 340.5 -94t130.5 -249q0 -96 -47.5 -180t-131.5 -147q42 0 53.5 -30.5t-4.5 -72.5q-9 -28 -59 -154t-57 -156q-2 -15 -1.5 -30t9.5 -26.5t26 -11.5q19 0 38.5 13.5t28.5 25.5t27 39zM1109 1137q6 21 -19 21q-78 -2 -158 -15
t-175 -48.5t-174.5 -88.5t-148.5 -142.5t-105 -203.5q-9 -27 -12 -57q51 15 111 15q155 0 202 -87q35 -64 -3 -138q-36 -69 -108 -90q-22 -7 -46 -7q-98 0 -153 78t-57 182q-52 -31 -90.5 -81t-56 -107t-20 -118t20.5 -116.5t63 -99.5t109 -70.5t157 -26.5q38 0 78 11
t88 40.5t91 75t85.5 121t73.5 172.5q198 615 247 780zM315 581q-4 -63 11.5 -121t54 -98t93.5 -40q75 0 120 62q43 58 23 120q-24 76 -132 93q-26 4 -56 4q-60 0 -114 -20z" />
    <glyph glyph-name="P_r" unicode="Pr" horiz-adv-x="1608" 
d="M1588 516q33 0 55 -22t22 -52q0 -36 -18.5 -58.5t-40.5 -21t-38 18.5q-14 18 -6 40.5t33 29.5q26 7 20 27q-11 22 -40 24q-57 0 -126.5 -82t-107.5 -208q-4 -13 -31 -93.5t-30 -87.5q-6 -17 -22 -24q-27 -11 -34 -13q-4 -2 -7 1t-1 9q2 5 28.5 84.5t57 171.5t39.5 120
q22 68 30 115q-116 -73 -245 -73q-104 0 -127 46q-14 29 12 51q9 8 13 3l-1 -7q-9 -13 0 -30t39 -30.5t76 -13.5q133 0 237 88q11 111 -54 111q-27 0 -54 -21.5t-36 -34.5q-5 -7 -11 -2q-1 4 1 8q6 9 22 25.5t47 36t58 19.5q73 0 82 -87q87 108 87 248q0 77 -26.5 136
t-74 96t-103 58t-121.5 31q-10 1 -16.5 -1.5t-8 -5.5t-4.5 -11q-4 -12 -60 -188.5t-115 -358t-82 -242.5q-21 -56 -47 -109t-69 -113t-92 -103.5t-118 -72.5t-145 -29q-91 0 -164 23t-119 61.5t-74.5 89t-35.5 106t3.5 113.5t38 109t72.5 94t102 69q3 42 13 74
q31 96 100 187t171.5 167.5t249 123t312.5 46.5q210 0 340.5 -94t130.5 -249q0 -86 -38.5 -164t-106.5 -136q-3 -47 -16 -97.5t-22 -70.5h3q88 145 193 145zM1102 1137q7 21 -18 21q-78 -2 -158 -15t-175 -48.5t-174.5 -88.5t-148.5 -142.5t-105 -203.5q-9 -27 -12 -57
q51 15 111 15q155 0 202 -87q34 -64 -4 -138q-35 -69 -107 -90q-22 -7 -46 -7q-98 0 -153 78t-57 182q-52 -31 -90.5 -81t-56 -107t-20 -118t20 -116.5t62.5 -99.5t109 -70.5t157 -26.5q39 0 79 11t88 40.5t91 75t85.5 121t73.5 172.5q183 570 246 780zM309 581
q-4 -63 11.5 -121t54 -98t93.5 -40q75 0 120 62q43 58 23 120q-24 76 -132 93q-26 4 -56 4q-62 0 -114 -20z" />
    <glyph glyph-name="t_r" unicode="tr" horiz-adv-x="758" 
d="M491 516q69 0 88 -33.5t2 -94.5h3q95 149 194 144q43 -1 63 -30t11 -67q-8 -31 -26.5 -45.5t-37.5 -11t-31 19.5q-14 17 -5.5 40t33.5 30q25 6 19 27t-34 23h-9q-56 -4 -126.5 -92.5t-109.5 -214.5q-53 -166 -58 -179q-7 -17 -22 -24q-4 -2 -13 -5.5t-16 -6.5t-9 -3
q-5 -1 -8 1.5t0 8.5l25.5 76.5t56 165.5t43.5 131q35 113 -77 113h-151q-1 0 -3 -2q-93 -265 -97 -278q-37 -109 -32 -145q5 -31 33 -33q47 -3 93 79q2 3 5.5 2t1.5 -6q-15 -46 -51 -80.5t-80 -33.5q-99 3 -39 173q2 6 14.5 41t31.5 89.5t34 97.5q22 80 5 93q-4 4 -11 4
q-12 0 -16 6.5t0.5 13t14.5 6.5h49q1 0 3 2l40 112q42 114 107 117q10 0 15 -2t4 -5t-1 -4q-41 -28 -68 -95l-45 -124q0 -1 1 -1h186z" />
    <glyph glyph-name="x_i" unicode="xi" horiz-adv-x="750" 
d="M758 695q16 0 28.5 -12.5t12.5 -28.5q0 -17 -13 -29t-28 -12q-16 0 -29.5 11t-21.5 18t-30 -3.5t-58 -47.5l-319 -325q17 -51 45 -128q4 -10 10 -25.5t9 -24t8 -19.5t9 -17.5t9.5 -12.5t11.5 -8.5t13 -2.5q17 0 34 9.5t29 25.5t18 25t10 17q4 9 7 6q3 -2 0 -8
q-2 -7 -10.5 -22t-24.5 -36.5t-42 -37t-54 -15.5q-44 0 -62 58l-62 172l-241 -246q-134 -138 -232 -108q-39 13 -28 40q10 23 36 15q5 -2 18.5 -11.5t27 -13.5t35 -1.5t55.5 26t76 67.5l245 253l-71 198q-5 13 -9 20t-12 12.5t-18.5 1t-28 -21.5t-39.5 -47q-8 -9 -12 -4
q-2 3 1 8q29 44 55.5 69.5t46 31t35.5 -2t26 -23.5t17 -39q4 -14 52 -159l224 230q9 9 28 29t28 29.5t26.5 27t27.5 26t25.5 21.5t27 19t25.5 13t27 10t26 3zM570 456q4 -6 13 1q51 44 83.5 32.5t9.5 -72.5l-116 -292q-23 -57 -9.5 -95t62.5 -37q42 2 79 35t55 79
q2 5 -1 5.5t-7 -3.5q-18 -27 -27 -39t-28.5 -25.5t-38.5 -13.5q-24 0 -32 22.5t-2 45.5q7 30 57 156t59 154q16 42 4 72t-55 31q-24 1 -55.5 -15t-49.5 -33q-4 -5 -1 -8z" />
    <glyph glyph-name="f_u" unicode="fu" horiz-adv-x="862" 
d="M547 353q-9 -21 -26.5 -58.5t-29 -64t-25 -60.5t-17.5 -57.5t-3 -45.5t15 -33.5t40 -13.5q54 -4 110.5 53.5t96.5 147.5q23 49 66 164q48 121 112 124q17 1 16 -6q-1 -3 -3 -4q-29 -21 -54 -78t-80 -213q-30 -91 -33 -117q-7 -56 34 -60q26 -2 51 22t42 57q4 4 6.5 2.5
t0.5 -6.5q-16 -45 -54 -80t-82 -33q-35 2 -49.5 26.5t-11 55.5t17.5 67h-2q-17 -30 -42.5 -60.5t-71.5 -60t-92 -28.5q-47 1 -71.5 23t-24 53.5t12.5 67.5q18 44 53.5 123.5t42.5 97.5q14 35 16.5 58.5t-12.5 39.5t-50 16h-177l-204 -652q-27 -85 -65 -147t-77.5 -93.5
t-73 -46t-62.5 -15.5q-66 -3 -121 26q-55 30 -27 63q19 22 42 1q7 -6 16.5 -21t17.5 -25.5t27 -19.5t46 -9q63 -1 120.5 71.5t92.5 178.5q50 147 187 602q7 22 7.5 38t-6.5 25t-13.5 14.5t-22.5 7.5t-23.5 2.5t-26.5 0.5q-13 0 -17 6.5t0.5 13t14.5 6.5h121q113 380 299 375
q61 -1 92.5 -24t34.5 -56q1 -27 -27 -36q-31 -7 -44 24q-1 4 -5.5 19t-8.5 22.5t-12.5 17.5t-24.5 13.5t-39 1.5q-18 -1 -34.5 -9t-31 -23.5t-26.5 -30.5t-24.5 -41.5t-21.5 -45t-20.5 -51.5t-17.5 -51.5t-17 -54t-16 -50.5h194q127 0 75 -146z" />
    <glyph glyph-name="v_a" unicode="va" horiz-adv-x="992" 
d="M980 501q10 1 13.5 -1.5t2.5 -5t-3 -3.5q-29 -20 -50.5 -73.5t-70.5 -209.5q-32 -100 -31 -134q3 -40 37 -42q48 -4 92 79q2 4 6 2q2 -2 1 -7q-14 -46 -51 -81t-81 -32q-103 8 -43 173h-2q-24 -58 -83 -116.5t-119 -55.5q-63 3 -90 41.5t-27 92.5q0 61 32 133t83 133
q-20 -18 -76 -11t-89 37q0 1 -1 1q13 -87 -20.5 -188t-108 -172.5t-164.5 -66.5q-52 3 -75.5 34.5t-21.5 76.5q2 51 75 191q63 121 70 154q5 35 -20 38q-32 2 -89 -78q-3 -4 -7 -4t-5 3.5t2 8.5q80 105 143 96q34 -4 36 -33.5t-19.5 -76t-48 -96t-50.5 -106t-26 -94.5
q-6 -90 67 -93q47 -1 94.5 36.5t79.5 92.5t50.5 117t12.5 107q-4 29 -13 48t-17.5 25.5t-16.5 16.5t-9 23q-3 38 32 40q22 2 32 -22q6 -8 18 -21.5t35.5 -32t48 -30t54 -11t54.5 20.5q81 84 153 87q13 1 27.5 -3.5t32 -16t28.5 -39.5t11 -68q23 64 48.5 89t56.5 27zM828 260
q32 88 27 139.5t-23 72t-45 20.5q-69 1 -145 -99q-75 -98 -95 -206q-22 -118 47 -148q12 -5 25 -7q56 -9 115.5 62.5t93.5 165.5z" />
    <glyph glyph-name="c_u" unicode="cu" horiz-adv-x="927" 
d="M929 509q17 1 16 -6q-1 -3 -3 -4q-30 -21 -52 -76.5t-72 -215.5q-32 -100 -30 -134q4 -38 36 -42q26 -3 50 21.5t42 57.5q1 2 3.5 2.5t3.5 -1.5t0 -5q-14 -46 -51 -81t-81 -33q-27 1 -42.5 15.5t-19 36.5t-0.5 47t12 51h-2q-15 -30 -40 -61.5t-69.5 -60t-90.5 -27.5
q-47 1 -72.5 23t-26 53.5t10.5 67.5q21 57 58.5 150t38.5 96q19 47 14.5 75.5t-32.5 29.5q-20 0 -51 -33q-7 -7 -12 0q0 4 1 6q52 58 94 58q23 -1 37.5 -12.5t19.5 -43t-16 -86.5q-8 -23 -23.5 -59t-28 -66.5t-26 -66t-19 -62.5t-5 -51t15 -37.5t42.5 -15.5q54 -4 109.5 54
t92.5 147q22 54 60 165q44 121 108 124zM329 505q-55 0 -112.5 -57t-93.5 -138.5t-36 -151.5q0 -58 25 -92.5t78 -34.5q57 0 104.5 42.5t79.5 108.5q2 5 5.5 6.5t5 -1t0.5 -8.5q-19 -59 -81.5 -123t-135.5 -64q-62 0 -101.5 40.5t-39.5 119.5q0 77 42.5 162t115 144.5
t148.5 59.5q42 0 72.5 -24t34.5 -54.5t-16 -60.5q-13 -16 -33.5 -18t-34.5 12q-17 20 -15 37t14 27q25 21 17.5 44.5t-43.5 23.5z" />
    <glyph glyph-name="q_u" unicode="qu" horiz-adv-x="1012" 
d="M564 455q-6 -7 -11 0q-1 4 0 6q54 58 94 58q24 0 38.5 -11.5t19.5 -43.5t-16 -87q-8 -23 -23.5 -59t-28.5 -66.5t-26.5 -65.5t-19 -62.5t-4.5 -51t15.5 -37t42.5 -15.5q54 -4 109 53.5t92 146.5q19 45 60 165q44 121 108 124q17 1 16 -6q-1 -3 -3 -4q-29 -21 -51 -76
t-73 -216q-28 -93 -30 -121q-2 -51 37 -55q47 -5 91 79q2 4 5.5 2.5t1.5 -6.5q-14 -45 -51 -80t-81 -33q-35 1 -50.5 25.5t-13.5 56t15 67.5h-2q-27 -52 -80.5 -101t-119.5 -48q-47 1 -73 23t-26.5 53.5t10.5 67.5q26 69 98 246q12 32 14.5 55.5t-6 36.5t-26.5 13
q-21 0 -52 -33zM292 -495q-35 0 -58.5 9.5t-34.5 27t-15.5 37.5t-0.5 47t9 48.5t14 49.5l142 442h-2q-24 -57 -80.5 -114.5t-117.5 -57.5q-62 0 -91.5 39.5t-29.5 93.5q0 76 48 167.5t119 154.5t131 63q10 0 20 -2t24 -10t24.5 -20.5t18 -37t7.5 -57.5l2 -1q40 117 106 117
q16 0 16 -5q-1 -2 -4 -5q-28 -19 -47.5 -65.5t-61.5 -176.5q-3 -8 -4.5 -13t-4 -13t-4.5 -15q-22 -68 -151 -451q-10 -30 -17 -55t-13.5 -53.5t-7 -50t3 -40t16 -28t32.5 -9.5q22 0 37 8.5t28.5 25.5t17.5 20q22 19 37.5 5.5t-5.5 -37.5q-13 -15 -38 -24.5t-40.5 -11.5
t-24.5 -2zM333 492q-73 0 -149 -104q-73 -100 -92 -208q-21 -114 44 -142q17 -7 39 -7q55 0 110.5 69t87.5 160q18 51 24 92t2 66.5t-14.5 42.5t-23.5 24t-28 7z" />
    <glyph glyph-name="t_u" unicode="tu" horiz-adv-x="822" 
d="M546 372q-9 -22 -26.5 -59.5t-30 -66t-27 -64t-19.5 -61.5t-4.5 -49.5t14.5 -36.5t40 -15q54 -4 110.5 53.5t96.5 147.5q23 49 66 164q48 121 112 124q17 1 16 -6q-1 -3 -3 -4q-29 -21 -54 -78t-80 -213q-30 -91 -33 -117q-7 -56 34 -60q26 -2 51 22t42 57q4 4 6.5 2.5
t0.5 -6.5q-16 -45 -54 -80t-82 -33q-35 2 -49.5 26.5t-11 55.5t17.5 67h-2q-17 -30 -42.5 -60.5t-71.5 -60t-92 -28.5q-47 1 -71.5 23t-24 53.5t12.5 67.5l103 241q14 35 17.5 58t-7 38t-38.5 15h-177q-3 0 -3 -1l-95 -279q-33 -103 -31 -137q2 -38 33 -41q48 -4 94 79
q2 5 6 2q2 -2 1 -6q-16 -45 -52 -79.5t-80 -33.5q-96 3 -41 165q1 5 2 7q16 49 78 222q28 103 -7 103q-12 0 -16 6.5t0.5 13t14.5 6.5h50q2 0 2 2l43 112q25 65 50.5 90t56.5 27q10 0 15 -2t4 -5t-1 -4q-41 -27 -69 -95q-1 -2 -17.5 -43t-30.5 -81q0 -1 1 -1h203
q48 0 61.5 -29.5t-12.5 -114.5z" />
    <glyph glyph-name="t_y" unicode="ty" horiz-adv-x="800" 
d="M661 142h-2q-27 -52 -80.5 -101t-119.5 -48q-48 1 -73.5 23t-26 53.5t10.5 67.5q16 42 37 96t38 96t20 49q43 111 -23 111h-179q-3 0 -3 -1q-57 -160 -95 -279q-35 -103 -34 -136q1 -39 33 -42q47 -3 93 79q2 5 6 2q3 -2 1 -6q-15 -45 -51 -79.5t-80 -33.5q-99 3 -39 172
q16 49 78 222q28 103 -6 103q-13 0 -17 6.5t1 13t15 6.5h49q1 0 3 2l41 112q25 65 50.5 90t57.5 27q10 0 15 -2t4 -5t-1 -4q-39 -26 -66 -95q-23 -55 -47 -124q0 -1 1 -1h204q94 0 45 -143q-8 -23 -23.5 -59t-28 -66t-26 -64.5t-18.5 -61.5t-4 -50t15.5 -36.5t42.5 -15.5
q54 -4 110 53.5t92 147.5q28 69 59 164q44 121 108 124q18 1 16 -6q0 -3 -2 -4q-29 -19 -50.5 -71.5t-67.5 -198.5q-5 -15 -7 -22q-51 -159 -88 -257q-123 -318 -313 -415q-128 -64 -245 -14q-84 36 -119 112q-26 58 -8 116q15 49 54 87t87 57t94 27.5t82 5.5
q16 -1 20.5 -11.5t-3.5 -19.5t-24 -7q-2 0 -29 9t-54 5q-18 -3 -41 -11t-54.5 -25t-56 -51t-31.5 -78q-17 -105 53 -170q67 -62 169 -46q132 20 237 163q53 72 92 169q91 243 102 289z" />
    <glyph glyph-name="F_u" unicode="Fu" horiz-adv-x="1699" 
d="M1703 509q17 1 16 -6q-1 -3 -3 -4q-29 -21 -54 -78t-80 -213q-30 -91 -33 -117q-5 -55 34 -60q26 -2 51 22t42 57q4 4 6.5 2.5t0.5 -6.5q-16 -45 -54 -80t-82 -33q-35 2 -49.5 26.5t-11 55.5t17.5 67h-2q-17 -30 -42.5 -60.5t-71.5 -60t-92 -28.5q-47 1 -71.5 23
t-24 53.5t12.5 67.5q17 40 42 97.5t42.5 97.5t21.5 51q9 22 14 42.5t3 45t-13.5 42.5t-40.5 30t-74 12q-74 0 -223 -40q-85 -236 -143 -339q-115 -208 -285 -267q-77 -27 -168 -27q-180 0 -278.5 89t-98.5 216q0 66 28 131t77.5 117.5t125.5 85t165 32.5q22 0 23 -18
q2 -17 -17 -20q-6 -1 -14 1q-9 2 -17.5 6t-18 6t-25.5 2q-99 0 -187 -103.5t-88 -231.5q0 -58 19.5 -109.5t57.5 -93.5t101.5 -67t145.5 -25q212 0 345 185q76 106 164 338q8 23 29 79q-52 -11 -100 -11q-52 0 -90 19.5t-55 49.5t-23.5 60t-1.5 57q3 14 12 11q6 -3 6 -11
q1 -11 0 -30.5t8.5 -43.5t23.5 -45t46 -35.5t75 -14.5q49 0 106 13q37 100 63 162.5t67 143.5t89.5 141t106.5 103q-87 30 -127.5 42.5t-122.5 34.5t-159 31t-160 9q-261 0 -420 -135q-110 -94 -130 -213q-17 -109 50 -174q42 -40 108 -52q5 -1 7 -3.5t1.5 -4.5t-3.5 -3
q-75 -23 -145.5 35t-70.5 154q0 56 24 114t74.5 113t120.5 98.5t170 69.5t215 26q101 0 212.5 -21t173.5 -40.5t172 -57.5q20 -7 29 -10q127 86 302 86q95 0 120 -50q20 -40 -16 -77q-41 -41 -119 -41q-101 0 -276 59q-52 -41 -95.5 -97.5t-81.5 -134.5t-61 -135.5
t-59 -156.5q7 2 46.5 13.5t54.5 15t46.5 11t58 10t54.5 2.5q89 0 122.5 -63.5t-0.5 -148.5q-9 -23 -25.5 -59t-30.5 -66.5t-28.5 -65.5t-21 -62.5t-6.5 -51t14 -37t42 -15.5q54 -4 110.5 53.5t96.5 147.5q23 49 66 164q48 121 112 124zM1580 1156q-157 0 -273 -82
q169 -58 258 -58q70 0 95 45q21 37 -6 68q-24 27 -74 27z" />
    <glyph glyph-name="F_i" unicode="Fi" horiz-adv-x="1493" 
d="M1596 1171q95 0 120 -50q20 -40 -17 -77q-40 -41 -118 -41q-102 0 -277 59q-52 -41 -95.5 -98t-80.5 -133.5t-61 -136.5t-59 -156q5 1 39 11t43.5 12.5t39 10t46.5 10t42.5 5t48.5 2.5q57 0 77 -29.5t-2 -69.5q34 22 65 22q42 0 53.5 -30.5t-4.5 -72.5q-9 -28 -59 -154
t-57 -156q-2 -15 -1.5 -30t9.5 -26.5t26 -11.5q19 0 38.5 13.5t28.5 25.5t27 39q7 8 8 2q1 -2 0 -4q-18 -46 -56 -80t-78 -34q-47 0 -59 37.5t10 94.5l116 292q13 37 6 56t-29 19q-6 0 -12 -1.5t-12.5 -4.5t-12 -6t-13 -9t-12 -9.5t-12 -11l-11 -11l-11.5 -11.5l-10 -10
q-10 -10 -16 -2q-3 5 4 11t16.5 19t17 33t5.5 37t-25 29t-69 12q-70 0 -213 -40q-85 -235 -141 -338q-114 -208 -282 -269q-79 -28 -173 -28q-181 0 -279 89.5t-98 216.5q0 66 28 131t77.5 117.5t125.5 85t165 32.5q22 0 23 -18q1 -16 -16 -20l-16 1q-9 2 -17.5 6t-17.5 6
t-25 2q-99 0 -187 -103.5t-88 -231.5q0 -58 19 -110t57 -94t102 -67t146 -25q212 0 345 185q76 105 163 337q9 23 30 81q-50 -11 -100 -11q-52 0 -90 19.5t-55 49.5t-23.5 60t-1.5 57q3 14 12 11q6 -3 6 -11q1 -11 0 -30.5t8.5 -43.5t23.5 -45t46 -35.5t75 -14.5
q49 0 106 13q37 101 63 162.5t67 143t89.5 141.5t106.5 103q-91 31 -128 42.5t-121.5 34.5t-160.5 32t-159 9q-262 0 -422 -136q-109 -94 -128 -213q-18 -110 51 -175q41 -40 107 -51q5 -1 7 -3.5t1 -4.5t-3 -3q-75 -23 -145.5 35t-70.5 154q0 56 24 114t74.5 113
t120.5 98.5t170 69.5t215 26q102 0 212.5 -21t178.5 -42t171 -57l9 -3t7.5 -3t8.5 -3q127 86 303 86zM1581 1017q69 0 94 45q21 37 -6 68q-24 27 -74 27q-157 0 -273 -82q169 -58 259 -58zM1493 695q17 0 29 -12t12 -29t-12 -29.5t-29 -12.5t-29 12.5t-12 29.5q0 16 12 28.5
t29 12.5z" />
    <glyph glyph-name="A_h" unicode="Ah" horiz-adv-x="2072" 
d="M2309 1180q48 0 73.5 -12t19.5 -30q-8 -25 -43 -10q-39 17 -73 23t-78.5 -3t-85.5 -38.5t-90.5 -91.5t-97.5 -155q-111 -215 -184 -476l3 -1q31 53 79.5 90.5t109.5 37.5q57 0 75.5 -47t-10.5 -124q-16 -38 -74 -213q-34 -102 27 -102q29 0 54 24t39 59q1 2 4 2.5t4 -2
t0 -5.5q-14 -45 -46.5 -79.5t-76.5 -34.5q-105 0 -62 142q13 43 47 136.5t41 124.5q10 43 -3.5 68t-44.5 25q-57 0 -112 -60.5t-78 -132.5q-43 -135 -91 -266q-5 -13 -17 -19q-36 -16 -39 -17t-5.5 1.5t-1.5 5.5q19 58 55 172t56.5 177.5t56 165.5t62 164.5t66 142t76 131
t83.5 100t97 77.5q-38 18 -70.5 24t-75.5 -3t-84.5 -39.5t-92 -93.5t-103.5 -156q-83 -147 -265 -654q-2 -4 -5 -14q-8 -22 -12 -34.5t-10.5 -34.5t-7 -35t1 -27.5t10 -22t23.5 -8.5q47 -3 95 79q1 2 3 2.5t3.5 -1.5t0.5 -5q-17 -46 -55 -81t-81 -32q-96 6 -37 170q1 1 1 2
q19 57 23 86t-4 51q-40 104 -115 188q-167 -221 -245 -305q-176 -193 -348 -241q-68 -20 -141 -20q-93 0 -171 25.5t-131.5 69.5t-90 103t-50 124t-5.5 134.5t36.5 134t82.5 123t127 99.5q24 14 35 -2q10 -15 -7 -27l-4 -2q-7 -3 -21 -4t-33.5 -11.5t-48.5 -38.5
q-49 -49 -78.5 -121.5t-36 -151t15 -157t66 -140.5t126 -101t187.5 -39q61 0 121 17.5t111.5 44t108 73t99.5 89t97.5 107t91.5 113t91 120.5q-90 95 -208.5 145t-242.5 50q-197 0 -314 -126q-89 -96 -93 -218q-4 -118 73 -185q63 -55 164 -55q72 0 97 43q11 19 30 10
q17 -9 7 -27q-2 -3 -5 -6q-35 -35 -130 -35q-153 0 -221 108q-59 94 -29 221q32 132 145 216q114 84 275 84q291 0 479 -188q162 214 312.5 360.5t305.5 227.5q-34 -15 -101 -17t-133 4t-155.5 12.5t-145.5 6.5q-157 0 -230 -97q-54 -73 -35 -158q18 -81 90 -113
q34 -15 75 -15q44 0 75 12.5t46.5 33.5t22.5 41.5t8 44.5q1 17 13.5 24t23 -1t8.5 -25q-3 -17 -14 -38.5t-32.5 -48t-60.5 -44t-89 -17.5q-113 0 -163 83q-46 74 -17 164q31 97 130 143q66 30 150 30q55 0 197 -12.5t218 -12.5q62 0 157 23.5t144 23.5q75 0 93 -25
q64 26 137 26zM1424 341q99 273 189 447t198 279q-142 -103 -261 -232.5t-254 -306.5q73 -77 128 -187z" />
    <glyph glyph-name="A_l2" unicode="Al" horiz-adv-x="1795" 
d="M1620 165q51 162 91 278.5t90 236t97.5 201.5t106 148.5t122.5 102.5q-37 17 -69.5 22t-74.5 -5t-83 -41t-90.5 -93t-101.5 -153q-82 -145 -265 -655q-36 -99 -35 -132q0 -41 35 -43q46 -3 95 78q2 5 6 2q2 -2 1 -6q-17 -45 -55 -80.5t-81 -32.5q-28 2 -43 18t-17 35.5
t3 47t10 42t11 29.5q35 97 19 137q-45 109 -114 188q-167 -219 -241 -300q-176 -193 -344 -244q-72 -22 -150 -22q-122 0 -218 45t-150 116t-73.5 161.5t0 180t81 173t158.5 138.5q24 14 35 -2q10 -15 -7 -27l-4 -2q-7 -3 -21 -4t-33.5 -11.5t-48.5 -39.5
q-42 -42 -70.5 -101.5t-38 -125.5t-4 -135t34.5 -131t74.5 -110.5t119 -77.5t164.5 -29q61 0 121 17.5t111.5 44.5t108 73t99.5 88.5t97.5 107t92 113.5t90.5 121q-90 95 -213.5 145t-254.5 50q-194 0 -307 -125q-87 -95 -88 -218q-2 -118 77 -186q64 -55 165 -55
q72 0 97 43q11 19 30 10q17 -9 7 -27q-2 -3 -5 -6q-35 -35 -130 -35q-153 0 -221 108q-60 95 -29 221q33 132 146 216q114 83 274 83q290 0 479 -187q121 172 298 346.5t320 240.5q-43 -14 -111.5 -16t-132 3.5t-149.5 12t-142 6.5q-157 0 -230 -97q-54 -73 -35 -158
q18 -81 90 -113q34 -15 75 -15q44 0 75 12.5t46.5 34t22.5 41.5t8 44t21 27q18 3 23 -15q2 -6 1 -13q-3 -17 -14 -38.5t-32.5 -48t-60.5 -44t-89 -17.5q-113 0 -163 83q-46 74 -17 164q31 97 130 143q66 30 150 30q55 0 197 -12.5t218 -12.5q67 0 158 23.5t154 23.5
q58 0 79 -23q62 24 131 24q48 0 74 -12.5t20 -30.5q-4 -12 -17.5 -14t-25.5 4q-39 17 -73.5 23t-79 -3t-86 -38.5t-90.5 -91.5t-98 -155q-43 -81 -116.5 -285t-127.5 -370q-35 -108 -29 -144q5 -33 37 -33q47 0 90 79q2 4 5.5 3t2.5 -7q-15 -45 -50.5 -79t-78.5 -34
q-17 0 -30 4.5t-20 14t-12 19t-5 24.5t0.5 25.5t4 27t5.5 23.5l6 21zM1435 341q99 274 186.5 445t199.5 281q-113 -75 -254 -226t-261 -314q76 -81 129 -186z" />
    <glyph glyph-name="i_l" unicode="il" horiz-adv-x="498" 
d="M1275 1409q195 25 306 -68q86 -72 84 -180q-3 -116 -108 -205q-155 -131 -449 -129q-52 0 -108 5q-142 13 -328 66q-149 -266 -276 -692q-28 -93 -30 -120q-4 -54 36 -57q48 -2 92 79q2 5 6 3q2 -2 1 -7q-15 -46 -51.5 -81t-80.5 -32q-16 1 -28.5 6t-19 14.5t-10.5 19.5
t-4 24.5v25t3.5 26t5.5 23t6 20.5t4 14q140 467 305 746q-106 35 -193 40t-138.5 -12t-89.5 -48t-53.5 -56.5t-22.5 -49.5q-19 -62 15 -98q27 -22 44 -16.5t41.5 16t39.5 4.5q21 -8 25 -28t-11 -35.5t-40 -11.5q-87 13 -121.5 62.5t-14.5 111.5q12 37 38 70t72 60
t104.5 40.5t140.5 6.5t174 -39q265 436 634 482zM1253 862q76 12 139 41t104 67.5t68.5 85t32 93t-5.5 91.5q-18 64 -86.5 105.5t-160.5 46t-195 -32.5q-133 -52 -248 -157.5t-219 -286.5q77 -22 136.5 -35t132.5 -23t148 -9t154 14zM76 456q-3 3 1 8q18 17 49.5 33t55.5 15
q42 -1 53.5 -31t-4.5 -72q-9 -28 -59 -154t-57 -156q-6 -23 2 -45.5t32 -22.5q19 0 38.5 13.5t28.5 25.5t27 39q7 8 8 2q1 -2 0 -4q-18 -46 -55 -79t-79 -35q-47 -2 -60 36.5t9 95.5l116 292q23 61 -9.5 72.5t-83.5 -32.5q-9 -7 -13 -1z" />
    <glyph glyph-name=".notdef" horiz-adv-x="317" 
 />
    <glyph glyph-name=".null" horiz-adv-x="0" 
 />
    <glyph glyph-name="glyph2" horiz-adv-x="333" 
 />
    <glyph glyph-name="space" unicode=" " horiz-adv-x="307" 
 />
    <glyph glyph-name="exclam" unicode="!" horiz-adv-x="372" 
d="M150 73q17 0 30 -12t13 -29q1 -17 -11 -29t-29 -12t-29.5 12.5t-13.5 28.5q0 17 11.5 29t28.5 12zM823 1181q48 0 74 -12.5t21 -30.5q-4 -12 -17.5 -14t-25.5 4q-33 14 -62 20.5t-64 5.5t-69.5 -18.5t-71 -49t-74.5 -88.5t-75 -135q-59 -118 -185 -539
q-38 -126 -106 -130q-19 -1 -17 7l2 3q35 24 67 129q41 138 77 243.5t79.5 206t89.5 170t100.5 123t118.5 79.5t138 26z" />
    <glyph glyph-name="quotedbl" unicode="&#x22;" horiz-adv-x="473" 
d="M205 606q37 22 51.5 45t12 39t-8 38t-4.5 34q3 22 16 30.5t27 7.5q11 0 24.5 -9.5t14.5 -27.5q1 -51 -41 -97.5t-85 -69.5q-10 -6 -12 3q1 4 5 7zM358 606q37 22 51.5 45t12 39t-8 38t-4.5 34q3 22 16 30.5t27 7.5q11 0 24.5 -9.5t14.5 -27.5q1 -51 -41 -97.5t-84 -69.5
q-11 -6 -13 3q1 4 5 7z" />
    <glyph glyph-name="numbersign" unicode="#" horiz-adv-x="865" 
d="M822 505q8 0 8 -4l-1 -2q-26 -14 -46 -14h-128l-106 -219h182q7 -2 7 -5q-26 -14 -45 -14h-153l-93 -188q-25 -52 -25 -82q0 -11 -1.5 -12.5t-11.5 5.5q-7 6 -11 19t-0.5 40t19.5 60l77 158h-179l-93 -188q-25 -52 -25 -82q0 -11 -1.5 -12.5t-12.5 5.5q-7 6 -11 19t0 40
t20 60l76 158h-162q-3 0 -4 1.5t1 2.5q25 14 49 14h125l107 220h-187q-3 0 -4 1.5t1 3.5q22 13 49 13h9t22 0.5t31.5 0.5h41h46.5l69 142q35 75 37 116q1 15 12 2q34 -34 -8 -120l-65 -140h181l68 142q35 75 37 116q1 16 13 2q32 -33 -8 -120l-65 -140q88 1 158 1zM503 266
l106 219h-179l-106 -220q28 0 88 0.5t91 0.5z" />
    <glyph glyph-name="dollar" unicode="$" horiz-adv-x="708" 
d="M556 772q58 -10 96 -41.5t37 -90.5q-1 -40 -34 -52t-55 10q-17 15 -13.5 39.5t24.5 36.5q9 6 12 16t-3 22q-17 30 -70 42l-99 -340q32 -32 44 -44.5t36.5 -41t33.5 -47t16 -44.5t3 -51q-12 -84 -82 -139t-175 -57q-37 -126 -38 -128q-10 -25 -29 -39q-3 -3 -4.5 -1.5
t-0.5 6.5q0 2 48 163q-62 2 -105.5 20.5t-62.5 43.5t-26.5 55.5t-4.5 55t11 43.5q8 18 30 23t41 -8t20 -35t-10 -34q-3 -4 -15.5 -15t-17 -21t-0.5 -24q9 -30 43.5 -56.5t101.5 -29.5l106 362q-5 5 -23 23.5t-23.5 24.5t-21 23t-21 25t-17 23t-16 25t-10 23.5t-7.5 25.5
t-1 24q5 89 85.5 142t172.5 45q5 18 11 36t8 25l2 8q7 26 30 37q4 1 4 -1q0 -3 -3 -11zM527 168q5 44 -20 87.5t-74 95.5l-100 -341q94 3 140 47.5t54 110.5zM432 433l95 324q-71 6 -132.5 -31t-65.5 -98q-3 -50 24 -95t79 -100z" />
    <glyph glyph-name="percent" unicode="%" horiz-adv-x="875" 
d="M636 608q-55 -91 -131 -212.5t-125 -200t-58 -94.5q-49 -88 -45 -131q0 -2 -1.5 -5t-6 -2t-9.5 10q-30 48 34 154q28 47 165 264.5t148 236.5q55 98 51 138q0 2 1 4t5.5 1t10.5 -9q30 -41 -39 -154zM678 358q74 0 89 -77q14 -75 -33 -165q-47 -92 -118 -116
q-32 -12 -65 -5q-35 7 -55 35.5t-21 64.5t10 73q27 77 81 118t94 37q11 -1 15.5 -10.5t-1 -18.5t-18.5 -8q-11 1 -16 10.5t-9 9.5q-7 0 -19 -8q-55 -40 -84 -107t-20.5 -121.5t51.5 -64.5q65 -14 121 71q51 77 55 167q3 91 -54 107q-1 1 -3 1q-4 1 -5 3q2 3 5 4zM346 720
q74 0 89 -76q14 -75 -33 -166q-47 -92 -119 -117q-32 -10 -64 -4q-52 11 -69.5 66t3.5 108q27 77 80.5 117.5t94.5 37.5q11 -1 15.5 -10.5t-1 -18.5t-17.5 -9q-11 1 -16.5 10.5t-8.5 9.5q-9 0 -19 -8q-56 -40 -85 -107t-20 -121.5t51 -64.5q65 -14 121 71q51 77 55 167
q3 91 -54 107q-1 1 -3 1q-8 3 -4 6q2 1 4 1z" />
    <glyph glyph-name="ampersand" unicode="&#x26;" horiz-adv-x="1145" 
d="M945 452q105 0 158.5 -59.5t41.5 -156.5q-15 -105 -120 -187.5t-258 -82.5q-173 0 -309 144q-107 -122 -235 -122q-21 0 -45 5t-51.5 17.5t-48.5 31.5t-34 51t-10 71q3 38 22.5 72.5t42 57.5t61.5 47.5t59.5 34.5t57.5 27l7 3.5t6 2.5q-42 146 -6 229q26 62 86.5 102.5
t144.5 40.5q59 0 94.5 -33.5t35.5 -76.5q0 -52 -37 -91t-89 -38q-5 0 -5 3t4 3q35 6 58 39.5t26 71t-20 69t-71 34.5q-52 3 -96.5 -22.5t-69.5 -73.5q-44 -89 -3.5 -234t137.5 -267q23 31 58.5 84.5t60 90t61.5 80t71 69.5t80 42.5t96 13.5q22 -2 22 -16q0 -13 -14 -15
q-5 -1 -10 0q-3 1 -13.5 5t-18.5 6t-26.5 -1t-41.5 -12q-48 -20 -94.5 -64t-75.5 -86t-73 -109t-70 -102q136 -165 285 -165q160 0 253 110q71 84 68 184q-3 94 -71 135q-36 21 -85 21q-94 0 -158 -77q-48 -59 -42 -113q4 -38 38 -48q22 -6 16 -23q-5 -15 -23 -12
q-5 1 -10 4q-33 20 -42 55.5t6.5 74.5t45 74t76.5 58t97 23zM224 11q117 -13 222 111q-106 117 -152 273q-163 -70 -200 -180q-28 -83 23 -147q40 -50 107 -57z" />
    <glyph glyph-name="quotesingle" unicode="'" horiz-adv-x="49" 
d="M153 606q37 22 51.5 45t12 39t-8 38t-4.5 34q3 22 16 30.5t27 7.5q11 0 24.5 -9.5t14.5 -27.5q1 -51 -41 -97.5t-85 -69.5q-10 -7 -12 2q1 5 5 8z" />
    <glyph glyph-name="parenleft" unicode="(" horiz-adv-x="517" 
d="M722 1124q-49 -26 -97 -58t-109.5 -88.5t-112.5 -123t-98.5 -163.5t-76.5 -207q-35 -129 -24 -265.5t47.5 -250t92.5 -205.5q13 -18 30 -28.5t19 -12.5q9 -8 7 -17t-10 -10.5t-17 6.5q-14 14 -36.5 45.5t-55.5 88t-60 123.5t-49 153t-22.5 176t18.5 192q26 119 88 228.5
t134.5 186.5t154 138.5t146.5 95.5t113 46q13 3 20 -2.5t4 -14t-14 -11.5q-13 -3 -20 -1t-26.5 -3t-45.5 -18z" />
    <glyph glyph-name="parenright" unicode=")" horiz-adv-x="572" 
d="M-76 -256q49 26 96.5 58.5t109 89t112.5 123t99 163.5t77 207q35 129 24 265.5t-47.5 249.5t-92.5 205q-13 18 -30.5 29t-19.5 13q-9 8 -7 17t10.5 10.5t17.5 -6.5q14 -15 36 -46t55.5 -88t60 -124t49 -153t23 -175.5t-18.5 -192.5q-27 -119 -88.5 -228.5t-134.5 -186.5
t-154 -138.5t-146.5 -95t-112.5 -45.5q-21 -5 -24 9t14 18q13 4 20 2t26.5 2.5t45.5 17.5z" />
    <glyph glyph-name="asterisk" unicode="*" horiz-adv-x="814" 
d="M639 963q34 -24 62.5 -33t47.5 -11t31 -11q24 -18 -2 -48q-28 -30 -54 -12q-12 8 -18.5 24t-22.5 38.5t-50 46.5q-23 -66 -22.5 -108.5t-4.5 -57.5q-13 -37 -47 -37q-14 0 -21 10t-1 27q5 14 35.5 57t53.5 109q-68 -33 -109.5 -68.5t-56.5 -42.5q-21 -9 -32 -5.5
t-14 16.5q-6 30 31 48q15 7 63 16.5t116 42.5q-35 24 -63 33t-46.5 11t-30.5 11q-26 18 2 48t53 12q12 -9 19 -24.5t23 -38t50 -46.5q23 66 22.5 109t4.5 57q13 37 47 37q15 0 21.5 -9.5t0.5 -27.5q-5 -14 -35.5 -57t-53.5 -109q69 33 110 69t56 43q38 18 46 -11
q2 -12 -5.5 -26.5t-25.5 -22.5q-15 -7 -63.5 -16.5t-116.5 -42.5z" />
    <glyph glyph-name="plus" unicode="+" horiz-adv-x="484" 
d="M434 320l-13 -34h-136l-50 -138h-41l50 138l-137 1l12 33h138l43 120h41l-43 -120h136z" />
    <glyph glyph-name="comma" unicode="," horiz-adv-x="243" 
d="M25 -124q37 22 51.5 45t12 39t-8 37.5t-4.5 33.5q4 39 43 39q11 0 24.5 -9.5t14.5 -27.5q1 -52 -41 -98.5t-85 -69.5q-8 -4 -11 1t4 10z" />
    <glyph glyph-name="hyphen" unicode="-" horiz-adv-x="452" 
d="M399 252q12 -17 10.5 -33t-17.5 -20q-15 -4 -27 3.5t-27.5 25t-27.5 26.5q-35 24 -94 27t-100 -5l-42 -9q-19 -6 -19 6q0 14 73.5 26t159 2t111.5 -49z" />
    <glyph glyph-name="period" unicode="." horiz-adv-x="206" 
d="M78 78q16 0 28.5 -12t12.5 -29t-12.5 -29t-28.5 -12q-17 0 -29 12t-12 29t12 29t29 12z" />
    <glyph glyph-name="slash" unicode="/" horiz-adv-x="458" 
d="M689 1208q10 -11 14 -31t-2 -55t-25 -76q-44 -95 -179 -383.5t-247 -527.5t-119 -256q-40 -96 -32 -137q2 -7 -4 -7q-5 -1 -13 9q-39 50 12 163q19 41 152.5 325t259.5 552t133 285q42 100 33 141q0 16 17 -2z" />
    <glyph glyph-name="zero" unicode="0" horiz-adv-x="566" 
d="M43 181q0 88 47.5 176t121.5 143.5t145 55.5q19 0 27.5 -16t0.5 -32.5t-29 -16.5q-18 0 -27 17t-16 17q-29 0 -66.5 -29.5t-71 -76.5t-56.5 -114.5t-23 -134.5q0 -82 31.5 -127t89.5 -45t111.5 43.5t89.5 109.5t57.5 143t21.5 144q0 47 -12.5 82t-30.5 51.5t-33.5 24
t-27.5 7.5q-8 0 -7.5 6t7.5 6q114 0 147 -108q31 -104 -21 -246q-54 -144 -155 -221q-74 -55 -154 -55q-82 0 -124.5 57t-42.5 139z" />
    <glyph glyph-name="one" unicode="1" horiz-adv-x="423" 
d="M486 614q-37 -25 -74 -134q-7 -23 -73.5 -215.5t-82.5 -234.5q-6 -14 -18 -19q-6 -2 -21.5 -9.5t-17.5 -7.5q-3 -1 -5.5 1.5t-1.5 5.5l147 411q-49 -94 -162 -183.5t-192 -102.5q-4 0 -6 1.5t-1 4t4 3.5q65 18 130.5 64t117 105.5t90.5 118.5t66 115q40 86 92 86
q16 0 12 -6q-1 -3 -4 -4z" />
    <glyph glyph-name="two" unicode="2" horiz-adv-x="516" 
d="M218 105q31 0 60 -16.5t47.5 -36t43.5 -36t48 -16.5q24 0 55 16q10 6 10 -2q1 -5 -5 -8q-53 -28 -97 -28q-31 0 -59.5 15.5t-46.5 34.5t-42 34.5t-48 15.5q-31 0 -60.5 -17.5t-72.5 -60.5q-27 -25 -46 -13q-16 10 0 29q3 4 7 7q53 42 136 100t138 98t111 88t84 94t28 92
q0 54 -33 85t-99 31q-85 0 -141.5 -65t-56.5 -135q0 -40 14 -69.5t41 -29.5q10 0 21 23t31 23q13 0 20.5 -9t7.5 -20q0 -35 -73 -35q-81 0 -106 66q-24 64 19 139q52 90 162 119q40 10 84 10q76 0 120.5 -34.5t44.5 -98.5q0 -37 -16 -69t-57 -70t-81 -68t-120.5 -90
t-143.5 -110q38 17 71 17z" />
    <glyph glyph-name="three" unicode="3" horiz-adv-x="512" 
d="M474 84q0 -68 -35 -127.5t-88 -97t-113 -59t-114 -21.5q-128 0 -165 71q-25 48 5 96q27 44 75 44q23 0 31.5 -14t0.5 -28.5t-25 -14.5q-12 0 -22.5 11t-15.5 11q-17 0 -27 -31q-15 -50 20 -88q37 -41 123 -41q135 0 223 102q68 80 69 173q1 90 -67 123q-52 26 -133 7
q-10 -2 -12 3t9 9q79 28 114 46q183 93 184 226q0 62 -35 93.5t-92 31.5q-32 0 -66.5 -12.5t-66 -36.5t-52 -64.5t-20.5 -90.5q0 -44 17.5 -66.5t39.5 -22.5q8 0 13.5 6.5t8.5 14.5t10 14.5t18 6.5q13 0 21 -7.5t8 -19.5q0 -38 -74 -38q-49 0 -80.5 28.5t-31.5 86.5
q0 97 86 157t185 60q74 0 120.5 -38t46.5 -103q0 -156 -267 -256q23 5 52 -1t57 -22t46.5 -48t18.5 -73z" />
    <glyph glyph-name="four" unicode="4" horiz-adv-x="475" 
d="M524 614q-37 -26 -69 -134q-8 -33 -134 -432q40 -4 69.5 4.5t38 16t20.5 23.5l3 3q14 18 26 7q11 -11 -1 -20q-71 -56 -164 -59q-51 -165 -61 -190q-5 -14 -17 -19q-40 -16 -44 -17q-2 -1 -5 1.5t-2 5.5l71 221q-26 3 -76 11t-81 11.5t-75.5 0t-82.5 -18.5q-6 -2 -10.5 1
t-3 8.5t8.5 8.5q116 61 268 217.5t226 291.5q37 68 82 68q17 0 16 -6q-1 -3 -3 -4zM265 54l130 408q-34 -62 -166.5 -199.5t-223.5 -200.5q22 6 46.5 9t42.5 3.5t46 -2t40.5 -4.5t44 -7.5t40.5 -6.5z" />
    <glyph glyph-name="five" unicode="5" horiz-adv-x="568" 
d="M129 228q26 38 86 71t118 33q76 0 125 -52t49 -130q0 -97 -57 -185t-140 -138t-164 -50q-128 0 -160 77q-21 49 5 94q17 31 43 31q13 0 21 -8.5t8 -20.5q0 -15 -22 -29t-22 -35q0 -41 34.5 -67t92.5 -26q131 0 222 115q73 94 80 207q7 111 -59 157q-34 23 -82 23
q-107 0 -189 -104q-14 -18 -24 -12q-6 3 -1 16q13 34 74 211t66 197q10 33 31 25q69 -28 109 -38t96.5 -5.5t129.5 30.5q12 4 14.5 -1.5t-5.5 -11.5q-158 -116 -360 -15z" />
    <glyph glyph-name="six" unicode="6" horiz-adv-x="557" 
d="M743 790q13 0 18.5 -10t0.5 -19.5t-20 -9.5q-11 0 -37.5 8t-47.5 8q-101 0 -199 -59t-167 -148.5t-112 -195.5t-43 -200q0 -73 32 -118.5t92 -45.5q99 0 175 110q66 97 73 210q7 115 -57 153q-25 15 -58 15q-45 0 -88 -34.5t-43 -71.5q0 -7 7 -20t7 -27q0 -17 -14 -24.5
t-28 -1t-14 25.5q0 59 58 117t134 58q110 0 142 -97q30 -90 -19 -208q-51 -122 -150 -182q-66 -40 -139 -40q-119 0 -155 106t24 261q68 172 215 292q182 148 413 148z" />
    <glyph glyph-name="seven" unicode="7" horiz-adv-x="511" 
d="M-7 -206q-15 -25 -37 -16q-20 7 -15 29q2 6 6 12l23 33q22 33 48.5 71t68.5 95.5t82.5 112t89.5 116t92.5 112.5t87.5 95.5t78 69.5q-42 -21 -76 -21q-41 0 -106 33.5t-104 33.5q-53 0 -113 -43q-10 -8 -15 0q-2 5 3 10q94 83 169 83q48 0 116 -38t99 -38q55 0 115 76
q19 23 41 17q21 -6 12 -28q-4 -8 -12 -17q-9 -10 -47.5 -34.5t-93 -68.5t-104.5 -101q-146 -169 -237 -292t-115.5 -170.5t-38 -86.5t-17.5 -45z" />
    <glyph glyph-name="eight" unicode="8" horiz-adv-x="534" 
d="M574 624q0 -40 -18.5 -73t-56 -60.5t-68 -44t-80.5 -39.5q43 -44 65.5 -70.5t43 -66t20.5 -76.5q0 -69 -39.5 -120.5t-94 -74.5t-112.5 -23q-81 0 -134.5 50.5t-53.5 121.5q0 36 15.5 68.5t37 56.5t57 48t63.5 38.5t69 33.5q-50 53 -75.5 97t-25.5 97q0 81 68 133t156 52
q66 0 114.5 -38.5t48.5 -109.5zM299 382q-37 -18 -59 -30t-53 -34.5t-48.5 -45.5t-30.5 -58t-13 -76q0 -65 37.5 -106t107.5 -41q78 0 131.5 52t53.5 129q0 29 -8 54.5t-29 54t-37 46.5t-52 55zM400 758q-65 0 -112.5 -45.5t-47.5 -119.5q0 -72 100 -175q85 42 137 88
t52 111q0 63 -34 102t-95 39z" />
    <glyph glyph-name="nine" unicode="9" horiz-adv-x="572" 
d="M-5 -208q-42 0 -93 12.5t-51 32.5q0 18 21 18q11 0 19 -7.5t15 -16.5t32 -16.5t66 -7.5q147 0 288 159q119 134 176 309q56 172 11 264q-34 66 -116 67q-99 0 -172 -110q-64 -98 -69 -212q-5 -113 58 -149q23 -14 54 -14q52 0 91.5 33.5t39.5 67.5q0 10 -7 24t-7 24
q0 18 14 26t28 0.5t14 -26.5q0 -57 -58 -115t-129 -58q-115 0 -147 98q-30 90 21 210q51 119 148 178q63 39 132 39q148 0 179 -125q29 -117 -52 -291q-80 -173 -217 -290q-144 -124 -289 -124z" />
    <glyph glyph-name="colon" unicode=":" horiz-adv-x="266" 
d="M138 372q17 0 29 -12t12 -29t-12.5 -29t-28.5 -12t-28.5 12t-12.5 29t12 29t29 12zM78 78q16 0 28.5 -12t12.5 -29t-12.5 -29t-28.5 -12q-17 0 -29 12t-12 29t12 29t29 12z" />
    <glyph glyph-name="semicolon" unicode=";" horiz-adv-x="315" 
d="M189 372q17 0 29 -12t12 -29t-12 -29t-29 -12t-29 12t-12 29t12 29t29 12zM118 70q11 0 24.5 -9.5t13.5 -27.5q1 -52 -41 -98.5t-84 -69.5q-9 -4 -11.5 1t4.5 10q36 22 51 45t12 39t-8.5 37.5t-3.5 33.5q4 39 43 39z" />
    <glyph glyph-name="less" unicode="&#x3c;" horiz-adv-x="516" 
d="M138 306q46 -25 86 -51.5t82.5 -64t64.5 -82t16 -89.5q-1 -9 -13.5 -13.5t-23 -4t-11.5 1.5q8 46 -16 92t-70.5 84.5t-88.5 65t-89 50.5q-8 4 9 10q9 3 27 8q8 2 45.5 11.5t53 13.5t51.5 15t56.5 19.5t53 23t54.5 29.5t47 35t45 43h42q-45 -59 -158 -111t-263 -86z" />
    <glyph glyph-name="equal" unicode="=" horiz-adv-x="653" 
d="M569 385h-411l12 34h412zM510 167h-411l12 34h412z" />
    <glyph glyph-name="greater" unicode="&#x3e;" horiz-adv-x="521" 
d="M99 17q-3 -8 -16.5 -12t-23 -3t-10.5 2q89 171 391 296q-28 6 -57 17.5t-59.5 30t-53.5 40.5t-35.5 52t-7.5 63h48q-1 -31 13.5 -58t36 -45.5t54.5 -35.5t58.5 -26.5t57.5 -19.5q5 -2 -9 -9q-8 -4 -36 -16q-186 -83 -271 -163q-57 -55 -80 -113z" />
    <glyph glyph-name="question" unicode="?" horiz-adv-x="702" 
d="M610 1184q133 3 229 -74t86 -205q-6 -80 -45 -151.5t-91.5 -121t-128 -97.5t-137 -77t-138.5 -65t-114 -57q-64 -36 -76 -69q-10 -27 30 -30q21 -2 4 -13q-25 -17 -57 -14q-18 1 -26 13q-18 25 0 51.5t63 50.5t107.5 55t132 63t139.5 76.5t128 94t98.5 117.5t49.5 144
q16 136 -64 213.5t-197 75.5q-143 -3 -238.5 -92t-123.5 -236q-25 -128 49 -200q52 -50 116 -44q61 5 80 60q3 9 4 18q5 33 35 40q26 5 35 -15q7 -14 -2 -34q-30 -69 -115 -88q-88 -19 -164 29q-96 61 -95 192q1 32 7 66q25 137 144.5 228.5t274.5 95.5zM146 73
q17 0 29.5 -12t12.5 -29t-12.5 -29t-29.5 -12q-16 0 -28.5 12.5t-12.5 28.5t12.5 28.5t28.5 12.5z" />
    <glyph glyph-name="at" unicode="@" horiz-adv-x="1119" 
d="M700 707q114 1 199.5 -33.5t133 -93.5t69.5 -130t19 -150q-6 -159 -107 -283.5t-216 -111.5q-46 5 -74.5 28.5t-38.5 53t-9.5 65.5t6.5 63t14 50h-2q-24 -57 -83 -116t-119 -56q-62 3 -89.5 41.5t-27.5 92.5q0 76 47 166t117 153.5t131 65.5q13 0 27.5 -4t32 -16
t28.5 -39.5t11 -67.5q23 64 48.5 89t56.5 27q17 1 16 -6q-1 -3 -3 -4q-30 -21 -51 -73t-70 -211q-7 -21 -11 -34.5t-11 -43t-8.5 -49.5t0 -46.5t10 -43.5t27 -30.5t45.5 -16.5q109 -12 182 98t76 261q2 75 -18.5 141.5t-63 122t-118 88.5t-174.5 34q-117 1 -219.5 -50
t-170.5 -130.5t-111 -166.5t-56 -169q-15 -95 10.5 -176t80 -135t129.5 -88.5t156 -43t162.5 7.5t146.5 57q47 30 66.5 46.5t27.5 32.5t9 17q12 17 24 9q14 -9 2 -26q-2 -4 -6 -8q-175 -172 -393 -161q-293 15 -411 185q-92 134 -52 321q38 174 172 310q155 158 363 183
q34 4 68 4zM513 31q56 -9 115.5 63t92.5 165q33 88 28 139.5t-23 72t-45 21.5q-69 0 -145 -100q-75 -99 -95 -206q-22 -118 47 -148q12 -5 25 -7z" />
    <glyph glyph-name="A" unicode="A" horiz-adv-x="1556" 
d="M2100 1179q42 0 66.5 -13t18.5 -30q-5 -12 -18.5 -14t-25.5 4q-32 15 -59.5 22.5t-62 7t-68.5 -17.5t-73 -49t-82 -89.5t-88 -137.5q-82 -145 -265 -655q-36 -99 -35 -132q0 -41 35 -43q46 -3 95 78q2 5 6 2q2 -2 1 -6q-17 -45 -55 -80.5t-81 -32.5q-28 2 -43 18
t-17 35.5t3 47t10 42t11 29.5q35 97 19 137q-45 109 -114 188q-167 -219 -241 -300q-176 -193 -344 -244q-72 -22 -150 -22q-122 0 -218 45t-150 116t-73.5 161.5t0 180t81 173t158.5 138.5q24 14 35 -2q10 -15 -7 -27l-4 -2q-7 -3 -21 -4t-33.5 -11.5t-48.5 -39.5
q-42 -42 -70.5 -101.5t-38 -125.5t-4 -135t34.5 -131t74.5 -110.5t119 -77.5t164.5 -29q61 0 121 17.5t111.5 44.5t108 73t99.5 88.5t97.5 107t92 113.5t90.5 121q-90 95 -213.5 145t-254.5 50q-194 0 -307 -125q-87 -95 -88 -218q-2 -118 77 -186q64 -55 165 -55
q72 0 97 43q11 19 30 10q17 -9 7 -27q-2 -3 -5 -6q-35 -35 -130 -35q-153 0 -221 108q-60 95 -29 221q33 132 146 216q114 83 274 83q290 0 479 -187q121 172 298 346.5t320 240.5q-43 -14 -111.5 -16t-132 3.5t-149.5 12t-142 6.5q-157 0 -230 -97q-54 -73 -35 -158
q18 -81 90 -113q34 -15 75 -15q44 0 75 12.5t46.5 34t22.5 41.5t8 44t21 27q18 3 23 -15q2 -6 1 -13q-3 -17 -14 -38.5t-32.5 -48t-60.5 -44t-89 -17.5q-113 0 -163 83q-46 74 -17 164q31 97 130 143q66 30 150 30q55 0 197 -12.5t218 -12.5q67 0 158 23.5t154 23.5z
M1435 341q99 274 186.5 445t199.5 281q-113 -75 -254 -226t-261 -314q76 -81 129 -186z" />
    <glyph glyph-name="B" unicode="B" horiz-adv-x="1522" 
d="M1523 874q-1 -92 -55.5 -177t-141.5 -139q68 -46 107.5 -119.5t38.5 -171.5q-1 -87 -37.5 -160.5t-94 -119.5t-127 -71.5t-139.5 -25.5q-90 0 -152 38.5t-55 112.5q6 60 51.5 85t96.5 25q14 0 18.5 -10t-1 -20t-17.5 -10q-4 0 -17.5 6t-21.5 6q-39 0 -57 -45
q-22 -53 9 -103q40 -65 150 -65q84 0 152 36t108 92.5t60.5 128t16 141t-33 133.5t-78.5 104q-98 -53 -202 -53q-65 0 -82 38q-15 33 18 61q35 28 96 28q89 0 169 -46q72 50 117 127.5t46 167.5q4 246 -273 281q-15 2 -20.5 -2t-9.5 -16q-4 -11 -63 -187t-121 -356t-86 -242
q-22 -56 -49 -109t-71 -113t-94 -103.5t-119 -72.5t-145 -29q-91 0 -163.5 23t-118 61.5t-73 89t-33.5 106t5.5 113.5t39.5 109t74 94t103 69q9 81 53 165t121.5 160.5t177 136.5t231.5 96t274 36q201 0 310.5 -86.5t107.5 -217.5zM1102 1133q7 20 -12 21q-98 0 -197.5 -20
t-196.5 -64t-176.5 -107t-138 -156t-80.5 -204q52 15 112 15q155 0 200 -87q33 -64 -6 -138q-37 -70 -109 -90q-22 -7 -46 -7q-66 0 -114 39t-69.5 96.5t-21.5 123.5q-62 -36 -104 -97t-59 -129t-5.5 -138t49 -126.5t113 -92t177.5 -35.5q49 0 101.5 19.5t111.5 63.5
t115 131t97 206q205 604 259 776zM299 580q-5 -63 9.5 -120.5t52.5 -97t93 -39.5q76 0 122 62q43 59 23 120q-25 76 -137 91q-23 3 -50 3q-59 0 -113 -19zM1113 511q87 0 169 49q-63 41 -148 41q-59 0 -79 -33q-16 -26 9 -45q18 -12 49 -12z" />
    <glyph glyph-name="C" unicode="C" horiz-adv-x="930" 
d="M1035 1168q95 0 124 -79q31 -85 -29 -205q-73 -148 -241 -251q-238 -146 -577 -141q-30 -74 -34 -165t17.5 -173t80.5 -137.5t146 -55.5q47 0 88.5 9t74 26.5t57.5 35t47 42.5t34 39.5t26 37t16 24.5q8 12 17 5q4 -5 1 -12q-18 -30 -31.5 -50.5t-48.5 -59t-71 -62.5
t-93 -43.5t-120 -19.5q-85 0 -148.5 36.5t-96.5 95.5t-46.5 133t-5 151t34.5 148q-148 19 -247.5 104.5t-99.5 208.5q0 87 47.5 176.5t134 165.5t224.5 124t301 48q34 0 38 -22q4 -18 -15 -26q-14 -6 -31 2q-44 17 -98 17q-64 0 -136 -19t-144.5 -59t-130.5 -95.5
t-94.5 -137t-36.5 -174.5q0 -107 84 -188.5t213 -101.5q66 158 197 308t287 245t285 95zM986 1131q-100 0 -233 -85t-254.5 -230.5t-178.5 -300.5q350 -3 586 158q148 100 202 228q46 108 1 175q-36 55 -123 55z" />
    <glyph glyph-name="D" unicode="D" horiz-adv-x="1474" 
d="M842 1189q131 0 241 -35.5t184.5 -93t126.5 -132t75.5 -151t23.5 -152.5q0 -181 -81 -343.5t-226 -264t-316 -101.5q-53 0 -114 21t-100.5 43.5t-103.5 62.5q-112 -121 -246 -121q-120 0 -165 66q-34 51 -2 104q38 63 137 71l25 1q96 0 242 -90q40 56 75 142
q-223 -22 -364.5 101t-141.5 307q0 101 52.5 201.5t145 181.5t232.5 131.5t300 50.5zM163 622q0 -79 28.5 -152t82.5 -132t145 -89t205 -17q34 80 137 416t146 501q4 20 -19 21q-133 6 -251 -23t-203 -83t-147.5 -126t-93 -153t-30.5 -163zM305 -62q136 0 225 118
q-74 46 -127 70t-102 24q-86 0 -120 -58q-29 -49 0 -97q34 -57 124 -57zM870 -67q119 0 225 60t178.5 157t115 221t42.5 251q0 208 -119 353t-325 183q-16 3 -24 -22q-3 -9 -67.5 -225t-130.5 -423.5t-87 -245.5q103 25 170.5 82.5t67.5 110.5q0 15 11.5 22t23.5 1.5
t12 -22.5q0 -39 -86 -111t-207 -100q-50 -102 -104 -166q55 -35 76.5 -47.5t67.5 -36.5t83.5 -33t76.5 -9z" />
    <glyph glyph-name="E" unicode="E" horiz-adv-x="797" 
d="M848 1171q108 0 131 -67q22 -66 -47 -151q-89 -112 -266 -172q-106 -36 -229 -45q18 -54 75.5 -77t101.5 -11q6 1 10 0.5t4 -3t-3 -6.5q-11 -11 -43 -15q-263 -28 -391 -183q-92 -112 -83 -246q8 -117 90 -183q59 -48 140 -51q-21 118 22 240.5t126.5 200.5t173.5 78
q83 0 103 -81q22 -86 -35 -200q-65 -132 -187 -202q-83 -47 -179 -54q33 -130 155 -217q6 -4 5 -9.5t-6 -7.5t-11 1q-129 88 -163 232q-135 -4 -214.5 73t-79.5 185q0 60 21.5 115.5t55.5 97t77.5 77.5t86.5 60t82.5 41.5t66 25.5t36.5 8q-37 8 -63.5 37t-36.5 71
q-122 -2 -239 40.5t-192.5 120t-75.5 168.5q0 61 27 111.5t70 84t98.5 56.5t112 33t111.5 10q110 0 145 -14q16 -6 18.5 -19t-8.5 -21t-28 -2q-7 3 -15.5 11t-16.5 14.5t-32.5 11.5t-63.5 5q-159 0 -264.5 -74t-105.5 -201q0 -94 67.5 -169t170.5 -113.5t218 -37.5
q-9 67 36.5 144t117.5 137.5t161 101t162 40.5zM644 445q-53 0 -111.5 -43.5t-102.5 -110.5t-66 -157t-6 -173q155 4 270 132q86 95 105 204q17 99 -37 134q-22 14 -52 14zM434 750q237 17 387 136q96 76 111 156q13 70 -47 95q-25 11 -60 11q-42 0 -96.5 -19t-109.5 -56
t-99.5 -84.5t-69 -110.5t-16.5 -128z" />
    <glyph glyph-name="F" unicode="F" horiz-adv-x="1289" 
d="M1591 1171q95 0 120 -50q20 -40 -17 -77q-40 -41 -118 -41q-102 0 -277 59q-52 -41 -95.5 -97.5t-81.5 -134.5t-61 -135.5t-59 -156.5q8 2 34 9.5t36.5 10.5t34 9.5t38.5 9l36 6t40.5 5t39.5 1.5q44 0 66.5 -17t23 -42t-8 -48.5t-21.5 -40.5q-24 -27 -50 -27q-6 0 -9 4
t0 10q99 129 -54 129q-70 0 -213 -40q-86 -237 -143 -341q-116 -208 -286 -267q-77 -27 -168 -27q-92 0 -165.5 25.5t-119 68.5t-69 97.5t-23.5 114.5q0 66 28 131t77.5 117.5t125.5 85t165 32.5q22 0 23 -18q2 -17 -17 -20q-6 -1 -14 1q-9 2 -17.5 6t-17.5 6t-25 2
q-99 0 -187.5 -103.5t-88.5 -231.5q0 -58 19.5 -110t57.5 -94t102 -67t146 -25q66 0 123.5 18t101 46t84 76t68.5 93.5t59 113.5t51.5 120.5t48.5 129.5q1 4 2 6q-55 -12 -100 -12q-52 0 -90 19.5t-55.5 50t-23.5 60.5t-1 57q1 8 6 10.5t8.5 -0.5t3.5 -10q1 -11 0 -30.5
t8 -43.5t23 -45t46 -35.5t76 -14.5q49 0 106 13q37 101 63 162.5t67 143t89.5 141.5t106.5 103q-91 31 -128 42.5t-121.5 34.5t-160.5 32t-159 9q-262 0 -421 -136q-110 -94 -130 -213q-17 -109 51 -175q41 -40 107 -52q9 -1 9 -6q-1 -3 -4 -4q-75 -23 -145.5 35t-70.5 154
q0 56 24 114t75 113t121 98.5t170 69.5t215 26q101 0 214.5 -21.5t171 -39.5t174.5 -59q6 -2 9.5 -3t8.5 -3t9 -3q127 86 303 86zM1576 1017q69 0 94 45q21 37 -6 68q-24 27 -74 27q-159 0 -273 -82q169 -58 259 -58z" />
    <glyph glyph-name="G" unicode="G" horiz-adv-x="941" 
d="M966 502q17 0 16 -5l-3 -5q-40 -32 -69 -116q-4 -11 -80.5 -233.5t-96.5 -277.5q-43 -118 -105.5 -206t-132 -136.5t-137.5 -71.5t-135 -23q-116 0 -194 53t-78 137q0 65 36 108.5t91.5 63t126.5 35.5t136 26t124.5 34.5t88.5 61.5q5 6 8 -1q3 -5 -2 -12
q-19 -32 -60.5 -53.5t-92 -33t-107.5 -21.5t-109.5 -23t-95.5 -33.5t-69 -58t-26 -90.5q0 -73 59 -124.5t164 -51.5q133 0 251 94.5t190 289.5q40 109 73.5 203.5t46.5 134.5l13 40h-4q-17 -25 -37 -50t-56.5 -61.5t-74 -64t-88 -47t-99.5 -19.5q-126 0 -200.5 94t-74.5 252
q0 106 49 236q-61 35 -93 92.5t-34 121.5t27 131.5t82 124t139 97.5t191 53q18 2 27 -8t3.5 -21.5t-24.5 -14.5q-10 -2 -49 3t-81 -7q-105 -27 -179.5 -100.5t-99.5 -156.5t-1.5 -166.5t99.5 -129.5q46 115 123 226.5t168 199.5t194.5 142t195.5 54q109 0 125 -94
q17 -98 -66 -239q-89 -153 -235 -252q-152 -103 -312 -103q-88 0 -152 24q-39 -115 -39 -216q0 -141 56.5 -229.5t163.5 -88.5q120 0 238.5 110t177.5 285q41 117 109 117zM893 1159q-111 0 -238 -90.5t-230.5 -232t-158.5 -293.5q61 -24 146 -24q194 0 369 152
q129 112 189 252q56 129 15 194q-27 42 -92 42z" />
    <glyph glyph-name="H" unicode="H" horiz-adv-x="1632" 
d="M2171 1179q47 0 72.5 -12t18.5 -30q-4 -12 -17.5 -14t-25.5 4q-38 17 -72 23t-78.5 -3t-86.5 -38.5t-93.5 -91.5t-103.5 -155q-44 -80 -123.5 -281t-141.5 -374q-37 -102 -34 -136q4 -36 35 -39q45 -3 94 78q2 4 5.5 2.5t1.5 -6.5q-16 -45 -54 -80.5t-82 -32.5
q-96 6 -37 170q1 1 1 2q20 60 24 88.5t-5 50.5q-86 219 -291 326q-71 -230 -100 -305q-96 -244 -240 -336q-102 -65 -239 -65q-122 0 -218.5 45t-150 116t-73 161.5t-0.5 180t80.5 173t158.5 138.5q25 14 36 -2q10 -15 -7 -27l-4 -2q-7 -3 -21.5 -4t-34 -11.5t-47.5 -38.5
q-50 -49 -79.5 -121.5t-36 -151t15 -157t66.5 -141t126.5 -101.5t187.5 -39q69 0 128.5 20t104.5 54t83.5 83.5t67 104.5t54 120.5t45.5 128.5t40 131q4 14 6.5 22t6 20.5t6.5 22.5q-124 55 -252 55q-197 0 -314 -126q-89 -95 -94 -218q-4 -118 73 -185q63 -56 164 -56
q72 0 97 43q11 19 30 10q17 -9 7 -27q-2 -3 -5 -6q-33 -35 -130 -35q-153 0 -221 108q-59 95 -29 221q33 132 146 216q115 84 275 84q147 0 265 -48q45 143 91 229.5t114 118.5q-51 -3 -107 18t-108 54t-104.5 66.5t-114 57t-119.5 23.5q-49 0 -90 -19.5t-64 -50.5
t-35.5 -69t-5 -76t28 -69t63.5 -50.5t101 -19.5q23 0 41 3.5t28 8.5t18.5 13.5t11.5 13t6.5 14t4.5 10.5q9 17 26 9t7 -29q-1 -2 -3 -4q-18 -26 -55.5 -42t-86.5 -16q-64 0 -112 21.5t-70.5 56t-31 76.5t5.5 84t39.5 76.5t71 56t99.5 21.5q59 0 118 -20t104 -48.5t97 -59.5
t96.5 -54t102 -32t113.5 8q10 3 15.5 -1.5t3.5 -11t-10 -8.5q-38 -10 -70.5 -35t-57 -57.5t-48 -81t-40 -94t-36.5 -107.5q57 -27 108 -65.5t82.5 -71t62 -76.5t42 -64t27.5 -51q16 38 42.5 106t47.5 120t51.5 122.5t60 124t67 113t79 102t89 78.5t104 54t118.5 18z" />
    <glyph glyph-name="I" unicode="I" horiz-adv-x="1032" 
d="M485 -48q-123 0 -218 43t-148 111.5t-71.5 157t1.5 177t82 175t160 147.5q30 19 43 0q10 -16 -3 -28q-6 -4 -13 -5q-2 0 -11 -1t-14 -2t-14.5 -3.5t-18 -7.5t-19.5 -13.5t-23.5 -21.5t-26.5 -30q-45 -58 -70 -131.5t-27.5 -148.5t21.5 -146.5t69 -127t122.5 -89.5
t175.5 -34q103 0 183.5 39.5t131 105t91.5 152t66.5 179t55.5 188.5t57.5 177t73.5 147t104 98q-64 -14 -146 -7t-144 20.5t-133.5 27t-113.5 13.5q-131 0 -204 -97q-60 -82 -48 -182q13 -103 99 -153q56 -32 133 -32q17 0 32.5 1.5t27.5 4t22.5 7t18 8t14.5 9t11 9t8.5 9.5
t5.5 8.5t4 7.5l3 5q8 12 20 12t16 -10t-6 -25q-23 -31 -71.5 -48t-106.5 -17q-154 0 -221 104q-55 85 -27 193q27 107 119 164q66 41 151 41q58 0 132 -14.5t131 -27.5t152.5 -16.5t196.5 17.5q18 4 19 -8q-1 -8 -11 -12q-55 -15 -99 -63t-74.5 -116t-57.5 -152.5
t-54.5 -174t-59 -178t-76 -167t-100.5 -139t-138.5 -95.5t-184.5 -35z" />
    <glyph glyph-name="J" unicode="J" horiz-adv-x="1109" 
d="M1429 1154q-62 -66 -117 -167t-96.5 -211.5t-82.5 -236.5t-82 -247.5t-87.5 -239.5t-105 -217t-129 -174.5t-166 -118t-208.5 -42.5q-178 0 -269 116q-79 101 -59 241q21 151 147 262q173 152 467 152q94 0 189 -22q32 -7 31 -28q0 -17 -21 -21q-13 -3 -28 4
q-2 1 -16.5 11t-29 17t-49 14t-79.5 7q-284 0 -439 -152q-112 -109 -120 -255q-9 -133 72 -224q83 -93 223 -93q99 0 181 34t142 96t109 144t89 184t75 208.5t73.5 225t78 227.5t95.5 221t119 200q-71 -50 -169 -90t-175.5 -64t-148.5 -54.5t-110.5 -79.5t-39.5 -122
q0 -66 45 -108t122 -42q15 0 29 2t25 5t21.5 8.5t17.5 10t15 12.5l12 12t9.5 12.5t7 11.5l5.5 11l4 7q13 24 33 15q17 -9 8 -28q0 -2 -1 -3q-25 -43 -82.5 -69t-120.5 -26q-86 0 -139.5 47t-53.5 123q0 61 28.5 106.5t78 74.5t110.5 52t132 45.5t137 47t130.5 64t107.5 89.5
q28 33 53 33q14 0 6 -13q-1 -2 -4 -5z" />
    <glyph glyph-name="K" unicode="K" horiz-adv-x="1375" 
d="M1193 1013q-45 -10 -84.5 -62t-69.5 -127.5t-63.5 -169.5t-64.5 -190t-75.5 -187.5t-94 -162t-121 -113.5t-155.5 -43q-140 0 -186 77q-36 59 0 124q36 68 119 87q41 9 86 3q21 -3 21 -18q-1 -15 -16 -18q-7 -1 -14 2q-3 1 -10 6.5t-16 8.5t-21 3q-60 0 -94 -57
q-35 -58 -12 -116q30 -76 141 -80h12q78 0 138.5 39t100.5 106.5t72 152t63 183.5t63.5 191.5t82.5 185.5t112 157q-54 -13 -126 -8.5t-123 15t-134 21t-160 10.5q-97 0 -175.5 -58t-120.5 -145.5t-45 -181.5q-5 -134 81.5 -233t233.5 -99q35 0 64.5 4t50.5 13.5t35.5 17
t27 23t17.5 21.5t13.5 23t9.5 18q13 22 34 14q18 -8 10 -27q-1 -4 -4 -7q-43 -58 -111.5 -87t-145.5 -29q-161 0 -270.5 105.5t-104.5 241.5q4 99 56.5 191t145 152t198.5 60q88 0 177.5 -12.5t143 -23t132.5 -7.5t168 29q19 5 20 -8q1 -12 -12 -15zM2087 -549q8 14 20 8
q13 -8 5 -26q-11 -19 -50 -33t-82 -14q-102 0 -195.5 33t-164.5 86.5t-136.5 128.5t-113 152t-93.5 165t-77 160t-64.5 143.5t-55.5 109.5q-44 -14 -82 -14q-50 0 -63 34q-12 29 16 51q21 16 55 16q46 0 95 -59q60 27 128.5 87t131.5 132.5t129 154.5t131 157.5t127.5 137.5
t128 99t123.5 37q20 0 27.5 -13.5t-1.5 -26.5t-30 -13q-2 0 -30 9.5t-52 2.5q-58 -18 -135 -93t-155.5 -173.5t-160.5 -199.5t-175 -189t-175 -124q31 -40 70.5 -110t75 -143.5t82.5 -160t94 -164.5t108 -152t124.5 -127.5t144.5 -86t168 -32.5q75 0 107 50zM998 367
q36 0 72 12q-36 57 -66 57q-33 0 -46 -17t-1 -34.5t41 -17.5z" />
    <glyph glyph-name="L" unicode="L" horiz-adv-x="892" 
d="M1694 -125q11 24 31 17q17 -6 14 -23q-1 -2 -2 -5q-82 -154 -220.5 -233.5t-313.5 -79.5q-66 0 -136 17.5t-125 41t-125.5 65.5t-112.5 71.5t-113 80.5t-101 72q-113 -94 -267 -94q-114 0 -160 60q-36 46 -6 95q39 61 152 68q12 1 25 1q105 0 263 -91q28 31 56 76t48 86
t43.5 100.5t36.5 95.5t33 95.5t26 77.5q-65 -13 -124 -13q-189 0 -274 127q-72 106 -42 255q30 152 149 259q85 77 197 109q32 9 40 -13q6 -18 -11 -26q-4 -3 -9 -3q-3 0 -22.5 1.5t-39.5 -1.5t-46 -15q-69 -32 -120.5 -96.5t-77 -138.5t-24 -153t29.5 -142.5t92.5 -104.5
t157.5 -41q64 0 131 16q25 68 44.5 116.5t53.5 127t63 135t69.5 121t78.5 105t83.5 67.5t89.5 27q69 0 76 -80q9 -98 -70 -243q-97 -176 -255 -288q-83 -58 -173 -89q-8 -20 -32 -83t-32.5 -85t-30.5 -75.5t-34 -77.5t-33.5 -66.5t-39 -67.5t-40.5 -55t-47 -53
q56 -34 167 -109.5t182 -121t169 -84.5t179 -39q348 0 479 304zM1221 1158q-40 0 -77.5 -23.5t-72.5 -70t-66 -101t-63.5 -131t-59 -144.5t-59.5 -156q-5 -15 -8 -22q190 71 330 256q104 138 129 263q20 103 -29 125q-11 4 -24 4zM224 -180q147 0 247 92q-151 101 -237 101
q-102 0 -136 -56q-26 -44 6 -87q36 -50 120 -50z" />
    <glyph glyph-name="M" unicode="M" horiz-adv-x="1568" 
d="M2248 -392q6 16 19.5 18.5t21.5 -7.5t2 -25q-14 -35 -54 -78.5t-100.5 -88.5t-151 -75.5t-187.5 -30.5q-108 0 -193 37t-138.5 104.5t-86 158t-37.5 200t8 228.5t50.5 246t90.5 250t127 242.5t161 221.5q-334 -281 -669 -990q-2 -4 -5 -12.5t-5 -12.5t-5.5 -9.5
t-8.5 -8.5t-11 -5q-11 -3 -18 6.5t-11 29.5q-11 56 -11 129.5t8 146.5t22.5 158.5t29.5 160t33 155.5q7 34 11 50q-22 -44 -126 -232t-166 -304q-91 -171 -226.5 -261.5t-288.5 -90.5q-142 0 -229 82t-87 198q0 65 24.5 121.5t62 93.5t83 63.5t86.5 38.5t73 12q31 0 32 -22
q1 -19 -16 -24q-6 -1 -12 0q-8 2 -21.5 6.5t-22.5 6.5t-25.5 1.5t-36.5 -7.5q-47 -16 -86 -54t-61 -88t-31.5 -106t4 -109.5t43 -97t88.5 -70t137 -26.5q140 0 267.5 85.5t221.5 256.5l288 524q39 70 45.5 139t-16 121t-73.5 84t-121 32q-81 0 -157.5 -29t-134.5 -77
t-102.5 -108t-67.5 -125t-23 -125q0 -90 66 -155t172 -65q41 0 70.5 4t47 13t27 16.5t20.5 20.5t18 19q18 16 32 3q14 -15 -4 -33q-2 -2 -6 -5q-76 -53 -204 -53q-114 0 -187 68.5t-73 164.5q0 91 45 181.5t116.5 159t167.5 111.5t192 43q122 0 187.5 -74t57.5 -203
q-6 -93 -37.5 -238.5t-58 -294t-25.5 -273.5q0 -45 15 -45q11 0 28 34q106 211 214 384.5t197.5 287.5t177.5 201t154 133.5t127 75.5t96.5 37t62.5 8q64 0 71 -34q5 -23 -16 -35q-19 -11 -40 2q-104 68 -247 -51q-183 -151 -333 -454q-156 -316 -199 -632q-47 -350 74 -536
q105 -163 328 -163q83 0 156 21.5t121 52t86 70t57 69.5t29 56z" />
    <glyph glyph-name="N" unicode="N" horiz-adv-x="1483" 
d="M2143 1243q64 0 71 -34q5 -23 -16 -35q-19 -11 -40 2q-34 22 -67 28t-78 -7t-98 -50q-333 -233 -651 -1129q-2 -5 -4.5 -13.5t-4 -12t-4.5 -8.5t-8 -7.5t-12 -4.5q-8 -2 -13 3.5t-7.5 13t-5.5 21.5q-35 171 -110 803q-26 -53 -61 -130.5t-59.5 -131.5t-59 -124t-62 -119
t-65 -106t-73 -95.5t-81 -77t-93 -61t-105.5 -36.5t-122 -14q-146 0 -230.5 80.5t-84.5 192.5q0 86 37 155t91.5 106.5t106.5 56.5t93 19q28 0 31 -21q2 -19 -16 -24q-5 -2 -11 -1q-9 1 -27 7t-30 7t-45 -6q-41 -12 -76 -42.5t-59 -71t-36.5 -89.5t-12 -97.5t17.5 -94.5
t48 -81t84 -56t122 -21q77 0 147 24t124 61t106.5 97.5t90 117.5t79 138t68.5 141.5t65 145.5t62 135q20 41 24.5 93.5t-9 104t-40.5 95.5t-75 71t-108 27q-102 0 -194 -44t-153.5 -111.5t-98 -148.5t-36.5 -156q0 -95 68 -158.5t169 -63.5q49 0 83 8.5t47.5 18t29 25
t22.5 20.5q22 15 33.5 -1.5t-10.5 -33.5q-2 -1 -3 -2q-76 -52 -201 -52q-113 0 -186.5 68t-73.5 168q0 82 41 169.5t110 159t169.5 117.5t209.5 46q105 0 170 -66t85 -197q21 -138 56 -429.5t49 -395.5q4 -28 7.5 -37t11.5 -9t20 35q84 226 170.5 407t158.5 296t147.5 199.5
t129.5 126t111.5 65t87 27.5t62.5 4z" />
    <glyph glyph-name="O" unicode="O" horiz-adv-x="888" 
d="M791 1196q75 0 114.5 -39.5t38 -102t-29.5 -139.5q25 -64 25.5 -149t-21.5 -174t-59.5 -179.5t-92.5 -170t-117 -142t-136 -98.5t-146 -36q-74 0 -134 36t-100 108.5t-45.5 181.5t30.5 254q-62 40 -94.5 103t-32.5 136q0 76 32.5 141.5t82 107.5t109 72.5t112 43.5
t92.5 13q32 0 32 -22q1 -18 -17 -24q-6 -2 -13 -1q-5 1 -30 8t-46 6t-55 -11q-91 -27 -155.5 -80.5t-92.5 -118t-30 -131t27.5 -126t84.5 -97.5q41 125 120.5 242.5t172 201.5t192.5 135t182 51zM766 1167q-102 0 -223 -93t-220.5 -238.5t-148.5 -297.5q139 -49 281 -5
t258 142.5t166 210.5q-28 89 -100 89q-19 0 -25 -19t-1 -40q2 -8 -4 -10.5t-11 6.5q-8 19 -9.5 42.5t17 43t52.5 19.5q61 0 104 -76q19 63 15 113.5t-43 81.5t-108 31zM369 -14q98 0 189 65t155.5 166.5t110 219t61.5 229.5t1 191q-61 -119 -180.5 -213.5t-259.5 -132
t-277 8.5q-36 -147 -27.5 -265.5t69 -193.5t158.5 -75z" />
    <glyph glyph-name="P" unicode="P" horiz-adv-x="1293" 
d="M1101 1183q211 0 341.5 -94t130.5 -250q0 -110 -63.5 -207t-167.5 -153.5t-219 -56.5q-104 0 -127 46q-14 29 12 51q9 8 14 4q1 -2 -2 -7q-4 -8 -3.5 -17.5t9.5 -19.5t22 -18.5t36 -13.5t51 -5q156 0 268 115t112 275q0 77 -27.5 136.5t-75 96.5t-102.5 58t-120 30
q-11 1 -17 -1.5t-7.5 -5.5t-4.5 -11q-4 -11 -60.5 -188t-115.5 -358t-82 -243q-21 -56 -47 -108.5t-69 -112.5t-92 -104t-117.5 -73t-144.5 -29q-91 0 -164 23t-119 61.5t-74.5 89t-35.5 106t3.5 113.5t38 109t72 94t101.5 69q10 85 53.5 170t119.5 162t174 136.5t228 95
t271 35.5zM1100 1138q6 21 -18 21q-55 -1 -113 -8.5t-128 -25.5t-134.5 -45t-129.5 -71t-116.5 -99.5t-92.5 -134t-60 -171.5q53 14 111 14q155 0 202 -87q35 -64 -3 -138q-36 -69 -108 -90q-22 -7 -46 -7q-98 0 -153 78.5t-56 182.5q-46 -27 -81 -69t-55.5 -90.5t-27 -102
t1.5 -104t34 -97t66.5 -81t103.5 -55t140 -20.5q38 0 78 11t88.5 40.5t91.5 74.5t85.5 120.5t73.5 172.5q179 557 246 781zM306 581q-4 -63 11.5 -120.5t54 -97.5t93.5 -40q75 0 120 62q43 58 24 120q-24 76 -131 93q-27 4 -57 4q-58 0 -115 -21z" />
    <glyph glyph-name="Q" unicode="Q" horiz-adv-x="964" 
d="M1554 -197q6 23 25 22q16 -2 19 -18l-2 -12q-8 -23 -30 -57t-66 -80.5t-98.5 -85.5t-135.5 -66t-169 -27q-57 0 -115 10t-103 21.5t-101 38.5t-88.5 44t-88 55t-77.5 54t-78.5 59.5t-70.5 53.5q-124 -63 -274 -63q-122 0 -175 62q-40 47 -14 96q32 59 136 66q12 1 25 1
q134 0 328 -124q75 48 127 119q-78 -12 -139 5.5t-98 55.5t-61.5 90.5t-32.5 111t-8 117.5t8.5 108.5t21.5 85.5q-61 40 -93.5 103t-32.5 136q0 76 32.5 141.5t82 107.5t109 72.5t111.5 43.5t92 13q32 0 33 -22q1 -18 -17 -24q-6 -2 -13 -1t-25 5.5t-28 5.5t-31.5 -1
t-47.5 -10q-89 -27 -153 -80t-91.5 -116.5t-30 -129.5t26.5 -125t83 -97q55 165 172 312.5t250.5 232t243.5 84.5q56 0 92.5 -23t50 -62t8.5 -89.5t-28 -107.5q23 -64 25 -143.5t-15.5 -161t-49.5 -164.5t-78 -158t-99 -137.5t-115 -107.5t-123 -63q-50 -80 -139 -139
q46 -30 129.5 -88.5t140 -95.5t130 -78t142.5 -61.5t135 -20.5q88 0 165.5 27.5t126.5 65.5t87 83.5t55 77.5t22 52zM868 1167q-102 0 -222.5 -92.5t-219.5 -237.5t-148 -297q85 -36 187.5 -21.5t199.5 61.5t181 128t132 177q-26 90 -97 90q-20 0 -25.5 -19t-0.5 -40
q2 -8 -4.5 -10.5t-10.5 6.5q-8 19 -9.5 42.5t17 43t52.5 19.5q61 0 102 -74q19 63 15.5 113t-42 80.5t-107.5 30.5zM272 519q-11 -31 -18.5 -76.5t-9.5 -101.5t5.5 -111t26.5 -106t54 -85t87 -48t126 4q22 35 33 68t9.5 52t-14.5 19q-4 0 -14.5 -5t-28.5 -5q-38 0 -53 30.5
t1.5 61t53.5 30.5q35 0 59 -31.5t24 -75.5q0 -63 -38 -134q99 37 186.5 143t139.5 232t75.5 255t8.5 218q-54 -108 -167.5 -201t-257 -136.5t-288.5 3.5zM103 -227q141 0 253 55q-84 63 -151 96t-132 33q-96 0 -124 -51q-22 -42 15 -83q45 -50 139 -50z" />
    <glyph glyph-name="R" unicode="R" horiz-adv-x="1472" 
d="M2191 -511q5 8 14 8t13 -7t-1 -20q-9 -19 -48 -33t-82 -14q-105 0 -200.5 32.5t-168 86t-139.5 128.5t-115 152.5t-95 166t-79 161.5t-67 147t-59 114q-40 -8 -93 -8q-46 0 -63.5 26.5t3 53t64.5 26.5q49 0 107 -74q149 35 248 148t99 249q0 77 -27.5 136.5t-75.5 96.5
t-103.5 58t-119.5 29q-10 1 -16.5 -1t-8.5 -5t-5 -11q-4 -11 -60.5 -188t-115.5 -358t-82 -243q-21 -56 -47 -108.5t-69 -112.5t-92 -104t-118 -73t-145 -29q-91 0 -164 23t-119 61.5t-74.5 89.5t-35.5 106.5t3.5 113.5t38 109t72.5 94t102 69q8 79 48.5 161t115.5 159.5
t173 138.5t231 97.5t279 36.5q212 0 342.5 -92t130.5 -247q0 -141 -114 -262t-278 -160q34 -48 80.5 -135t91 -173t100.5 -185t120 -182.5t138 -153t167 -109.5t195 -40q79 0 104 50zM1113 1137q6 20 -11 21q-59 1 -129 -9t-153 -33.5t-162 -67t-148 -102.5t-120 -147.5
t-70 -194.5q53 14 111 14q155 0 202 -87q35 -64 -3 -138q-36 -69 -108 -90q-22 -7 -46 -7q-50 0 -90.5 22.5t-65.5 60t-39 83t-15 94.5q-52 -31 -90.5 -80.5t-56.5 -106.5t-20 -118t20.5 -116.5t62.5 -99.5t109.5 -70.5t157.5 -26.5q38 0 78 11t88 40.5t91 74.5t86 120.5
t74 172.5q198 615 247 780zM318 580q-6 -100 36.5 -178.5t122.5 -78.5q75 0 120 61q42 58 23 119q-24 75 -133 92q-26 4 -56 4q-59 0 -113 -19zM1073 422q44 0 80 7q-43 65 -79 65q-31 0 -43.5 -18t0.5 -36t42 -18z" />
    <glyph glyph-name="S" unicode="S" horiz-adv-x="973" 
d="M1040 1032q0 -48 -25.5 -98.5t-69.5 -91.5t-109 -67t-137 -26q21 -26 61 -71t66.5 -77.5t55.5 -77t44 -94t15 -104.5q0 -130 -99 -229t-251 -118q-95 -129 -245.5 -210t-321.5 -81q-19 0 -26 13t0.5 26t23.5 13q10 0 19 -5t16 -10t24 -8t44 0q132 16 247.5 86t193.5 173
q-28 -2 -43 -2q-95 0 -175.5 32t-131.5 83.5t-79 113t-28 122.5q0 123 79 209.5t209 86.5q53 0 104.5 -20.5t96.5 -61t73 -109.5t28 -156q0 -139 -94 -275q51 9 95.5 28t88 54.5t69 97t25.5 142.5q0 68 -28.5 132.5t-64 106t-87 100t-77.5 96.5q-112 20 -165 69
q-17 15 -2 33q15 16 30 5q5 -3 8 -8q35 -56 116 -79q-48 79 -48 162q0 109 95.5 182.5t202.5 73.5q79 0 128 -47.5t49 -113.5zM523 -9q25 0 58 3q98 141 98 276q0 83 -31.5 157t-98 124.5t-153.5 50.5q-137 0 -201 -107q-56 -95 -29 -222q29 -133 134 -212q93 -70 223 -70z
M687 764q72 -3 136 22t105.5 65t65.5 87t24 92q0 61 -41.5 100.5t-113.5 39.5q-98 0 -171 -65t-73 -164q0 -85 68 -177z" />
    <glyph glyph-name="T" unicode="T" horiz-adv-x="636" 
d="M1367 1069q3 -6 3.5 -16.5t-2 -25.5t-8 -32t-17 -35.5t-27.5 -36t-41 -33t-55.5 -27.5t-73 -19t-91.5 -7q-90 0 -167.5 28.5t-166.5 82.5q-21 -63 -185 -607q-106 -350 -296 -350q-82 0 -141 45q-21 16 -8 34q13 17 31 7l8 -6q4 -4 16.5 -20t20.5 -23t28.5 -14.5
t48.5 -7.5q130 0 213 260l219 710q-68 42 -99.5 60t-93 47t-120 41t-123.5 12q-164 0 -251 -104q-70 -84 -57 -188q13 -108 106 -167q75 -49 187 -49q26 0 39 0.5t48 6t57.5 16.5t48.5 35t39 58q9 23 29 16q19 -5 14 -23q-1 -5 -4 -10q-80 -116 -272 -116q-202 0 -291 112
q-69 85 -43 197q25 110 127 177q94 62 222 62q66 0 127 -12.5t120 -38.5t99 -48.5t99 -59.5q13 45 14 47q5 20 22 39.5t36 26.5q14 6 15.5 -6.5t-2.5 -17.5q-13 -33 -40 -116q94 -59 169.5 -90t159.5 -31q53 0 98.5 10t76 26.5t53.5 38t32 44.5t12.5 45t-6.5 41
q-4 12 3.5 21.5t20 8t19.5 -17.5z" />
    <glyph glyph-name="U" unicode="U" horiz-adv-x="876" 
d="M863 509q17 0 16 -6q-1 -3 -3 -4q-30 -21 -54 -76.5t-80 -214.5q-39 -109 -34 -144q4 -32 34 -32q49 0 95 79q1 2 3 2.5t3.5 -1.5t0.5 -5q-16 -45 -54 -79t-82 -34q-39 0 -54.5 25.5t-6 79.5t45.5 133h-3q-20 -31 -37 -55t-50 -61t-65.5 -61.5t-77.5 -43t-91 -18.5
q-120 0 -120 88q1 54 61 186q2 4 6 14q126 280 169 441q125 460 -196 460q-73 0 -137.5 -28.5t-111 -75t-79 -108t-46 -126.5t-6 -131t34.5 -121t81 -96.5t129 -58.5q39 -6 51.5 -1.5t24 15.5t18.5 12q20 4 26 -10.5t-8 -25.5q-11 -9 -38.5 -13t-65.5 0.5t-79.5 17.5t-81 42
t-71 69t-49.5 104t-15 142q4 100 56.5 193.5t150 156t214.5 62.5q125 0 195.5 -70.5t77.5 -212.5t-71 -354q-21 -58 -50.5 -127t-51 -117.5t-42.5 -101t-29.5 -86.5t-7 -62.5t21.5 -42t58 -13.5q56 0 115.5 38.5t107 97t84 120t56.5 115.5q46 124 112 124z" />
    <glyph glyph-name="V" unicode="V" horiz-adv-x="686" 
d="M1417 1235q58 0 64 -29q4 -21 -18 -31q-7 -3 -15 -3q-12 0 -33 10t-39.5 15t-61.5 -4q-63 -17 -136.5 -63.5t-166.5 -137.5t-186 -216t-198 -313.5t-200 -415.5q-7 -17 -11.5 -25t-13.5 -17t-20 -10q-3 0 -5.5 0.5t-4.5 3t-3 4t-2.5 5.5t-2 6t-1.5 6.5t-1 5.5
q-38 188 -18 387t83 373.5t143 254.5q4 3 6 5.5t0 4t-9 0.5q-69 -10 -156 12t-178 49t-155 27q-78 0 -137.5 -32.5t-91 -82.5t-42.5 -111t1.5 -117.5t49 -103t91.5 -65.5q7 -2 9.5 -5.5t1.5 -6.5t-4 -5q-23 -12 -64 6q-60 28 -94 80t-39.5 111t14.5 121t59.5 112t104.5 82
t142 32q82 0 214.5 -41.5t194.5 -41.5q16 0 30.5 1t27.5 4t22.5 5t20.5 6t16 6t14.5 6.5t11.5 5.5q17 8 26.5 -2.5t-3.5 -23.5q-76 -82 -131 -198t-80.5 -226.5t-37.5 -219.5t-10 -183t10 -111q8 -32 15 -32q9 0 20 24q93 207 191.5 378t182.5 282.5t169 196.5t149.5 130
t125.5 72.5t96.5 35t62.5 7.5z" />
    <glyph glyph-name="W" unicode="W" horiz-adv-x="1049" 
d="M1763 1238q75 0 87 -37q8 -22 -12 -34q-7 -4 -16 -4q-12 0 -31 12t-37 22t-58.5 4.5t-93.5 -35.5q-108 -60 -223 -177.5t-207.5 -249.5t-173.5 -272.5t-132 -251t-73 -179.5q-4 -11 -14.5 -24.5t-24.5 -13.5q-16 0 -19 16q-41 252 14 590q-97 -120 -183 -277.5
t-125 -288.5q-5 -14 -6 -17.5t-4.5 -10t-7 -9t-9.5 -4.5q-24 -8 -27 10q-37 203 -17 426q-87 -39 -168.5 -32.5t-144.5 41t-101 95t-38 129.5q0 74 33 128.5t86 85.5t130 60t152.5 50t167 57.5t161.5 80.5q33 21 44 5q6 -10 -7 -24q-208 -210 -253 -625q68 48 82 109
q4 23 23 19q16 -3 16 -19q0 -6 -3 -11q-37 -67 -121 -118q-17 -168 -5 -319q2 -31 14 -33q8 0 14 14q114 285 303 514q25 148 63 259q32 94 93 133q46 29 69 1q22 -26 2 -92q-12 -41 -42 -89.5t-51.5 -75.5t-82.5 -101q-23 -110 -32.5 -220t-8 -187.5t10.5 -138.5
q3 -16 11 -17q3 0 5.5 2t4 4t3.5 4l1 3q83 182 172 338.5t168.5 268t159 201t146.5 145.5t128.5 93t107 52t80.5 15zM-40 671q0 -75 35.5 -134.5t92.5 -90t133 -31t151 35.5q18 171 68 324.5t120 265.5q4 5 1 9.5t-11 1.5q-102 -40 -296 -100q-47 -14 -79.5 -26t-69 -29
t-60.5 -37.5t-44.5 -47.5t-30.5 -62.5t-10 -78.5zM872 915q-34 -98 -58 -203q58 69 92.5 120t56.5 110q21 57 -1 76q-19 17 -48 -20q-24 -29 -42 -83z" />
    <glyph glyph-name="X" unicode="X" horiz-adv-x="1640" 
d="M2287 1113q63 0 70 -27q4 -15 -11 -22q-4 -1 -8 -1q-12 0 -34 13t-63 13q-67 0 -147 -29t-153 -71.5t-169.5 -115.5t-170 -135.5t-181.5 -158.5q5 -63 12 -150.5t10.5 -134t4.5 -55.5q2 -12 4.5 -33t4 -33.5t4 -31t5.5 -29.5t7 -25t9 -22.5t11.5 -16t15 -11t18.5 -3.5
q50 0 92 79q2 5 6 2q2 -2 1 -6q-15 -45 -51.5 -79t-80.5 -34q-19 0 -33 6t-24 22.5t-16 31.5t-11.5 49t-8 57t-7.5 73q-3 37 -11 139.5t-13 159.5q-85 -75 -124 -110t-120.5 -104.5t-126.5 -105t-120.5 -92.5t-126 -87.5t-119 -68.5t-122.5 -57t-115 -32.5t-116 -13.5
q-124 0 -188 81q-60 77 -32 177q34 122 180 206q34 19 72 35q29 12 39 -9q8 -17 -7 -28q-2 -1 -5 -2q-10 -3 -46 -2t-60 -16q-57 -32 -95 -77.5t-52.5 -92t-9.5 -92.5t29.5 -81.5t70.5 -57.5t107 -22q48 0 99.5 11.5t99.5 28.5t106.5 49.5t104.5 60.5t110.5 76.5t109 83
t113.5 94t111 96t116 102t113 99.5q-3 30 -6.5 86.5t-6.5 99t-11.5 99.5t-21 99.5t-36.5 87t-57 73t-83 46.5t-113 18q-208 0 -325 -143q-90 -112 -90 -260q-1 -141 79 -228q71 -79 185 -79q81 0 138 31.5t80 93.5q9 25 29 19q18 -4 17 -21q-1 -5 -3 -10q-23 -48 -95.5 -89
t-166.5 -41q-177 0 -259 124q-70 106 -44 253q27 149 140 251q128 116 317 116q182 0 268 -97t100 -273q10 -121 16 -211q100 87 180 151t176 130.5t177.5 108.5t170 68.5t167.5 26.5z" />
    <glyph glyph-name="Y" unicode="Y" horiz-adv-x="1067" 
d="M863 -55q222 8 341.5 -44t119.5 -133q0 -43 -27.5 -71.5t-56.5 -39.5q-24 -8 -28 -3q-1 2 4 4q1 1 2 1q24 7 44 31.5t20 67.5q0 85 -115.5 130.5t-310.5 38.5q-58 -138 -122 -232.5t-132.5 -145.5t-134.5 -72t-144 -21q-89 0 -150 40t-61 102q0 73 64 136.5t167.5 105.5
t225.5 68t247 34q37 98 94 290h-2q-26 -42 -48 -72t-63.5 -74t-93 -68.5t-108.5 -24.5q-27 0 -48 4t-34.5 13t-23.5 18t-12.5 26t-4.5 29.5t3.5 35.5t9 37t14 41t16 41t17.5 43q117 283 155 446q105 455 -214 455q-96 0 -175 -49t-124.5 -123.5t-60.5 -165.5t4.5 -173
t83 -147t163.5 -87q39 -6 51.5 -1.5t23.5 15.5t18 12q20 4 26.5 -10.5t-7.5 -25.5q-11 -9 -38 -13t-65 0.5t-80 17.5t-82.5 42t-73.5 69t-53 104t-20 142q0 74 29.5 147.5t81 132.5t129.5 95.5t167 36.5q125 0 198 -70.5t85 -212.5t-59 -355q-15 -47 -35.5 -100t-37 -94
t-34.5 -85t-29.5 -77t-20 -65t-8 -54.5t8 -39.5t26 -25.5t48.5 -8.5q56 0 114 38.5t103.5 97t80 120t52.5 115.5q42 124 108 124q10 0 13.5 -2.5t2.5 -4.5t-3 -4q-34 -21 -59 -78.5t-72 -215.5q-43 -145 -90 -259zM360 -522q83 0 153.5 35.5t124.5 101t94 139.5t77 170
q-273 -17 -459.5 -108.5t-186.5 -209.5q0 -56 53 -92t144 -36z" />
    <glyph glyph-name="Z" unicode="Z" horiz-adv-x="1312" 
d="M1785 1167q37 22 53 0q12 -16 -3 -27q-2 -2 -4 -3q-66 -31 -141 -87.5t-161 -139.5t-155.5 -154t-174.5 -182.5t-167 -175.5q111 13 208.5 61.5t138.5 124.5q17 32 45 23q23 -8 24 -32q-1 -20 -20 -37q-84 -70 -193.5 -112t-223.5 -50q-250 -253 -426 -361
q57 -43 140.5 -118.5t149 -131.5t146.5 -112.5t170 -87.5t183 -31q149 0 245 90q73 68 73 147q0 80 -80 115q-46 20 -112 20q-96 0 -171 -40t-102 -73q-16 -19 -34 -7q-16 11 -6 27q5 7 16 13q201 106 341 106q130 0 181 -79q44 -68 5 -153q-44 -95 -166 -145
q-95 -38 -216 -38q-105 0 -200.5 29.5t-182 87.5t-146.5 109t-145 132t-128 117q-137 -75 -249 -75q-155 0 -206 70q-36 48 -2 99q37 58 125 67q13 1 27 1q153 0 322 -123q168 104 409 343q-275 -4 -413 139q-103 107 -95 256q8 142 110 248q125 128 327 132h10
q75 0 209 -16.5t235.5 -28t223 1t206.5 61.5zM296 -65q99 0 229 74q-156 125 -286 125q-68 0 -98 -50q-29 -46 0 -90q40 -59 155 -59zM1725 1104q4 2 2.5 4t-5.5 0q-69 -29 -179.5 -32.5t-210 9t-225 26.5t-197.5 14q-195 0 -302 -126q-89 -104 -83 -245q6 -144 107 -244
q131 -129 361 -116q89 89 267 278.5t285.5 292t179.5 139.5z" />
    <glyph glyph-name="bracketleft" unicode="[" horiz-adv-x="553" 
d="M994 1180q48 0 73.5 -12t18.5 -30q-5 -12 -18.5 -14t-24.5 4q-30 13 -54 20t-62.5 6.5t-72.5 -16t-80 -55t-90.5 -102t-98 -164.5t-108.5 -236q-42 -103 -73.5 -192.5t-49.5 -160t-29.5 -129t-11 -104t3 -80t16 -62t25 -46t32.5 -35t35 -25.5t37 -22q1 -1 2 -1
q33 -18 24 -38q-7 -17 -33.5 -7.5t-61.5 42.5q-238 225 35 861q63 147 121.5 251t127 185.5t147.5 121.5t170 40z" />
    <glyph glyph-name="backslash" unicode="\" horiz-adv-x="317" 
d="M242 -121q13 -130 -41 -159q-18 -10 -17 0q0 2 1 3q12 20 14.5 56.5t-1 82t-12.5 139.5q-3 25 -4 39q-3 31 -51 452.5t-63 559.5q-14 130 40 158q17 10 17 0q0 -2 -1 -3q-10 -17 -14 -38t-1.5 -67.5t6 -82.5t13.5 -128q14 -132 61.5 -546t52.5 -466z" />
    <glyph glyph-name="bracketright" unicode="]" horiz-adv-x="566" 
d="M483 1133q239 -225 -36 -862q-63 -147 -121.5 -251t-127 -185.5t-147.5 -121.5t-170 -40q-47 0 -72.5 12.5t-19.5 30.5q5 12 18.5 14t25.5 -4q30 -13 53.5 -20t62 -6.5t72.5 16t80 54.5t90.5 101.5t98.5 165t109 236.5q218 536 145 725q-26 68 -101 113q-10 7 -31 18
l-1 1q-32 17 -23 37q7 17 33.5 8t61.5 -42z" />
    <glyph glyph-name="asciicircum" unicode="^" horiz-adv-x="833" 
d="M602 773h9l101 -169h-53q-48 76 -75 114l-138 -114h-30q157 146 186 169z" />
    <glyph glyph-name="underscore" unicode="_" horiz-adv-x="585" 
d="M510 -47h-411l12 34h412z" />
    <glyph glyph-name="grave" unicode="`" horiz-adv-x="522" 
d="M401 794q-36 -22 -51 -45.5t-12 -39.5t8.5 -37.5t3.5 -33.5q-5 -41 -43 -38q-11 0 -24.5 9.5t-13.5 27.5q-1 51 41 97.5t84 69.5q11 6 12 -3q-1 -4 -5 -7z" />
    <glyph glyph-name="a" unicode="a" horiz-adv-x="540" 
d="M417 208q-31 -100 -30 -132q1 -45 38 -45q47 0 90 79q2 4 5.5 3t1.5 -7q-14 -45 -48.5 -79t-78.5 -34q-33 0 -50 17.5t-17.5 46t5 55t16.5 54.5h-3q-24 -58 -81 -115t-118 -57q-62 0 -91 39.5t-29 93.5q0 76 47.5 167.5t118.5 154.5t132 63q10 0 20 -2t24.5 -10t25 -20.5
t17.5 -37t7 -57.5h2q40 116 104 116q18 0 17 -6q0 -2 -3 -4q-28 -18 -48.5 -66t-61.5 -178q-8 -25 -12 -39zM333 492q-73 0 -150 -104q-73 -99 -91 -208q-20 -114 44 -142q18 -8 41 -8q52 0 108 70t88 160q33 88 28 139.5t-23 72t-45 20.5z" />
    <glyph glyph-name="b" unicode="b" horiz-adv-x="467" 
d="M975 1121q-4 -12 -20 -14t-29 7q-52 32 -111.5 27t-120 -36.5t-124 -97.5t-122.5 -155t-116 -210.5t-104 -263.5q27 52 68.5 85.5t84.5 41.5t81 -1.5t62 -45.5t24 -90q0 -85 -50.5 -175t-122 -146.5t-131.5 -56.5q-189 0 -107 277q41 140 94 267.5t124 244t151 201.5
t177.5 135.5t200.5 50.5q47 0 72.5 -12.5t18.5 -32.5zM201 285q-44 -127 -35.5 -203t69.5 -76q57 0 117 59t98 143t38 157q0 97 -60 118q-56 19 -123 -38t-104 -160z" />
    <glyph glyph-name="c" unicode="c" horiz-adv-x="419" 
d="M329 505q-55 0 -112.5 -57t-93.5 -138.5t-36 -151.5q0 -58 25 -92.5t78 -34.5q57 0 104.5 42.5t79.5 108.5q2 5 5.5 6.5t5 -1t0.5 -8.5q-19 -59 -81.5 -123t-135.5 -64q-62 0 -101.5 40.5t-39.5 119.5q0 77 42.5 162t115 144.5t148.5 59.5q42 0 72.5 -24t34.5 -54.5
t-16 -60.5q-13 -16 -33.5 -18t-34.5 12q-17 20 -15 37t14 27q25 21 17.5 44.5t-43.5 23.5z" />
    <glyph glyph-name="d" unicode="d" horiz-adv-x="552" 
d="M1039 1181q47 0 73 -12.5t21 -30.5q-4 -12 -17.5 -14t-25.5 4q-39 17 -73 23t-78.5 -3t-85.5 -38.5t-90.5 -91.5t-97.5 -155q-42 -81 -116 -286t-127 -369q-36 -112 -28 -148q7 -29 37 -29q46 0 89 79q2 4 5.5 3t2.5 -7q-15 -45 -50.5 -79t-79.5 -34q-34 0 -50 21
t-13 55.5t7 55t11 41.5h-2q-24 -58 -81.5 -115t-120.5 -57q-59 0 -88 40t-29 93q0 76 48 167.5t119 154.5t131 63q13 0 26.5 -4.5t30 -16t27 -39t10.5 -67.5l2 -1q28 85 53 155t56 146t63 136t69 118.5t77.5 100.5t86.5 75t98.5 49.5t109.5 16.5zM378 260q33 88 28 139.5
t-23 72t-45 20.5q-73 0 -149 -104q-73 -99 -92 -208q-20 -114 44 -142q18 -8 41 -8q52 0 108 70t88 160z" />
    <glyph glyph-name="e" unicode="e" horiz-adv-x="419" 
d="M460 422q0 -139 -361 -275q-2 -51 21 -84.5t73 -33.5q101 0 187 149q6 9 10 6.5t1 -11.5q-4 -12 -19 -36.5t-41.5 -59t-69.5 -59t-90 -24.5q-109 0 -128 96q-18 91 46 213q63 121 160 178q57 34 114 34q41 0 69 -27t28 -66zM346 495q-59 0 -115.5 -54.5t-90.5 -130
t-40 -144.5q221 77 289 190q39 66 11 111q-18 28 -54 28z" />
    <glyph glyph-name="f" unicode="f" horiz-adv-x="338" 
d="M264 473l-203 -652q-27 -85 -65.5 -147.5t-78.5 -94t-74 -46t-63 -14.5q-71 0 -124 29q-48 29 -22 60q21 21 43 1q6 -5 19.5 -27.5t33 -35t53.5 -12.5q64 0 121 72t93 178q51 148 187 601q5 19 5.5 33.5t-1.5 23.5t-11 15.5t-15 9.5t-20.5 4.5t-21 1.5h-22.5
q-12 0 -16 6.5t0.5 13t13.5 6.5h122q61 203 133.5 289t162.5 86q60 0 93.5 -23.5t35.5 -56.5q1 -27 -27 -36q-31 -7 -44 24q-1 2 -7 22.5t-10.5 27.5t-20.5 16t-40 9q-39 0 -70.5 -26t-55.5 -73.5t-42.5 -97.5t-38.5 -115q-9 -31 -14 -46h161q10 0 14 -6.5t-1 -13.5t-15 -7
q-4 0 -77.5 0.5t-90.5 0.5z" />
    <glyph glyph-name="g" unicode="g" horiz-adv-x="490" 
d="M348 165h-3q-23 -57 -81 -114.5t-118 -57.5q-62 0 -91 39.5t-29 93.5q0 76 47.5 167.5t118.5 154.5t132 63q13 0 26 -4t29.5 -15.5t27 -39.5t11.5 -68l2 -1q39 117 104 117q17 0 17 -6q-1 -2 -3 -4q-28 -19 -47.5 -65.5t-61.5 -176.5q-3 -8 -4.5 -13t-4 -13t-4.5 -15
q-24 -74 -57.5 -181t-53.5 -169t-33 -95q-46 -121 -127.5 -179t-174.5 -58q-72 0 -127.5 25.5t-82.5 64.5t-32 86.5t14.5 90t67.5 76t117 44.5q15 2 63.5 7.5t72.5 10t56.5 18.5t50.5 36q4 6 7 -3q2 -6 -2 -13q-16 -25 -46.5 -36t-99.5 -21.5t-101 -17.5q-54 -12 -91 -44
t-50.5 -71t-8.5 -81.5t28 -77.5t66 -57.5t99 -22.5q76 0 141.5 45t96.5 136q37 108 71.5 219.5t50.5 168.5zM332 491q-73 0 -149 -104q-73 -100 -92 -209q-20 -115 45 -141q16 -7 38 -7q55 0 110.5 69t87.5 160q18 51 24 92t2 66.5t-14.5 42.5t-23.5 24t-28 7z" />
    <glyph glyph-name="h" unicode="h" horiz-adv-x="516" 
d="M17 -7q-3 -1 -5.5 1.5t-1.5 5.5q19 58 56 175q116 371 185 532q140 325 313 424q85 49 183 49q48 0 73.5 -12t19.5 -30q-8 -25 -43 -10q-39 17 -73 23t-78.5 -3t-85.5 -38.5t-90.5 -91.5t-97.5 -155q-111 -215 -184 -476l3 -1q31 53 79.5 90.5t109.5 37.5q57 0 75.5 -47
t-10.5 -124q-16 -38 -74 -213q-34 -102 27 -102q29 0 54 24t39 59q1 2 4 2.5t4 -2t0 -5.5q-14 -45 -46.5 -79.5t-76.5 -34.5q-105 0 -62 142q13 43 47 136.5t41 124.5q10 43 -3.5 68t-44.5 25q-57 0 -112 -60.5t-78 -132.5q-43 -135 -91 -266q-5 -13 -17 -19
q-36 -16 -39 -17z" />
    <glyph glyph-name="i" unicode="i" horiz-adv-x="256" 
d="M73 456q-3 3 1 8q18 17 49.5 32.5t55.5 15.5q42 0 53.5 -30.5t-4.5 -72.5q-9 -28 -59 -154t-57 -156q-2 -15 -1.5 -30t9.5 -26.5t26 -11.5q19 0 38.5 13.5t28.5 25.5t27 39q7 8 8 2q1 -2 0 -4q-18 -46 -56 -80t-78 -34q-47 0 -59 37.5t10 94.5l116 292q23 61 -10.5 72.5
t-84.5 -32.5q-9 -7 -13 -1zM265 612q-17 0 -29 12.5t-12 29.5q0 16 12 28.5t29 12.5t29 -12t12 -29t-12 -29.5t-29 -12.5z" />
    <glyph glyph-name="j" unicode="j" horiz-adv-x="257" 
d="M263 408q-13 -44 -182 -585q-27 -84 -65.5 -147t-78 -94.5t-73 -46t-61.5 -14.5q-73 0 -127 29q-50 28 -22 60q21 21 43 1q6 -5 19.5 -27.5t33 -35t53.5 -12.5q64 0 121 72t93 178q45 132 196 631q19 63 -15 74q-41 13 -125 -65q-8 -7 -13 -2q-3 4 0 9q83 79 150 79
q41 0 54.5 -31t-1.5 -73zM291 612q-17 0 -29 12t-12 29t12 29t29 12t29 -12t12 -29t-12 -29t-29 -12z" />
    <glyph glyph-name="k" unicode="k" horiz-adv-x="512" 
d="M743 1180q48 0 73.5 -12t19.5 -30q-8 -25 -43 -10q-32 14 -60.5 20t-63.5 4.5t-69 -19t-71.5 -49t-78 -88t-81.5 -133.5q-79 -148 -204 -549q-3 -11 4.5 -16.5t26.5 -5.5q41 0 80 34t65.5 75t63 75t73.5 34t50 -27.5t4.5 -58.5t-25.5 -45q-14 -11 -32 -11.5t-29 10.5
q-12 11 -11.5 28.5t12.5 30.5q5 5 14.5 10.5t15 11t6.5 14.5q2 9 -3 15t-14 6q-22 0 -48 -25.5t-47.5 -58.5t-54 -68t-62.5 -49q63 1 80 -24t6 -62q-29 -94 -30 -123q0 -53 40 -54q43 0 88 79q2 5 6 3q2 -2 1 -7q-15 -45 -51 -79t-80 -34q-27 0 -42 14t-18.5 33.5t0 48
t9 50.5t13.5 48q3 9 4 13l3 8q3 8 3.5 10.5t2 11t0.5 12t-2 10.5t-5.5 10.5t-10 7.5t-15.5 5.5t-23 1.5q-78 0 -105 -79l-48 -164q-5 -14 -17 -19q-4 -2 -15.5 -7t-21 -9.5t-11.5 -4.5q-3 -1 -5.5 1.5t-1.5 5.5q20 62 60 188q116 367 184 526q137 319 308 417q85 49 183 49z
" />
    <glyph glyph-name="l" unicode="l" horiz-adv-x="239" 
d="M45 165q45 144 81.5 250t81 218t85.5 190t91 149.5t102.5 114.5t115.5 68t133 25q48 0 74 -12.5t20 -30.5q-4 -12 -17.5 -14t-25.5 4q-39 17 -73.5 23t-79 -3t-86 -38.5t-90.5 -91.5t-98 -155q-43 -81 -116.5 -285t-127.5 -370q-35 -108 -29 -144q5 -33 37 -33
q47 0 90 79q2 4 5.5 3t2.5 -7q-15 -45 -50.5 -79t-78.5 -34q-17 0 -30 4.5t-20 14t-12 19t-5 24.5t0.5 25.5t4 27t5.5 23.5l6 21z" />
    <glyph glyph-name="m" unicode="m" horiz-adv-x="767" 
d="M749 109q2 4 5 5t4.5 -1t0.5 -6q-16 -47 -49 -80.5t-76 -33.5q-31 0 -50 12.5t-26 44t15 85.5q21 55 90 218q55 132 -24 132q-45 0 -105 -65t-92 -153q-20 -56 -40.5 -114t-31 -87.5t-12.5 -33.5q-9 -20 -26 -27q-6 -2 -20 -5t-16 -4q-5 -3 -9 -0.5t-1 9.5l118 317
q29 78 31 105q2 58 -52 59q-48 0 -106 -69t-80 -128l-101 -256q-6 -17 -23 -24q-16 -7 -39 -15q-5 -2 -8 1t-1 9q0 1 20.5 53.5t44.5 114.5t47.5 124.5t31.5 83.5q16 46 12 75.5t-30 29.5q-16 0 -38.5 -20.5t-33.5 -35t-18 -24.5q-5 -7 -11 -2q-2 3 1 8q7 10 15.5 21.5
t28 33.5t43 36t44.5 14q28 0 41.5 -17.5t13 -43.5t-4.5 -47t-10 -37h3q27 49 81.5 96.5t104.5 47.5q32 0 51 -13.5t24.5 -30.5t4 -40t-5 -36t-7.5 -24h1q32 57 84.5 100.5t105.5 43.5t68.5 -41.5t-12.5 -112.5q-81 -197 -101 -251q-4 -11 -6 -23.5t-0.5 -26.5t11 -23
t27.5 -9q27 0 52.5 22t40.5 59z" />
    <glyph glyph-name="n" unicode="n" horiz-adv-x="527" 
d="M411 323q35 90 32 121q-5 41 -54 42q-48 0 -109 -70t-83 -127l-101 -256q-6 -17 -23 -24q-16 -7 -39 -15q-5 -2 -8 1t-1 9q0 1 20.5 53.5t44.5 114.5t47.5 124.5t31.5 83.5q36 105 -18 105q-16 0 -38.5 -20.5t-33.5 -35t-18 -24.5q-5 -7 -11 -2q-2 3 1 8q7 10 15.5 21.5
t28 33.5t43 36t44.5 14q28 0 41.5 -17.5t13 -43.5t-4.5 -47t-10 -37h3q26 48 83.5 96t108.5 48q39 0 60 -16.5t23 -42t-1 -45.5t-10 -38q-11 -28 -52 -132t-43 -109q-41 -103 22 -103q34 0 58 25.5t36 54.5q4 7 8 6t1 -8q-3 -10 -10 -24t-21.5 -37t-38 -38.5t-49.5 -15.5
q-18 0 -32 3t-22.5 10t-14.5 15.5t-7 21.5t-0.5 25.5t5 30.5t9 33t12.5 37.5t15 39.5t17 42q6 16 10 24.5t9.5 22.5t9.5 26z" />
    <glyph glyph-name="o" unicode="o" horiz-adv-x="474" 
d="M178 -6q-62 0 -96 34.5t-37.5 86.5t7.5 108t33 102t44 67q6 6 6 -1q5 -20 23 -38q9 -9 1 -18q-30 -48 -48 -105t-20 -107t20 -83.5t67 -33.5q59 0 109.5 63.5t87.5 162.5q21 55 30 101.5t6.5 85t-24 60.5t-61.5 22q-32 0 -60 -16.5t-28 -42.5q0 -7 4 -18.5t4 -19.5
q0 -18 -13.5 -32t-31.5 -14q-19 0 -31.5 13.5t-12.5 32.5q0 36 51 73t119 37q102 0 126 -98q23 -92 -29 -214q-53 -122 -143 -177q-50 -31 -103 -31z" />
    <glyph glyph-name="p" unicode="p" horiz-adv-x="509" 
d="M210 378q91 135 187 135q51 0 83.5 -41.5t32.5 -109.5q0 -76 -40.5 -161t-114 -147t-154.5 -62q-54 0 -76 28t-22 63v9l-93 -268q-29 -85 -69 -147t-80.5 -94t-74.5 -46.5t-63 -15.5q-53 0 -104.5 19t-51.5 48q0 10 8.5 21t23.5 11t26 -13t18.5 -28.5t28 -28.5t52.5 -13
q63 0 122.5 71.5t99.5 177.5q58 155 204 594q14 42 14 68q0 37 -29 37q-15 0 -38 -20t-35.5 -36t-18.5 -24q-3 -5 -7 -4t-4 6q0 16 50.5 62.5t86.5 46.5q51 0 51 -55q0 -30 -17 -83h4zM201 10q58 0 119.5 64t100.5 152.5t39 160.5q0 49 -19.5 74t-52.5 25q-51 0 -111 -55.5
t-100 -152.5q-50 -122 -50 -187q0 -81 74 -81z" />
    <glyph glyph-name="q" unicode="q" horiz-adv-x="489" 
d="M292 -495q-35 0 -58.5 9.5t-34.5 27t-15.5 37.5t-0.5 47t9 48.5t14 49.5l142 442h-2q-24 -57 -80.5 -114.5t-117.5 -57.5q-62 0 -91.5 39.5t-29.5 93.5q0 76 48 167.5t119 154.5t131 63q10 0 20 -2t24 -10t24.5 -20.5t18 -37t7.5 -57.5l2 -1q40 117 106 117q16 0 16 -5
q-1 -2 -4 -5q-28 -19 -47.5 -65.5t-61.5 -176.5q-3 -8 -4.5 -13t-4 -13t-4.5 -15q-22 -68 -151 -451q-10 -30 -17 -55t-13.5 -53.5t-7 -50t3 -40t16 -28t32.5 -9.5q22 0 37 8.5t28.5 25.5t17.5 20q22 19 37.5 5.5t-5.5 -37.5q-13 -15 -38 -24.5t-40.5 -11.5t-24.5 -2z
M333 492q-73 0 -149 -104q-73 -100 -92 -208q-21 -114 44 -142q17 -7 39 -7q55 0 110.5 69t87.5 160q18 51 24 92t2 66.5t-14.5 42.5t-23.5 24t-28 7z" />
    <glyph glyph-name="r" unicode="r" horiz-adv-x="460" 
d="M170 212q-3 -10 -30.5 -91.5t-30.5 -89.5q-6 -17 -22 -24q-20 -8 -34 -13q-5 -2 -8 1t-1 9q1 3 28 83.5t58 173.5t40 119q11 31 13 54.5t-6 37t-26 13.5q-15 0 -38 -20.5t-34.5 -35.5t-17.5 -24q-5 -7 -11 -2q-2 3 1 8q6 9 15.5 21t29 34t42.5 36t44 14q28 0 41.5 -17.5
t12.5 -43.5t-5 -47t-10 -37h3q88 145 193 145q33 0 55 -22t22 -52q0 -36 -18.5 -58.5t-40.5 -21t-38 18.5q-14 18 -6 40.5t33 29.5q26 7 20 27q-11 22 -40 24q-57 0 -126.5 -82t-107.5 -208z" />
    <glyph glyph-name="s" unicode="s" horiz-adv-x="387" 
d="M400 431q0 -32 -19 -46.5t-38 -7.5q-18 7 -22.5 23t2.5 27q3 7 12.5 19t9.5 19q0 38 -57 38q-42 1 -80.5 -26t-38.5 -68q0 -29 16.5 -57.5t40 -52t47.5 -47t40.5 -52.5t16.5 -59q0 -13 -3.5 -29t-15.5 -38.5t-31 -40t-54.5 -29.5t-80.5 -11q-50 1 -89 25.5t-39 79.5
q-1 35 14 51.5t34 13.5q15 -2 23.5 -12.5t7.5 -24.5q-1 -19 -12.5 -38t-11.5 -33q0 -23 24.5 -35t48.5 -12q129 0 129 115q0 29 -25 62.5t-54.5 59t-54.5 60.5t-25 68q0 68 56.5 105.5t129.5 37.5q10 0 23.5 -3t32 -10.5t31 -26t12.5 -45.5z" />
    <glyph glyph-name="t" unicode="t" horiz-adv-x="288" 
d="M252 518l40 112q23 64 49 89t58 27q10 1 15 -1.5t4 -5t-1 -3.5q-44 -29 -70 -95q-9 -21 -45 -124q0 -1 1 -1h135q10 0 14 -7t-1 -13.5t-15 -6.5h-142q-2 0 -3 -2q-73 -203 -97 -278q-35 -102 -33 -137q2 -39 36 -41q48 -2 93 79q2 4 5.5 2.5t1.5 -6.5q-15 -45 -51 -79.5
t-80 -33.5q-99 3 -39 172q1 2 15 39.5t32.5 90.5t32.5 98q31 97 -6 97q-12 0 -16 6.5t0.5 13t14.5 6.5h49q2 0 3 2z" />
    <glyph glyph-name="u" unicode="u" 
d="M352 142q-17 -30 -42.5 -60.5t-71.5 -60t-92 -28.5q-47 1 -71.5 23t-24 53.5t12.5 67.5q17 40 42 97.5t42.5 97.5t21.5 51q42 103 -14 105q-15 0 -38 -20t-35.5 -36t-18.5 -24q-7 -7 -11 -2q-2 3 1 8q79 105 135 105q24 0 38 -11.5t17.5 -43.5t-19.5 -87
q-9 -23 -25.5 -59t-30.5 -66.5t-28.5 -65.5t-21 -62.5t-6.5 -51t14 -37t42 -15.5q54 -4 110.5 53.5t96.5 147.5q23 49 66 164q48 121 112 124q17 1 16 -6q-1 -3 -3 -4q-29 -21 -54 -78t-80 -213q-30 -91 -33 -117q-7 -56 34 -60q26 -2 51 22t42 57q4 4 6.5 2.5t0.5 -6.5
q-16 -45 -54 -80t-82 -33q-35 2 -49.5 26.5t-11 55.5t17.5 67h-2z" />
    <glyph glyph-name="v" unicode="v" horiz-adv-x="433" 
d="M431 362q0 -33 -10.5 -78t-34 -96.5t-56 -94t-83 -71t-109.5 -28.5q-53 0 -77 28t-24 72q0 55 76 200q63 121 71 152q8 40 -21 41q-33 0 -89 -78q-3 -4 -7 -3.5t-5 3.5t2 8q16 21 24.5 31t28 29t41 28t44.5 9q44 0 44 -46q0 -40 -74 -181t-74 -193q0 -79 68 -79
q63 0 120.5 58t89 134.5t31.5 140.5q0 32 -9 55t-19.5 32.5t-20.5 21t-11 23.5q-3 41 32 41q52 0 52 -159z" />
    <glyph glyph-name="w" unicode="w" horiz-adv-x="691" 
d="M704 386q1 -42 -11 -93.5t-36.5 -105t-57.5 -97.5t-79 -71t-97 -25q-110 4 -93 99q-103 -105 -192 -99q-54 3 -79 31.5t-24 71.5q1 60 87 200q68 113 78 140q18 47 -15 50q-31 3 -93 -78q-5 -7 -10 -2q-3 4 1 10q84 106 145 97q38 -6 38.5 -39t-25 -83t-56.5 -103
t-58 -109t-28 -89q-4 -74 65 -74q55 0 118 56.5t106 135t47 143.5q3 38 -3 60.5t-15.5 39t-11.5 29.5q-3 13 8 24.5t27.5 9.5t27.5 -24q20 -43 15 -115q-2 -34 -13 -72.5t-20.5 -61.5t-23.5 -52.5t-15 -31.5q-61 -140 44 -141q54 -1 109 63t86 149t26 146q-3 37 -16 57.5
t-25 31.5t-14 24q-4 17 8 28t28 12q25 2 35.5 -32.5t11.5 -109.5z" />
    <glyph glyph-name="x" unicode="x" horiz-adv-x="523" 
d="M595 550q15 0 26 -9t10 -24q-2 -34 -36 -34q-9 0 -21.5 7t-22.5 10.5t-35 -9t-60 -45.5q-24 -22 -161 -168q29 -88 49 -140q3 -8 9.5 -25t9.5 -24t8 -19.5t9 -17.5t9.5 -11.5t12 -9t13.5 -2.5q17 0 33.5 9.5t28.5 25t18 25t10 16.5q2 5 4.5 6.5t3.5 -1t0 -7.5
q-5 -10 -12 -22t-23.5 -35t-42 -38t-53.5 -15q-20 0 -35 13t-18.5 21t-9.5 24l-66 182l-236 -256q-60 -65 -120.5 -94t-111.5 -14q-39 12 -28 39q9 23 36 15q5 -1 18 -10.5t26.5 -13.5t35 -1.5t55 26t76.5 67.5q1 1 241 264l-67 186q-4 13 -8 20.5t-12.5 13t-18.5 1
t-27.5 -21t-39.5 -47.5q-6 -9 -12 -5q-4 3 0 8q30 44 56.5 69.5t45.5 31t35 -2t26 -23t17 -38.5q7 -25 47 -147q54 58 68 72q172 178 240 178z" />
    <glyph glyph-name="y" unicode="y" horiz-adv-x="508" 
d="M563 509q19 0 17 -6q0 -2 -3 -4q-30 -20 -52 -74.5t-73 -216.5q-50 -157 -88 -258q-47 -123 -105.5 -213t-119 -140t-118 -73.5t-114.5 -23.5q-134 0 -198 87q-53 72 -28 161q27 95 127 143q79 38 188 35q19 -1 21 -17t-15 -20q-6 -2 -13 -1t-26.5 8.5t-36.5 7.5
q-108 0 -168 -86q-51 -74 -35 -160q16 -90 97 -124q40 -17 89 -17q100 0 199 82.5t166 253.5q82 211 102 289h-2q-16 -30 -40.5 -60.5t-68.5 -59.5t-89 -29q-47 0 -73 22t-27.5 54t9.5 68q21 57 58.5 149t39.5 97q19 48 14.5 76t-32.5 29q-15 0 -38 -20.5t-34.5 -35.5
t-17.5 -24q-5 -7 -11 -2q-2 3 1 8l3 4q4 5 7.5 10t9.5 12.5t11.5 14t13.5 15t15.5 15t16.5 13t17.5 11t18 7.5t18.5 3q23 0 37.5 -11.5t20 -43.5t-15.5 -87q-8 -23 -24 -59.5t-29 -67.5t-26.5 -67t-19 -63.5t-4 -51t17.5 -36t46 -12.5q52 0 106 56t90 145q19 45 60 164
q44 124 108 124z" />
    <glyph glyph-name="z" unicode="z" horiz-adv-x="455" 
d="M410 427q12 0 21.5 8t22.5 26t17 23q27 32 46 21q16 -10 1 -36l-4 -7q-24 -35 -66.5 -64t-57.5 -42l-322 -298q37 24 66 33.5t68 9.5q49 0 82.5 -30.5t51 -73.5t33 -86t39.5 -73.5t59 -30.5q45 0 110 92q7 10 12 5.5t-2 -14.5q-75 -117 -159 -117q-33 0 -58 32t-43 77.5
t-36.5 91t-49 77.5t-70.5 32q-13 0 -27 -4.5t-23.5 -9t-23 -16t-19.5 -17t-20 -20t-18 -18.5q-30 -29 -54 -19q-20 9 -4 33q4 7 11 14q12 12 116.5 105t200.5 179.5t98 92.5q-14 6 -43.5 23t-53 25t-53.5 8q-41 0 -79.5 -22.5t-62.5 -69.5q-6 -11 -15 -7q-5 5 0 14
q1 2 10.5 17t13 20.5t13.5 20t16 21.5t16.5 19t19.5 18t20.5 13t23.5 10t24 3q29 0 57.5 -22t52.5 -44.5t42 -22.5z" />
    <glyph glyph-name="braceleft" unicode="{" horiz-adv-x="618" 
d="M732 1153q-43 -29 -83 -86t-69.5 -120t-68 -135.5t-76.5 -133.5t-95.5 -112t-125.5 -74q58 -11 69.5 -95.5t-31.5 -263.5q-27 -103 -35 -182t3.5 -129t24 -76t33.5 -54q17 -21 42.5 -36.5t28.5 -20.5q7 -11 -3 -18t-20 2q-148 138 -148 341q0 92 34 239t34 188
q0 101 -84 101q-5 0 -6.5 2t0.5 4.5t6 2.5q46 0 86 24t71.5 64.5t62 93.5t60.5 111.5t62.5 118t73.5 114t88 98t111 71.5t138 33q21 2 23 -13q-3 -14 -19 -16q-3 0 -24.5 3t-39 3t-52 -12t-71.5 -37z" />
    <glyph glyph-name="bar" unicode="|" horiz-adv-x="333" 
d="M383 1193q17 4 16 -4q0 -2 -2 -4q-30 -29 -53 -135q-4 -18 -63 -357t-121 -696t-70 -401q-22 -125 -83 -141q-18 -6 -17 3q0 3 2 4q29 29 52 131q4 19 58 326t117 670t81 463q12 66 35.5 101.5t47.5 39.5z" />
    <glyph glyph-name="braceright" unicode="}" horiz-adv-x="658" 
d="M7 -313q43 29 83 86t70 120t68.5 135.5t76.5 133.5t95.5 112t125.5 74q-58 11 -69.5 95.5t31.5 263.5q27 103 35 182t-3.5 129t-24.5 76t-34 53q-17 22 -42.5 37.5t-28.5 20.5q-6 11 4 18t19 -2q149 -138 149 -341q0 -92 -34 -239t-34 -188q0 -101 84 -101q5 0 6.5 -2
t-0.5 -4.5t-6 -2.5q-46 0 -86 -24t-71.5 -64.5t-62 -93.5t-60.5 -111.5t-62.5 -118t-73.5 -114.5t-88 -98t-111 -71.5t-138 -33.5q-21 -1 -23 13q3 14 19 16q2 0 24 -3t39.5 -2.5t51.5 12.5t71 37z" />
    <glyph glyph-name="asciitilde" unicode="~" horiz-adv-x="833" 
d="M307 595q-20 3 -20 27t33.5 40.5t60.5 16.5q32 0 58.5 -19.5t48.5 -19.5q27 0 54.5 27t44.5 27q8 0 14 -8.5t4 -20.5q-5 -24 -33 -40t-57 -16q-25 0 -54.5 20t-52.5 20q-20 0 -35 -9t-22 -20t-18.5 -19t-25.5 -6z" />
    <glyph glyph-name="exclamdown" unicode="&#xa1;" horiz-adv-x="385" 
d="M237 301q17 1 16 -6l-3 -5q-36 -25 -66 -129q-41 -138 -77 -243.5t-79.5 -205.5t-89.5 -169.5t-100.5 -123t-118.5 -79.5t-138 -26q-47 0 -73 12.5t-21 29.5q7 25 43 10q39 -17 73.5 -23t79 2.5t85 38t87 92.5t90.5 156q57 112 185 539q19 65 47.5 96.5t59.5 33.5z
M269 503q17 0 29 -12t12 -29q0 -16 -12.5 -28.5t-28.5 -12.5q-17 0 -29 12t-12 29t12 29t29 12z" />
    <glyph glyph-name="cent" unicode="&#xa2;" horiz-adv-x="423" 
d="M429 472q7 -11 -2 -16t-18 10q-19 31 -65 38l-134 -472q51 6 94 47.5t72 102.5q2 5 6 6.5t5.5 -1t-0.5 -8.5q-17 -52 -70.5 -111.5t-117.5 -72.5q-50 -177 -56 -194q-11 -27 -29 -39q-3 -3 -4.5 -1.5t-0.5 6.5q2 3 64 225q-63 -1 -103.5 40t-40.5 120q0 77 43 162.5
t113 144.5t139 59q10 34 20.5 71t15.5 53l4 16q8 29 30 37q3 1 4 -1q0 -3 -3 -11l-48 -166q57 -7 82 -45zM320 505q-81 -5 -153 -111q-68 -101 -78 -210q-10 -114 57 -144q17 -8 39 -9z" />
    <glyph glyph-name="sterling" unicode="&#xa3;" horiz-adv-x="1229" 
d="M1176 -103q11 -47 -31 -95.5t-122 -80t-170 -31.5q-53 0 -104.5 15t-90 35.5t-83.5 55.5t-71.5 61t-68 67.5t-60.5 59.5q-67 -45 -151 -45q-86 0 -117 47q-24 37 6 70q32 34 106 34q76 -1 165 -72q42 43 74.5 113.5t71.5 186.5q-74 44 -118 49q-40 4 -73 -9t-49 -34.5
t-19 -48t18 -49.5q10 -11 22.5 -14.5t26 -3t18.5 -1.5q14 -4 10 -17t-22 -11q-43 5 -72 39.5t-22 75.5t52 66.5t113 25.5q60 0 126 -35q39 128 77 213.5t77.5 131.5t74 66t79.5 28q41 7 75 -4.5t54 -29.5q13 -11 10.5 -23.5t-14 -14.5t-23.5 8q-2 2 -11.5 12.5t-15.5 15.5
t-17 12t-26 9t-33 0q-26 -3 -50 -17.5t-42.5 -32.5t-38 -51.5t-32 -58.5t-29.5 -70.5t-25.5 -71t-24.5 -76t-23 -70.5q32 -17 57 -25t68.5 -11t89.5 13q8 2 11.5 0.5t2 -6t-8.5 -6.5q-133 -47 -231 2q-70 -205 -171 -290q25 -21 134 -123q45 -42 77.5 -68t74.5 -54t84 -40.5
t84 -11.5q162 5 240 87q51 53 38 104q-11 46 -68 51q-34 3 -77 -12q-26 -9 -42 -30q-10 -12 -21 -3q-10 7 2 17q10 10 44 22.5t76.5 20.5t80 -7.5t48.5 -59.5zM232 -44q75 0 128 41q-81 73 -140 73q-70 0 -86 -38q-12 -30 20 -55q29 -21 78 -21z" />
    <glyph glyph-name="currency" unicode="&#xa4;" horiz-adv-x="893" 
d="M487 135q-8 -15 -44 -29q0 -11 8 -12q16 -3 27 16q1 2 2 2v-4q-4 -9 -16.5 -17.5t-22.5 -3.5q-16 9 -7 32t28 33q6 3 13 3q9 -1 12.5 -6.5t-0.5 -13.5zM469 150q-11 -5 -18.5 -17t-7.5 -23q10 3 22.5 12t13.5 14q3 8 0.5 12.5t-10.5 1.5zM473 169q-6 -3 -8 -3q-3 0 -1 2
q19 15 9 29q-8 12 -33 16q-28 5 -69 -1.5t-71 -18.5l-27 -79q-7 -22 0 -22q6 0 10 9l2 1q1 0 1 -2q-6 -15 -19 -15q-18 0 -2 37q1 4 9.5 29t13.5 39q-21 -8 -38 -8q-4 0 -12 2q-6 2 -8 4q-6 5 -8 12q-3 13 4 24q3 7 11 13q9 6 16 5q4 0 4 -3q2 -5 -5 -7q-4 0 -6 1
q-5 4 -14 -7q-9 -13 -5 -26q0 -2 4 -8q1 0 2.5 -1.5t3.5 -2.5q6 -2 13 -2q17 0 40 9q10 27 10 30q3 7 12 10l1 -3l-11 -33q43 14 77 19q41 6 67 1q28 -5 36 -16q11 -16 -9 -34zM177 -41q31 -3 56.5 6t40.5 22t28 36t19 39.5t13 41.5v1q-17 -20 -26 -20q-12 0 -12 11
q0 6 8 25.5t8 23.5q0 3 -2 3q-3 0 -7.5 -4.5t-5.5 -4.5t-1 1v1q9 14 17 14q10 0 8 -10q-1 -8 -8 -23.5t-7 -24.5q0 -5 5 -5q11 0 22 17q1 3 12 29q5 15 15 15q2 0 2 -1q-3 0 -19 -48q-22 -68 -41 -95q-44 -60 -126 -54q-40 3 -70 30.5t-29 69.5q2 45 35 76t76 29
q40 -2 58 -24t13 -48q-3 -14 -10.5 -27t-21.5 -28.5t-40 -22t-59 -0.5q-5 2 -3 5q1 2 4 2q1 0 4 -2.5t7 -3.5q21 -2 41.5 2.5t41.5 23.5t29 52q4 23 -12.5 44.5t-51.5 23.5q-40 1 -70.5 -28.5t-33.5 -72.5q-3 -40 26.5 -67.5t66.5 -29.5zM539 107q25 44 90 42
q21 -1 66.5 -27t73.5 -27q25 -1 46.5 16t21.5 44q0 17 -11.5 28.5t-21 14t-17.5 3.5q-5 1 -10 -1l-4 -2q-3 0 -3 3t3 4q33 1 52 -12.5t19 -36.5q0 -25 -20 -44.5t-55 -19.5q-30 0 -76 25.5t-62 27.5q-31 3 -54 -9t-31 -28q-4 -6 -3.5 -14.5t7.5 -9.5q11 -2 24 11t13 28
q0 19 -14 24.5t-30 3.5q-14 -2 -26 -13t-13 -31q0 -18 22 -40t19 -39q-2 -14 -14 -22.5t-23 -10.5q-12 -2 -20.5 3.5t-7.5 17.5q0 18 19 30q10 8 24 8q-33 31 -29 57q6 38 49 43q17 4 33 -3.5t15 -27.5q0 -14 -13 -29.5t-31 -12.5q-10 1 -11 11t3 15zM501 43
q-17 -11 -17 -27q-1 -10 7 -14t18 -2q9 2 17 10.5t9 18.5q0 10 -8 21q-13 1 -26 -7zM608 47q-7 -12 -45 -29q2 -10 9 -12q15 -3 27 17q1 2 2 2l-1 -4q-3 -9 -15.5 -17.5t-22.5 -4.5q-16 10 -7 33t28 32q6 3 13 3q9 -1 12.5 -6.5t-0.5 -13.5zM589 62q-25 -14 -25 -40
q31 14 36 27q3 7 0 12t-11 1zM652 27q10 27 10 28q0 6 -5 6q-14 0 -26 -31l-11 -28q0 -1 -1 -2l-10 -2q-1 0 -1 1l20 50q5 12 -2 12q-2 0 -4.5 -2.5l-4.5 -4.5l-1 -2q-1 -1 -2 -1l-1 3q9 14 17 14q11 0 9 -10q-1 -5 -3 -10h1q13 19 23 19q12 0 12 -11q0 -7 -14 -42
q-1 -2 -1 -4q0 -5 5 -5q4 0 7 5t4 5l2 -1v-1q-8 -15 -19 -15q-16 0 -4 29zM731 56q0 -10 -8 -10q-6 0 -6 7q0 2 2.5 4.5t2.5 3.5q0 3 -8 3q-14 0 -14 -10q0 -7 11 -17.5t11 -18.5q0 -20 -24 -20q-22 0 -22 14q0 10 8 10q7 0 7 -7q0 -2 -2 -4.5t-2 -3.5q0 -6 9 -6q16 0 16 14
q0 5 -11.5 15.5t-11.5 17.5q0 19 27 19q15 0 15 -11zM786 47q-7 -12 -44 -29q0 -9 8 -12q15 -3 27 17q1 2 2 2v-4q-4 -9 -16.5 -17.5t-22.5 -4.5q-16 10 -7 33t28 32q6 3 13 3q9 -1 13 -6.5t-1 -13.5zM768 62q-26 -15 -26 -40q31 13 36 27q3 7 0.5 12t-10.5 1zM826 48
q-2 2 -2 5q0 5 3 6h1q2 2 1 3q-2 3 -7 3q-9 0 -12 -8q-9 -14 -3 -52.5t-2 -52.5q-10 -16 -26 -16q-25 0 -18 20q1 5 8 5q2 0 4 -2q1 -2 -1.5 -7t-0.5 -8t8 -3q9 0 15 11q9 13 3 51.5t0 48.5q8 16 27 16q17 0 14 -15q-1 -3 -4.5 -5.5t-7.5 0.5zM358 79q16 48 20 62q1 5 -1 7
q-4 1 -11 -6h-2v3q13 11 19 9q7 -2 3 -18q15 22 30 18q18 -4 7 -37q-13 -35 -39 -31q-10 2 -10 13q0 -1 -3 -9.5t-4 -10.5q-7 -22 -15.5 -37.5t-23 -34.5t-37 -29.5t-51.5 -10.5q-28 2 -46 17t-17 40q1 24 19 38.5t41 15.5q20 0 36.5 -11.5t14.5 -37.5q-1 -4 -5 -4
q-4 2 -3 5q0 1 1.5 3t1.5 7q-1 13 -13.5 24t-33.5 11q-32 0 -46.5 -25.5t-0.5 -51.5t51 -28q82 -3 118 109zM412 148q-14 5 -26 -20q-5 -8 -7 -18.5t2 -17.5q6 -6 15 1.5t16 23.5q9 27 0 31zM435 35h-5.5t-7 3t-3.5 8q-2 14 14 16q20 2 21 -14t-20 -26t-21 -22q0 -5 5 -6.5
t8 3.5q1 2 0 3.5t-1 2.5q2 2 3 1q3 0 0 -6q-1 -6 -8 -6q-9 0 -9 9q0 11 19 20.5t19 25.5q0 6 -5 10t-11 3q-8 0 -11 -9t4 -13q2 -1 8 2q2 0 2.5 -2t-1.5 -3zM406 29q-2 4 2 5q2 0 3 -2q2 -5 6 -4q6 1 8.5 8.5t-2.5 14t-15 6.5q-4 0 -10 -4t-6 -13q0 -8 9.5 -18t10.5 -15
q1 -6 -1 -6q0 9 -11.5 18.5t-12.5 17.5q-3 19 19 21q20 3 22 -14q0 -9 -4.5 -13.5t-9.5 -3.5t-8 2z" />
    <glyph glyph-name="yen" unicode="&#xa5;" horiz-adv-x="1094" 
d="M1221 804q43 -2 41 -21q-2 -12 -16 -15q-4 -1 -7 0q-8 2 -18 8t-23 9t-34 0q-85 -13 -198 -88q-178 -120 -346 -354h280q9 -2 8 -5q-26 -14 -46 -14h-255q-21 -21 -62 -108h287q7 -2 7 -5q-26 -14 -45 -14h-258q-11 -25 -32.5 -75.5t-32.5 -74.5q-14 -37 -29 -42
q-7 -3 -17.5 -6.5l-13.5 -4.5q-5 -1 -7.5 1t0.5 9q15 31 82 193h-279q-3 0 -4 1.5t1 2.5q24 14 49 14q117 0 240 1q14 33 42 108h-259q-4 0 -5 1.5t1 2.5q25 14 50 14h219q10 32 18.5 63t17 75.5t11 81.5t-3.5 76t-22 65.5t-48 43t-79 15.5q-52 -2 -98.5 -22.5t-77.5 -51
t-51.5 -67.5t-19 -73t17.5 -66q18 -26 39 -30.5t45 4.5q19 5 24 -10q5 -14 -14 -20q-3 -1 -7 -2q-48 -7 -91.5 25t-46.5 101q-2 80 77.5 154.5t200.5 75.5q52 0 91.5 -12.5t69 -44t41 -80.5t2.5 -125t-42 -174q27 41 71 94t111.5 120.5t137.5 122t152.5 90.5t153.5 33z" />
    <glyph glyph-name="brokenbar" unicode="&#xa6;" horiz-adv-x="427" 
d="M424 1170q11 3 14 1t3 -4.5t-2 -4.5q-32 -30 -53 -135q-4 -19 -14 -77t-23 -135.5t-21 -120.5q-22 -125 -83 -141q-18 -6 -17 3q0 3 2 5q29 27 52 130q4 19 9 46.5t19 108t32 183.5q12 66 35 101.5t47 39.5zM274 300q17 3 16 -4q0 -2 -2 -4q-30 -30 -53 -135
q-4 -21 -25.5 -149.5t-31.5 -184.5q-23 -123 -84 -141q-11 -3 -14 -1t-3 4.5t2 4.5q30 29 52 131q4 19 9 46t19 108.5t32 183.5q12 66 35.5 101t47.5 40z" />
    <glyph glyph-name="section" unicode="&#xa7;" horiz-adv-x="656" 
d="M500 756q38 1 72.5 -9t61.5 -38.5t26 -72.5q-1 -35 -30.5 -45.5t-48.5 8.5q-15 13 -12 35t22 32q9 5 11.5 14.5t-3.5 19.5q-9 15 -34 28t-66 12q-57 0 -106.5 -31.5t-52.5 -83.5q-2 -42 23.5 -85t63 -79.5t75.5 -72t63.5 -75.5t22.5 -77q-5 -69 -62 -118t-143 -58
q53 -61 49 -112q-5 -76 -72 -126.5t-164 -50.5q-60 0 -102 14t-61 34t-27 44t-5.5 43.5t10.5 32.5q10 15 28 20t36 -6q17 -12 17.5 -31.5t-9.5 -30.5q-3 -4 -11 -10t-11.5 -9.5t-6 -11.5t3.5 -16q13 -23 49.5 -39.5t91.5 -16.5q88 0 132 40.5t48 100.5q2 35 -23 74t-62.5 74
t-75 70.5t-63 75t-23.5 74.5q4 77 71 124t141 47q-7 7 -16.5 18t-25 42t-14.5 57q4 77 71 123.5t141 47.5zM535 217q2 28 -17 61.5t-39.5 55.5t-62.5 62t-58 57q-62 2 -116 -31t-58 -85q-2 -35 18 -73.5t42.5 -63t65 -65.5t59.5 -59q81 3 122 43.5t44 97.5z" />
    <glyph glyph-name="dieresis" unicode="&#xa8;" horiz-adv-x="833" 
d="M511 613q-17 0 -29 12t-12 29t12 29t29 12t29 -12.5t12 -28.5t-12 -28.5t-29 -12.5zM744 613q-17 0 -29 12t-12 29t12 29t29 12q16 0 28.5 -12.5t12.5 -28.5t-12.5 -28.5t-28.5 -12.5z" />
    <glyph glyph-name="copyright" unicode="&#xa9;" horiz-adv-x="833" 
d="M470 614q48 0 80.5 -28t32.5 -77q0 -81 -71 -147t-151 -66q-52 0 -82.5 30t-30.5 78q0 78 70 144t152 66zM360 310q77 0 142 60.5t65 135.5q0 43 -26.5 68t-70.5 25q-76 0 -141.5 -59.5t-65.5 -135.5q0 -45 26 -69.5t71 -24.5zM449 549q27 0 38 -18.5t-2 -31.5
q-4 -6 -12 -7t-12 4q-13 12 -1 24q10 8 7 16t-17 8q-37 0 -66 -54q-30 -54 -17 -92q8 -24 34 -24q40 0 66 54q3 6 4 1v-2q-7 -21 -29.5 -44t-48.5 -23q-22 0 -36 14.5t-14 42.5q0 43 34 87.5t72 44.5z" />
    <glyph glyph-name="ordfeminine" unicode="&#xaa;" horiz-adv-x="448" 
d="M375 647q-21 -65 -13 -81q6 -9 16 -10q25 -1 47 41q2 2 3.5 1t0.5 -3q-8 -24 -27 -42t-41 -16q-54 4 -22 88h-1q-12 -29 -42.5 -59t-61.5 -29q-60 3 -60 69q0 60 52 128t100 69q10 1 20 -2.5t20 -19.5t10 -43q21 58 55 60q12 0 6 -6q-15 -10 -25.5 -36t-33.5 -99
q-2 -7 -3 -10zM332 793q-42 1 -86 -67q-45 -69 -40 -124q3 -40 39 -46q29 -4 59.5 33t47.5 85q17 45 14.5 71.5t-12 37t-22.5 10.5z" />
    <glyph glyph-name="guillemotleft" unicode="&#xab;" horiz-adv-x="788" 
d="M832 503q-46 -60 -158.5 -111.5t-262.5 -85.5q46 -25 86 -51.5t82.5 -64t64.5 -82t16 -89.5q-1 -9 -13.5 -14t-23 -4t-11.5 2q7 37 -9.5 75.5t-43.5 68.5t-68 60.5t-73.5 49.5t-69.5 38q-8 4 9 10q9 3 27 8q8 2 45.5 11.5t53 13.5t51.5 15t56.5 19.5t53 23t54.5 29.5
t47 35t45 43h42zM136 306q46 -25 86 -51.5t82.5 -64t64.5 -82t16 -89.5q-1 -9 -13.5 -14t-23 -4t-11.5 2q7 37 -9.5 75.5t-43.5 68.5t-68 60.5t-73.5 49.5t-69.5 38q-8 4 9 10q9 3 27 8q8 2 45.5 11.5t53 13.5t51.5 15t56.5 19.5t53 23t54.5 29.5t47 35t45 43h42
q-45 -59 -158 -111t-263 -86z" />
    <glyph glyph-name="logicalnot" unicode="&#xac;" horiz-adv-x="707" 
d="M484 192l28 99l-367 1l10 33h411l-40 -133h-42z" />
    <glyph glyph-name="uni00AD" unicode="&#xad;" horiz-adv-x="452" 
d="M399 252q12 -17 10.5 -33t-17.5 -20q-15 -4 -27 3.5t-27.5 25t-27.5 26.5q-35 24 -94 27t-100 -5l-42 -9q-19 -6 -19 6q0 14 73.5 26t159 2t111.5 -49z" />
    <glyph glyph-name="registered" unicode="&#xae;" horiz-adv-x="631" 
d="M416 614q48 0 80.5 -28t32.5 -77q0 -82 -71 -147.5t-151 -65.5q-52 0 -82.5 30t-30.5 78q0 78 70 144t152 66zM442 365q71 61 71 140q0 44 -26.5 68.5t-69.5 24.5q-76 0 -141.5 -59t-65.5 -135q0 -45 26 -69.5t71 -24.5q63 0 124 46q-22 -7 -38.5 1.5t-24.5 23t-20 29
t-25 16.5q-4 -14 -8.5 -26.5t-7 -19t-2.5 -8.5q-4 -7 -8 -9q-10 -5 -15 -5q-2 -1 -3 0t0 3q0 1 44 134q13 38 -8 38q-13 0 -31 -21q-3 -2 -4 3q22 30 46 30q22 0 22 -26h2q26 30 61.5 24.5t31.5 -40.5q-4 -29 -33.5 -48.5t-63.5 -19.5q12 -5 24.5 -26.5t29 -35.5t42.5 -8z
M341 484q0 -1 -2.5 -9t-5.5 -18t-5 -15q73 -6 92 47q13 38 -12 46q-25 9 -50 -19q-11 -13 -17 -32z" />
    <glyph glyph-name="macron" unicode="&#xaf;" horiz-adv-x="639" 
d="M279 622q0 5 5 7t10 1l5 -1q4 -2 11 -4.5t27.5 -6.5t40.5 -4.5t46.5 6.5t48.5 22q12 9 27.5 26.5t27.5 25.5t27 4q16 -4 17.5 -20.5t-10.5 -33.5q-26 -39 -96.5 -49t-128.5 1.5t-58 25.5z" />
    <glyph glyph-name="degree" unicode="&#xb0;" horiz-adv-x="546" 
d="M429 628q-8 -49 -47 -73t-90 -26q-45 -1 -65.5 27t-9.5 63q23 75 106 92q48 10 80 -16.5t26 -66.5zM352 698q-29 7 -52.5 -12.5t-36.5 -53.5q-12 -29 -3.5 -54.5t34.5 -32.5q28 -7 52.5 13t34.5 54q11 31 3.5 55t-32.5 31z" />
    <glyph glyph-name="plusminus" unicode="&#xb1;" horiz-adv-x="583" 
d="M341 320l136 1l-13 -35l-135 1l-50 -138h-41l50 138h-138l12 33h138l44 121h41zM34 11l12 34h412l-13 -34h-411z" />
    <glyph glyph-name="twosuperior" unicode="&#xb2;" horiz-adv-x="427" 
d="M195 344q29 13 52.5 5.5t36 -22t32 -22t40.5 5.5q6 4 7 0q0 -3 -4 -5q-36 -19 -56 -14.5t-37.5 16t-30.5 22.5t-35.5 5.5t-52.5 -34.5q-13 -13 -22.5 -6.5t4.5 17.5q3 2 33 23.5t56.5 40.5t58 43t46.5 37q36 33 45.5 68.5t-9 57.5t-56.5 18q-52 -5 -77.5 -53t-1.5 -81
q6 -8 13 -8.5t10 6.5q5 12 14 13q13 2 16 -10.5t-9 -16.5q-56 -17 -76 23q-19 36 9 80q32 49 100 57q40 4 71.5 -11.5t30.5 -54.5q-1 -24 -17.5 -46.5t-36.5 -38t-69 -51t-85 -64.5z" />
    <glyph glyph-name="threesuperior" unicode="&#xb3;" horiz-adv-x="396" 
d="M231 289q-68 0 -80 39q-8 28 17 45q12 10 29 9q10 0 14.5 -5.5t2 -11t-9.5 -6.5q-9 -2 -14 3q-9 9 -17 -7q-12 -23 7 -41q15 -14 48 -15q59 -2 88 48q24 42 4 75q-21 34 -78 24q-7 -1 -6.5 2t6.5 4q12 1 34.5 11t48 33t29.5 50q6 40 -32 52q-39 12 -73 -16
q-19 -15 -26 -40q-6 -24 4 -38q5 -8 11.5 -9t8.5 5q3 6 13 9q9 1 13 -3.5t3 -10t-6 -8.5q-24 -12 -49 1.5t-24 44.5q2 31 33.5 53.5t77.5 23.5q33 1 54.5 -15t19.5 -45q-3 -56 -97 -91q26 2 50.5 -19t19.5 -57q-6 -41 -43.5 -67.5t-80.5 -26.5z" />
    <glyph glyph-name="acute" unicode="&#xb4;" horiz-adv-x="313" 
d="M142 606q37 22 51.5 45t12 39t-8 38t-4.5 34q3 22 16 30.5t27 7.5q11 0 24.5 -9.5t14.5 -27.5q1 -51 -41 -97.5t-85 -69.5q-10 -7 -12 2q1 5 5 8z" />
    <glyph glyph-name="mu" unicode="&#xb5;" horiz-adv-x="599" 
d="M139 14l-66 -190q-29 -85 -69 -147t-80.5 -94t-74.5 -46.5t-63 -15.5q-67 -2 -121 27q-55 30 -24 63q18 21 42 1q6 -6 18.5 -28t31.5 -34.5t54 -12.5q62 -1 122.5 71.5t99.5 177.5q58 155 204 594q36 107 -17 108q-15 0 -38 -20.5t-34.5 -35.5t-17.5 -24q-5 -7 -11 -2
q-2 3 1 8l3 4q4 5 7.5 10t9.5 12.5t11.5 14t13.5 15t15.5 15t16.5 13t17.5 11t18 7.5t18.5 3q24 0 38.5 -11.5t19.5 -43.5t-16 -87q-3 -8 -15.5 -40.5t-22 -59.5t-22 -66t-18 -69t-6.5 -58t9 -45t31 -19q53 -6 108.5 52t92.5 149q19 45 60 164q42 121 108 124q17 1 16 -6
q-1 -3 -3 -4q-16 -11 -28 -28.5t-29 -62t-27.5 -77.5t-39.5 -123q-28 -93 -30 -121q-2 -52 37 -56q47 -4 91 79q2 4 5.5 2.5t1.5 -6.5q-14 -45 -51 -80t-81 -33q-27 1 -42.5 15.5t-19 36.5t0 46.5t12.5 50.5h-2q-28 -52 -81 -101t-119 -48q-42 1 -66 21z" />
    <glyph glyph-name="mu" unicode="&#x3bc;" horiz-adv-x="599" 
d="M139 14l-66 -190q-29 -85 -69 -147t-80.5 -94t-74.5 -46.5t-63 -15.5q-67 -2 -121 27q-55 30 -24 63q18 21 42 1q6 -6 18.5 -28t31.5 -34.5t54 -12.5q62 -1 122.5 71.5t99.5 177.5q58 155 204 594q36 107 -17 108q-15 0 -38 -20.5t-34.5 -35.5t-17.5 -24q-5 -7 -11 -2
q-2 3 1 8l3 4q4 5 7.5 10t9.5 12.5t11.5 14t13.5 15t15.5 15t16.5 13t17.5 11t18 7.5t18.5 3q24 0 38.5 -11.5t19.5 -43.5t-16 -87q-3 -8 -15.5 -40.5t-22 -59.5t-22 -66t-18 -69t-6.5 -58t9 -45t31 -19q53 -6 108.5 52t92.5 149q19 45 60 164q42 121 108 124q17 1 16 -6
q-1 -3 -3 -4q-16 -11 -28 -28.5t-29 -62t-27.5 -77.5t-39.5 -123q-28 -93 -30 -121q-2 -52 37 -56q47 -4 91 79q2 4 5.5 2.5t1.5 -6.5q-14 -45 -51 -80t-81 -33q-27 1 -42.5 15.5t-19 36.5t0 46.5t12.5 50.5h-2q-28 -52 -81 -101t-119 -48q-42 1 -66 21z" />
    <glyph glyph-name="paragraph" unicode="&#xb6;" horiz-adv-x="893" 
d="M469 112q2 0 0 -4q-4 -7 -13.5 -15t-18.5 -8q-24 1 -16 30q9 29 32 38l11 2q9 0 13 -6t0 -14q-8 -12 -46 -29q2 -10 9 -12q16 -5 26 15q1 3 3 3zM464 151q-11 1 -21.5 -14.5t-10.5 -26.5q39 15 38 33q0 8 -6 8zM528 107q15 26 42 36q-13 13 -37 8q-14 -2 -26 -13t-13 -30
q0 -19 22 -41t19 -40q-3 -15 -17 -24t-27 -9q-9 0 -16 5.5t-6 15.5q1 17 16 28.5t27 10.5q-32 30 -28 58q5 38 48 43q29 4 43 -11q28 10 55 3.5t44 -18t41 -23t46 -11.5q25 -1 46.5 16t21.5 45q0 17 -11.5 28.5t-21 14t-18.5 3.5q-5 1 -9 -1t-5 -2q-3 0 -3 3t3 4
q33 1 52.5 -12.5t19.5 -36.5q0 -25 -20 -45t-56 -20q-25 0 -57 18t-63 29.5t-63 0.5q4 -5 4 -16q0 -29 -28 -40q-23 -8 -28 6q-2 7 3 17zM524 29q1 11 -8 20q-16 3 -29.5 -9t-13.5 -25q0 -17 20 -17q12 0 21 9.5t10 21.5zM573 139q-26 -10 -38 -31q-11 -21 5 -22
q18 -2 31 18q6 10 6 20t-4 15zM601 54q-2 -19 -48 -36q0 -10 8 -12q16 -4 28 16l2 2v-4q-4 -7 -14 -15.5t-18 -7.5q-24 2 -15 31q8 27 30 37q6 2 12 2q15 0 15 -13zM586 63q-12 0 -22.5 -16.5t-10.5 -24.5q36 11 39 32q1 9 -6 9zM662 13q1 3 3 1v-2q-5 -15 -18 -15
q-2 0 -4 0.5t-5 5.5t2 17q3 9 9 21q8 19 -1 19q-16 0 -27 -30l-8 -20l-3 -9q0 -1 -1 -1q-6 -3 -9 -3q-2 0 -1 1q0 2 19 51q5 12 -1 12q-5 0 -11 -9q-2 -2 -3 1q13 16 20 14q8 -2 4 -19q16 19 24 19q16 0 9 -23q-2 -4 -4.5 -11.5t-4.5 -12.5t-2 -6q-4 -10 3 -10q4 0 10 9z
M707 67q15 0 15 -11t-8 -11q-6 0 -6 7q0 3 2.5 5t2.5 3q0 4 -8 4q-14 0 -14 -10q0 -7 11 -17.5t11 -19.5q0 -20 -24 -20q-22 0 -22 14q0 11 8 11t7 -7q-1 -3 -3 -5t-2 -3q0 -6 10 -6q16 0 16 14q0 5 -11.5 16t-11.5 17q0 19 27 19zM738 -3q-25 3 -14 32q9 28 32 36q5 2 10 2
q9 0 12.5 -6t-0.5 -14q-8 -14 -45 -29q0 -10 8 -12q17 -5 27 16q2 2 3 2v-1q0 -1 -1 -3q-4 -8 -13.5 -16t-18.5 -7zM765 63q-8 1 -19 -11.5t-13 -29.5q26 7 37 26q1 3 1 6.5t-1.5 6t-4.5 2.5zM816 68q2 0 5 -0.5t6.5 -4.5t2.5 -10q-2 -11 -11 -6q-3 1 -3 7q0 3 2.5 5t2.5 3
q-2 2 -7 2q-12 0 -17 -19q-2 -12 3 -49.5t-3 -44.5q-10 -16 -27 -16q-10 0 -15.5 5t-2.5 15q2 7 8 5q7 -1 4 -8q-3 -4 -2 -8.5t9 -4.5t15 11q8 10 3 48t-3 47q6 23 30 23zM352 145q11 11 19 9q9 -3 3 -17h1q14 21 30 18q18 -4 7 -37q-13 -37 -40 -32q-10 2 -10 13
q0 -1 -1 -3.5t-2 -7t-3 -9.5q-10 -29 -21 -48.5t-36 -40t-59 -23.5q-32 -16 -77 -13q-41 3 -71 30.5t-29 70.5q2 45 35.5 76.5t76.5 29.5q33 -2 51 -17.5t21 -36.5q1 4 5 16l24 68q-21 -8 -38 -8q-15 0 -22.5 7t-6.5 13.5t0 8.5q1 10 9.5 21t22.5 10q5 0 3 -6q-2 -8 -10 -3
q-7 5 -13.5 -4.5t-7.5 -16.5q-5 -26 25 -26q17 0 39 9q11 29 11 30q2 7 12 10h1q1 -2 0 -3l-11 -34q39 14 78 20q83 11 104 -15q10 -16 -10 -34q-6 -3 -8 -3q-3 0 -1 2q20 15 9 29q-18 26 -94 16q-49 -7 -80 -20l-28 -80q-7 -22 0 -22t11 9q1 1 3 -1q-6 -15 -19 -15
q-6 0 -9 5q0 -5 -4 -15q38 -11 33 -46q-1 -6 -6 -5t-2 6q3 6 3 9q0 24 -29 33q-20 -51 -70 -62q10 -42 65 -41q55 27 86 135q-16 -19 -27 -19q-17 0 -9 23q1 4 5.5 14.5t6.5 14.5q3 10 -1 12q-4 0 -10 -9q-2 -1 -3 1q8 14 17 14q13 0 6 -22q-2 -4 -6 -13t-5 -14
q-5 -14 3 -14t18 11.5t16 34.5q4 16 15 16q2 0 2 -2q-2 -1 -6 -9l-13 -38q-1 -2 -5 -14.5t-5.5 -18t-6.5 -18t-8.5 -19.5t-10 -18t-13.5 -18.5t-16 -15t-19 -13.5q68 10 99 109q3 7 20 62q2 7 -2 8q-3 0 -10 -7q-2 -2 -3 -1zM171 14q46 13 64 60q-33 5 -50.5 -15.5
t-13.5 -44.5zM164 -42q37 -3 65 8q-53 2 -64 43q-22 -5 -51 1q-5 0 -3 4t5 2q1 0 4 -2t6 -3q19 -3 39 1q-5 32 18 50.5t53 14.5q11 29 -6 53.5t-55 26.5q-40 2 -71 -28t-34 -73q-3 -41 27 -68.5t67 -29.5zM369 92q6 -6 15.5 1.5t15.5 24.5q9 27 0 30q-13 5 -26 -20
q-13 -26 -5 -36zM422 62q20 2 21 -15q2 -16 -20 -25.5t-22 -21.5q0 -6 5.5 -7.5t8.5 4.5q1 2 0 3t-1 2q0 2 3 2q2 -2 0 -7q-1 -3 -8 -6q-10 0 -10 9q0 10 -11.5 19t-12.5 18q-2 18 19 21q10 1 16 -3q6 6 12 7zM400 7q3 6 20.5 15t17.5 24q0 7 -5 11t-11 3q-7 -1 -10 -6
q5 -8 4 -17q2 -1 5 1l2 1q2 1 2 -1t-1 -3q-3 -1 -8 0q-2 -7 -10.5 -8.5t-10.5 1.5q-3 4 2 5q2 1 3 -1q2 -5 6 -4t8 7q-7 3 -7 11q0 3 2 7q-4 3 -12 3q-16 0 -16 -16q0 -9 9 -19t10 -14zM414 37q2 10 -4 14q-4 -9 4 -14z" />
    <glyph glyph-name="periodcentered" unicode="&#xb7;" horiz-adv-x="348" 
d="M199 256q-17 0 -29 12t-12 29t12 29t29 12t29 -12t12 -29t-12 -29t-29 -12z" />
    <glyph glyph-name="cedilla" unicode="&#xb8;" horiz-adv-x="447" 
d="M398 -117q0 -47 -30 -80t-68 -33q-51 0 -73.5 41t8.5 73l8 -8q-21 -22 -8 -45.5t43 -23.5q29 0 48.5 12.5t29 34t15 43t10.5 47.5t10 39h12q-5 -13 -5 -100z" />
    <glyph glyph-name="onesuperior" unicode="&#xb9;" horiz-adv-x="423" 
d="M479 624q18 2 16 -6q0 -3 -2 -4q-37 -25 -74 -134q-7 -23 -73.5 -215.5t-82.5 -234.5q-6 -14 -18 -19q-40 -16 -44 -17q-3 -1 -5.5 1.5t-1.5 5.5l146 411q-49 -94 -161.5 -184t-191.5 -102q-5 -1 -7 1t-0.5 5.5t5.5 4.5q67 21 132.5 69.5t117 108t89.5 115.5t63 108
q41 84 92 86z" />
    <glyph glyph-name="ordmasculine" unicode="&#xba;" horiz-adv-x="660" 
d="M546 699q-8 -49 -47 -73t-90 -26q-45 -1 -65.5 27t-9.5 63q23 75 106 92q48 10 80 -16.5t26 -66.5zM469 769q-29 7 -52.5 -12.5t-36.5 -53.5q-12 -29 -3.5 -54.5t34.5 -32.5q28 -7 52.5 13t34.5 54q11 31 3.5 55t-32.5 31z" />
    <glyph glyph-name="guillemotright" unicode="&#xbb;" horiz-adv-x="834" 
d="M505 317q5 -1 -7 -8q-8 -3 -35 -16q-191 -83 -278 -166q-55 -53 -77 -110q-3 -8 -16 -12t-24 -3.5t-10 2.5q89 172 392 296q-36 8 -72.5 24.5t-72.5 41t-55.5 60.5t-13.5 77h48q-1 -31 14 -58.5t36 -46t54.5 -35.5t58 -26t58.5 -20zM804 317q5 -1 -7 -8q-8 -4 -36 -16
q-189 -83 -276 -166q-55 -53 -78 -110q-3 -8 -15.5 -12t-23.5 -3.5t-10 2.5q87 171 391 296q-36 8 -72.5 24.5t-72.5 41t-55.5 60.5t-13.5 77h49q-1 -39 19 -70.5t58 -54t69 -35t74 -26.5z" />
    <glyph glyph-name="onequarter" unicode="&#xbc;" horiz-adv-x="1063" 
d="M906 844q-42 -68 -200.5 -320.5t-282.5 -451.5t-132 -215q-47 -83 -44 -119q0 -2 -1.5 -4t-5 -1.5t-8.5 8.5q-31 49 29 146q21 34 171.5 274.5t292 466.5t150.5 241q49 85 45 124q0 2 1 4t5 0.5t9 -8.5q8 -11 9.5 -29.5t-7.5 -49.5t-31 -66zM373 566q-40 -77 -131.5 -150
t-155.5 -83q-7 -1 -7.5 3t5.5 6q54 17 108 57.5t96 90t72.5 94.5t50.5 85q35 68 76 70q13 1 13 -4q-1 -3 -3 -4q-31 -22 -60 -109q-7 -22 -60 -177.5t-67 -189.5q-5 -10 -14 -15q-12 -6 -36 -14q-2 -1 -4.5 1t-1.5 5zM983 495q14 1 13 -5q-1 -2 -2 -3q-32 -22 -60 -109
l-99 -287q27 -2 46 5t23.5 12t12.5 15q11 15 20 4q6 -7 -2 -13q-46 -36 -105 -39q-4 -11 -9.5 -25.5t-9 -24t-5.5 -14.5q-6 -13 -14 -15q-12 -6 -36 -14q-2 -1 -4.5 1t-1.5 4l33 91q-14 2 -47.5 7t-52 6.5t-46 -1t-51.5 -11.5q-4 -1 -7 1.5t-2.5 6.5t5.5 6
q77 42 187.5 157.5t140.5 180.5q29 62 73 64zM628 101q12 3 23.5 5t25 2.5t22.5 0.5t24.5 -2t21 -3t23.5 -4t21 -3l96 270q-31 -53 -113 -138t-144 -128z" />
    <glyph glyph-name="onehalf" unicode="&#xbd;" horiz-adv-x="1125" 
d="M879 844q-49 -79 -201.5 -323t-279 -446.5t-134.5 -217.5q-47 -83 -43 -119q0 -2 -1.5 -4t-5 -1.5t-8.5 8.5q-30 49 28 146q20 33 171.5 274.5t293 467t149.5 240.5q49 84 46 124q0 8 7 4l8 -8q8 -11 9.5 -29.5t-8 -49.5t-31.5 -66zM372 566q-40 -77 -131.5 -150
t-155.5 -83q-7 -1 -7.5 3t5.5 6q54 17 108.5 58t96.5 90.5t72.5 94.5t49.5 84q33 68 76 70q14 1 13 -5q-1 -2 -2 -3q-30 -21 -60 -109q-2 -5 -30 -86.5t-58.5 -169.5t-39.5 -111q-5 -10 -14 -15q-12 -6 -36 -14q-2 -1 -4.5 1t-1.5 5zM892 499q65 8 116.5 -18t49.5 -88
q-1 -32 -14.5 -58.5t-46 -56t-65.5 -53.5t-96.5 -70t-115.5 -88q33 14 61 13t46 -13t37 -26.5t34 -26.5t37.5 -13t46.5 13q9 5 12 0q2 -5 -6 -9q-38 -21 -69.5 -24t-51.5 7t-38.5 24.5t-36 26.5t-37 16t-48 -10t-64.5 -49q-22 -21 -37 -10q-14 10 3 25l4 4q6 4 76.5 54.5
t138.5 101t100 79.5q59 53 74.5 111t-14.5 93t-92 29q-43 -4 -77.5 -29t-50 -58t-18.5 -69t17 -61q10 -14 21.5 -15t16.5 12q8 19 22 21q22 4 27 -17.5t-16 -27.5q-82 -25 -117 28q-31 47 -5 112q31 76 118 107q27 9 58 13z" />
    <glyph glyph-name="threequarters" unicode="&#xbe;" horiz-adv-x="1073" 
d="M927 844q-44 -71 -200.5 -321.5t-281 -450t-133.5 -215.5q-47 -83 -44 -119q0 -2 -1.5 -4t-5 -1.5t-8.5 8.5q-31 49 29 146q21 34 171.5 274.5t292 466.5t150.5 241q49 85 45 124q0 2 1 4t5 0.5t9 -8.5q9 -11 10.5 -30t-8 -49.5t-31.5 -65.5zM1004 495q14 1 13 -5
q-1 -2 -2 -3q-30 -21 -60 -109l-99 -287q27 -2 46 5t23.5 12t12.5 15q11 15 20 4q6 -7 -2 -13q-44 -36 -105 -39q-4 -11 -9.5 -25.5t-9 -24t-5.5 -14.5q-4 -13 -14 -15q-12 -6 -36 -14q-2 -1 -4.5 1t-1.5 4l33 91q-14 2 -47 7t-51.5 6.5t-46.5 -1t-52 -11.5q-4 -1 -7 1.5
t-2.5 6.5t5.5 6q77 42 182.5 150.5t145.5 187.5q33 62 73 64zM649 101q12 3 23.5 5t25 2.5t22.5 0.5t24.5 -2t21.5 -3t23.5 -3.5t21.5 -3.5l95 270q-26 -45 -111.5 -134.5t-145.5 -131.5zM449 375q-9 -69 -71.5 -112t-133.5 -43q-101 0 -128 55q-19 38 9 72q24 28 63 26
q16 0 23.5 -8.5t3.5 -18t-16 -11.5q-14 -4 -24 6q-13 13 -26 -9q-18 -29 0 -59q22 -36 91 -38q88 -2 137 66q41 57 25 115q-17 61 -89 66q-23 2 -51 -3q-11 -1 -10.5 4t10.5 6q20 3 57.5 19.5t80 54.5t48.5 83q8 61 -46 83q-51 21 -107 -9q-49 -26 -64 -80q-11 -38 7 -65
q8 -11 18 -13.5t14 7.5q5 12 22 15q22 3 26 -13.5t-10 -22.5q-39 -20 -81 2t-40 73q2 52 55 90t129 39q55 1 90.5 -25t33.5 -74q-2 -46 -45.5 -85.5t-116.5 -66.5q43 3 84 -31.5t32 -94.5z" />
    <glyph glyph-name="questiondown" unicode="&#xbf;" horiz-adv-x="810" 
d="M506 251q-21 1 -4 13q26 17 58 14q17 -2 25 -13q18 -26 -0.5 -52t-63 -50.5t-107 -55.5t-132 -63t-139.5 -76.5t-128 -94t-98.5 -117.5t-49.5 -144q-16 -136 64 -213.5t197 -75.5q143 3 238.5 92t123.5 236q25 128 -49 201q-52 50 -116 44q-61 -6 -80 -61q-3 -9 -4 -18
q-5 -33 -35 -40q-26 -5 -35 15q-7 14 2 34q30 69 115 88q88 19 164 -29q96 -61 95 -192q-1 -32 -7 -66q-25 -137 -144.5 -228t-274.5 -95q-85 -2 -158.5 29.5t-118.5 97.5t-38 152q6 80 45 151t91.5 120.5t128 97.5t137 77t138.5 65t114 57q63 35 75 69q11 28 -29 31z
M584 496q17 0 29.5 -12t12.5 -29t-12.5 -29t-29.5 -12t-29 12t-12 29t12 29t29 12z" />
    <glyph glyph-name="Agrave" unicode="&#xc0;" horiz-adv-x="1556" 
d="M2100 1179q42 0 66.5 -13t18.5 -30q-5 -12 -18.5 -14t-25.5 4q-32 15 -59.5 22.5t-62 7t-68.5 -17.5t-73 -49t-82 -89.5t-88 -137.5q-82 -145 -265 -655q-36 -99 -35 -132q0 -41 35 -43q46 -3 95 78q2 5 6 2q2 -2 1 -6q-17 -45 -55 -80.5t-81 -32.5q-28 2 -43 18
t-17 35.5t3 47t10 42t11 29.5q35 97 19 137q-45 109 -114 188q-167 -219 -241 -300q-176 -193 -344 -244q-72 -22 -150 -22q-122 0 -218 45t-150 116t-73.5 161.5t0 180t81 173t158.5 138.5q24 14 35 -2q10 -15 -7 -27l-4 -2q-7 -3 -21 -4t-33.5 -11.5t-48.5 -39.5
q-42 -42 -70.5 -101.5t-38 -125.5t-4 -135t34.5 -131t74.5 -110.5t119 -77.5t164.5 -29q61 0 121 17.5t111.5 44.5t108 73t99.5 88.5t97.5 107t92 113.5t90.5 121q-90 95 -213.5 145t-254.5 50q-194 0 -307 -125q-87 -95 -88 -218q-2 -118 77 -186q64 -55 165 -55
q72 0 97 43q11 19 30 10q17 -9 7 -27q-2 -3 -5 -6q-35 -35 -130 -35q-153 0 -221 108q-60 95 -29 221q33 132 146 216q114 83 274 83q290 0 479 -187q121 172 298 346.5t320 240.5q-43 -14 -111.5 -16t-132 3.5t-149.5 12t-142 6.5q-157 0 -230 -97q-54 -73 -35 -158
q18 -81 90 -113q34 -15 75 -15q44 0 75 12.5t46.5 34t22.5 41.5t8 44t21 27q18 3 23 -15q2 -6 1 -13q-3 -17 -14 -38.5t-32.5 -48t-60.5 -44t-89 -17.5q-113 0 -163 83q-46 74 -17 164q31 97 130 143q66 30 150 30q55 0 197 -12.5t218 -12.5q67 0 158 23.5t154 23.5z
M1435 341q99 274 186.5 445t199.5 281q-113 -75 -254 -226t-261 -314q76 -81 129 -186zM2082 1505q-36 -22 -51 -45.5t-12 -39.5t8.5 -37.5t3.5 -33.5q-5 -41 -43 -38q-11 0 -24.5 9.5t-13.5 27.5q-1 51 41 97.5t84 69.5q11 6 12 -3q0 -4 -5 -7z" />
    <glyph glyph-name="Aacute" unicode="&#xc1;" horiz-adv-x="1556" 
d="M2015 1322q37 22 51.5 45t12 39t-8 38t-4.5 34q3 22 16 30.5t27 7.5q11 0 24.5 -9.5t14.5 -27.5q1 -51 -41 -97.5t-85 -69.5q-10 -7 -12 2q0 5 5 8zM2100 1179q42 0 66.5 -13t18.5 -30q-5 -12 -18.5 -14t-25.5 4q-32 15 -59.5 22.5t-62 7t-68.5 -17.5t-73 -49t-82 -89.5
t-88 -137.5q-82 -145 -265 -655q-36 -99 -35 -132q0 -41 35 -43q46 -3 95 78q2 5 6 2q2 -2 1 -6q-17 -45 -55 -80.5t-81 -32.5q-28 2 -43 18t-17 35.5t3 47t10 42t11 29.5q35 97 19 137q-45 109 -114 188q-167 -219 -241 -300q-176 -193 -344 -244q-72 -22 -150 -22
q-122 0 -218 45t-150 116t-73.5 161.5t0 180t81 173t158.5 138.5q24 14 35 -2q10 -15 -7 -27l-4 -2q-7 -3 -21 -4t-33.5 -11.5t-48.5 -39.5q-42 -42 -70.5 -101.5t-38 -125.5t-4 -135t34.5 -131t74.5 -110.5t119 -77.5t164.5 -29q61 0 121 17.5t111.5 44.5t108 73t99.5 88.5
t97.5 107t92 113.5t90.5 121q-90 95 -213.5 145t-254.5 50q-194 0 -307 -125q-87 -95 -88 -218q-2 -118 77 -186q64 -55 165 -55q72 0 97 43q11 19 30 10q17 -9 7 -27q-2 -3 -5 -6q-35 -35 -130 -35q-153 0 -221 108q-60 95 -29 221q33 132 146 216q114 83 274 83
q290 0 479 -187q121 172 298 346.5t320 240.5q-43 -14 -111.5 -16t-132 3.5t-149.5 12t-142 6.5q-157 0 -230 -97q-54 -73 -35 -158q18 -81 90 -113q34 -15 75 -15q44 0 75 12.5t46.5 34t22.5 41.5t8 44t21 27q18 3 23 -15q2 -6 1 -13q-3 -17 -14 -38.5t-32.5 -48t-60.5 -44
t-89 -17.5q-113 0 -163 83q-46 74 -17 164q31 97 130 143q66 30 150 30q55 0 197 -12.5t218 -12.5q67 0 158 23.5t154 23.5zM1435 341q99 274 186.5 445t199.5 281q-113 -75 -254 -226t-261 -314q76 -81 129 -186z" />
    <glyph glyph-name="Acircumflex" unicode="&#xc2;" horiz-adv-x="1556" 
d="M2100 1179q42 0 66.5 -13t18.5 -30q-5 -12 -18.5 -14t-25.5 4q-32 15 -59.5 22.5t-62 7t-68.5 -17.5t-73 -49t-82 -89.5t-88 -137.5q-82 -145 -265 -655q-36 -99 -35 -132q0 -41 35 -43q46 -3 95 78q2 5 6 2q2 -2 1 -6q-17 -45 -55 -80.5t-81 -32.5q-28 2 -43 18
t-17 35.5t3 47t10 42t11 29.5q35 97 19 137q-45 109 -114 188q-167 -219 -241 -300q-176 -193 -344 -244q-72 -22 -150 -22q-122 0 -218 45t-150 116t-73.5 161.5t0 180t81 173t158.5 138.5q24 14 35 -2q10 -15 -7 -27l-4 -2q-7 -3 -21 -4t-33.5 -11.5t-48.5 -39.5
q-42 -42 -70.5 -101.5t-38 -125.5t-4 -135t34.5 -131t74.5 -110.5t119 -77.5t164.5 -29q61 0 121 17.5t111.5 44.5t108 73t99.5 88.5t97.5 107t92 113.5t90.5 121q-90 95 -213.5 145t-254.5 50q-194 0 -307 -125q-87 -95 -88 -218q-2 -118 77 -186q64 -55 165 -55
q72 0 97 43q11 19 30 10q17 -9 7 -27q-2 -3 -5 -6q-35 -35 -130 -35q-153 0 -221 108q-60 95 -29 221q33 132 146 216q114 83 274 83q290 0 479 -187q121 172 298 346.5t320 240.5q-43 -14 -111.5 -16t-132 3.5t-149.5 12t-142 6.5q-157 0 -230 -97q-54 -73 -35 -158
q18 -81 90 -113q34 -15 75 -15q44 0 75 12.5t46.5 34t22.5 41.5t8 44t21 27q18 3 23 -15q2 -6 1 -13q-3 -17 -14 -38.5t-32.5 -48t-60.5 -44t-89 -17.5q-113 0 -163 83q-46 74 -17 164q31 97 130 143q66 30 150 30q55 0 197 -12.5t218 -12.5q67 0 158 23.5t154 23.5z
M1435 341q99 274 186.5 445t199.5 281q-113 -75 -254 -226t-261 -314q76 -81 129 -186zM1978 1477h9l101 -169h-53q-48 76 -75 114l-138 -114h-30q157 146 186 169z" />
    <glyph glyph-name="Atilde" unicode="&#xc3;" horiz-adv-x="1556" 
d="M2100 1179q42 0 66.5 -13t18.5 -30q-5 -12 -18.5 -14t-25.5 4q-32 15 -59.5 22.5t-62 7t-68.5 -17.5t-73 -49t-82 -89.5t-88 -137.5q-82 -145 -265 -655q-36 -99 -35 -132q0 -41 35 -43q46 -3 95 78q2 5 6 2q2 -2 1 -6q-17 -45 -55 -80.5t-81 -32.5q-28 2 -43 18
t-17 35.5t3 47t10 42t11 29.5q35 97 19 137q-45 109 -114 188q-167 -219 -241 -300q-176 -193 -344 -244q-72 -22 -150 -22q-122 0 -218 45t-150 116t-73.5 161.5t0 180t81 173t158.5 138.5q24 14 35 -2q10 -15 -7 -27l-4 -2q-7 -3 -21 -4t-33.5 -11.5t-48.5 -39.5
q-42 -42 -70.5 -101.5t-38 -125.5t-4 -135t34.5 -131t74.5 -110.5t119 -77.5t164.5 -29q61 0 121 17.5t111.5 44.5t108 73t99.5 88.5t97.5 107t92 113.5t90.5 121q-90 95 -213.5 145t-254.5 50q-194 0 -307 -125q-87 -95 -88 -218q-2 -118 77 -186q64 -55 165 -55
q72 0 97 43q11 19 30 10q17 -9 7 -27q-2 -3 -5 -6q-35 -35 -130 -35q-153 0 -221 108q-60 95 -29 221q33 132 146 216q114 83 274 83q290 0 479 -187q121 172 298 346.5t320 240.5q-43 -14 -111.5 -16t-132 3.5t-149.5 12t-142 6.5q-157 0 -230 -97q-54 -73 -35 -158
q18 -81 90 -113q34 -15 75 -15q44 0 75 12.5t46.5 34t22.5 41.5t8 44t21 27q18 3 23 -15q2 -6 1 -13q-3 -17 -14 -38.5t-32.5 -48t-60.5 -44t-89 -17.5q-113 0 -163 83q-46 74 -17 164q31 97 130 143q66 30 150 30q55 0 197 -12.5t218 -12.5q67 0 158 23.5t154 23.5z
M1435 341q99 274 186.5 445t199.5 281q-113 -75 -254 -226t-261 -314q76 -81 129 -186zM1849 1297q-10 0 -16.5 8t-6.5 19q0 30 23.5 49.5t60.5 19.5q31 0 75 -30.5t72 -30.5q36 0 55.5 17t19.5 41q9 0 17 -7t8 -17q0 -31 -24 -50.5t-59 -19.5q-24 0 -77 30t-78 30
q-36 0 -53 -17.5t-17 -41.5z" />
    <glyph glyph-name="Adieresis" unicode="&#xc4;" horiz-adv-x="1556" 
d="M2100 1179q42 0 66.5 -13t18.5 -30q-5 -12 -18.5 -14t-25.5 4q-32 15 -59.5 22.5t-62 7t-68.5 -17.5t-73 -49t-82 -89.5t-88 -137.5q-82 -145 -265 -655q-36 -99 -35 -132q0 -41 35 -43q46 -3 95 78q2 5 6 2q2 -2 1 -6q-17 -45 -55 -80.5t-81 -32.5q-28 2 -43 18
t-17 35.5t3 47t10 42t11 29.5q35 97 19 137q-45 109 -114 188q-167 -219 -241 -300q-176 -193 -344 -244q-72 -22 -150 -22q-122 0 -218 45t-150 116t-73.5 161.5t0 180t81 173t158.5 138.5q24 14 35 -2q10 -15 -7 -27l-4 -2q-7 -3 -21 -4t-33.5 -11.5t-48.5 -39.5
q-42 -42 -70.5 -101.5t-38 -125.5t-4 -135t34.5 -131t74.5 -110.5t119 -77.5t164.5 -29q61 0 121 17.5t111.5 44.5t108 73t99.5 88.5t97.5 107t92 113.5t90.5 121q-90 95 -213.5 145t-254.5 50q-194 0 -307 -125q-87 -95 -88 -218q-2 -118 77 -186q64 -55 165 -55
q72 0 97 43q11 19 30 10q17 -9 7 -27q-2 -3 -5 -6q-35 -35 -130 -35q-153 0 -221 108q-60 95 -29 221q33 132 146 216q114 83 274 83q290 0 479 -187q121 172 298 346.5t320 240.5q-43 -14 -111.5 -16t-132 3.5t-149.5 12t-142 6.5q-157 0 -230 -97q-54 -73 -35 -158
q18 -81 90 -113q34 -15 75 -15q44 0 75 12.5t46.5 34t22.5 41.5t8 44t21 27q18 3 23 -15q2 -6 1 -13q-3 -17 -14 -38.5t-32.5 -48t-60.5 -44t-89 -17.5q-113 0 -163 83q-46 74 -17 164q31 97 130 143q66 30 150 30q55 0 197 -12.5t218 -12.5q67 0 158 23.5t154 23.5z
M1435 341q99 274 186.5 445t199.5 281q-113 -75 -254 -226t-261 -314q76 -81 129 -186zM1845 1334q-17 0 -29 12t-12 29t12 29t29 12q16 0 28.5 -12t12.5 -29t-12.5 -29t-28.5 -12zM2078 1334q-17 0 -29 12t-12 29t12 29t29 12t29 -12t12 -29t-12 -29t-29 -12z" />
    <glyph glyph-name="Aring" unicode="&#xc5;" horiz-adv-x="1556" 
d="M2100 1179q42 0 66.5 -13t18.5 -30q-5 -12 -18.5 -14t-25.5 4q-32 15 -59.5 22.5t-62 7t-68.5 -17.5t-73 -49t-82 -89.5t-88 -137.5q-82 -145 -265 -655q-36 -99 -35 -132q0 -41 35 -43q46 -3 95 78q2 5 6 2q2 -2 1 -6q-17 -45 -55 -80.5t-81 -32.5q-28 2 -43 18
t-17 35.5t3 47t10 42t11 29.5q35 97 19 137q-45 109 -114 188q-167 -219 -241 -300q-176 -193 -344 -244q-72 -22 -150 -22q-122 0 -218 45t-150 116t-73.5 161.5t0 180t81 173t158.5 138.5q24 14 35 -2q10 -15 -7 -27l-4 -2q-7 -3 -21 -4t-33.5 -11.5t-48.5 -39.5
q-42 -42 -70.5 -101.5t-38 -125.5t-4 -135t34.5 -131t74.5 -110.5t119 -77.5t164.5 -29q61 0 121 17.5t111.5 44.5t108 73t99.5 88.5t97.5 107t92 113.5t90.5 121q-90 95 -213.5 145t-254.5 50q-194 0 -307 -125q-87 -95 -88 -218q-2 -118 77 -186q64 -55 165 -55
q72 0 97 43q11 19 30 10q17 -9 7 -27q-2 -3 -5 -6q-35 -35 -130 -35q-153 0 -221 108q-60 95 -29 221q33 132 146 216q114 83 274 83q290 0 479 -187q121 172 298 346.5t320 240.5q-43 -14 -111.5 -16t-132 3.5t-149.5 12t-142 6.5q-157 0 -230 -97q-54 -73 -35 -158
q18 -81 90 -113q34 -15 75 -15q44 0 75 12.5t46.5 34t22.5 41.5t8 44t21 27q18 3 23 -15q2 -6 1 -13q-3 -17 -14 -38.5t-32.5 -48t-60.5 -44t-89 -17.5q-113 0 -163 83q-46 74 -17 164q31 97 130 143q66 30 150 30q55 0 197 -12.5t218 -12.5q67 0 158 23.5t154 23.5z
M1435 341q99 274 186.5 445t199.5 281q-113 -75 -254 -226t-261 -314q76 -81 129 -186zM2054 1425q-8 -49 -47 -73t-90 -26q-45 -1 -65.5 27t-9.5 63q23 75 106 92q48 10 80 -16.5t26 -66.5zM1977 1495q-29 7 -52.5 -12.5t-36.5 -53.5q-12 -29 -3.5 -54.5t34.5 -32.5
q28 -7 52.5 13t34.5 54q11 31 3.5 55t-32.5 31z" />
    <glyph glyph-name="AE" unicode="&#xc6;" horiz-adv-x="2087" 
d="M2194 1155q108 0 131 -67q22 -66 -47 -151q-89 -112 -266 -172q-106 -36 -229 -45q18 -54 75.5 -77t101.5 -11q6 1 10 0.5t4 -3t-3 -6.5q-11 -11 -43 -15q-263 -28 -391 -183q-92 -112 -83 -246q8 -117 90 -183q59 -48 140 -51q-21 118 22 240.5t126.5 200.5t173.5 78
q83 0 103 -81q22 -86 -35 -200q-65 -132 -187 -202q-83 -47 -179 -54q33 -130 155 -217q6 -4 5 -9.5t-6 -7.5t-11 1q-129 88 -163 232q-135 -4 -214.5 73t-79.5 185q0 47 -10.5 92t-21.5 72t-35 61.5t-32 44t-33 37.5q-167 -219 -241 -300q-176 -193 -344 -244
q-72 -22 -150 -22q-122 0 -218 45t-150 116t-73.5 161.5t0 180t81 173t158.5 138.5q24 14 35 -2q10 -15 -7 -27l-4 -2q-7 -3 -21 -4t-33.5 -11.5t-48.5 -39.5q-42 -42 -70.5 -101.5t-38 -125.5t-4 -135t34.5 -131t74.5 -110.5t119 -77.5t164.5 -29q61 0 121 17.5t111.5 44.5
t108 73t99.5 88.5t97.5 107t92 113.5t90.5 121q-90 95 -213.5 145t-254.5 50q-194 0 -307 -125q-87 -95 -88 -218q-2 -118 77 -186q64 -55 165 -55q72 0 97 43q11 19 30 10q17 -9 7 -27q-2 -3 -5 -6q-35 -35 -130 -35q-153 0 -221 108q-60 95 -29 221q33 132 146 216
q114 83 274 83q290 0 479 -187q79 111 180 224q-18 7 -52 25q-56 -56 -144 -56q-57 0 -100 23.5t-64 60.5t-24.5 83.5t12.5 90t54.5 82.5t94.5 59q40 100 158 152t244 52q110 0 145 -14q16 -6 18.5 -19t-8.5 -21t-28 -2q-7 3 -15.5 11t-16.5 14.5t-32.5 11.5t-63.5 5
q-124 0 -218.5 -46.5t-131.5 -129.5q34 7 76 7q55 0 197 -12.5t218 -12.5q67 0 158 23.5t154 23.5q67 0 83 -26q4 0 13 0.5t14 0.5zM1990 429q-53 0 -111.5 -43.5t-102.5 -110.5t-66 -157t-6 -173q155 4 270 132q86 95 105 204q17 99 -37 134q-22 14 -52 14zM2098 1140
q-35 14 -67.5 17t-73 -9.5t-80 -44t-87.5 -92t-98 -148.5q-25 -45 -60 -126q47 -5 85 -5q-8 57 24 122.5t88 120.5t127.5 99.5t141.5 65.5zM1585 745q100 204 220 323q-131 -87 -316 -294q49 -19 96 -29zM1256 755q86 0 125 50q-55 33 -95.5 76t-61.5 105.5t-2 127.5
q-58 -24 -93.5 -69.5t-40 -94t10.5 -93t57 -73.5t100 -29zM1416 810q28 -16 51 -26q240 263 424 348q-43 -14 -111.5 -16t-132 3.5t-149.5 12t-142 6.5q-43 0 -83 -8q-31 -100 8 -177.5t112 -127.5q13 28 15 62q1 24 21 27q18 3 23 -15q2 -6 1 -13q-5 -36 -37 -76zM1477 760
q-98 -111 -187 -232q76 -81 129 -186q88 244 159 389q-58 12 -101 29zM1820 609q-37 8 -63.5 37t-36.5 71q-44 -1 -94 5q-54 -126 -111 -277q76 73 174.5 118.5t130.5 45.5zM1780 734q237 17 387 136q96 76 111 156q13 70 -47 95q-25 11 -60 11q-42 0 -96.5 -19t-109.5 -56
t-99.5 -84.5t-69 -110.5t-16.5 -128z" />
    <glyph glyph-name="Ccedilla" unicode="&#xc7;" horiz-adv-x="930" 
d="M1035 1168q95 0 124 -79q31 -85 -29 -205q-73 -148 -241 -251q-238 -146 -577 -141q-30 -74 -34 -165t17.5 -173t80.5 -137.5t146 -55.5q47 0 88.5 9t74 26.5t57.5 35t47 42.5t34 39.5t26 37t16 24.5q8 12 17 5q4 -5 1 -12q-18 -30 -31.5 -50.5t-48.5 -59t-71 -62.5
t-93 -43.5t-120 -19.5h-6q-5 -13 -5 -100q0 -47 -30 -80t-68 -33q-51 0 -73.5 41t8.5 73l8 -8q-21 -22 -8 -45.5t43 -23.5q35 0 57 21t29 45.5t14.5 60.5t12.5 50q-100 5 -167 61.5t-91.5 140.5t-21 179t35.5 182q-148 19 -247.5 104.5t-99.5 208.5q0 87 47.5 176.5
t134 165.5t224.5 124t301 48q34 0 38 -22q4 -18 -15 -26q-14 -6 -31 2q-44 17 -98 17q-64 0 -136 -19t-144.5 -59t-130.5 -95.5t-94.5 -137t-36.5 -174.5q0 -107 84 -188.5t213 -101.5q66 158 197 308t287 245t285 95zM986 1131q-100 0 -233 -85t-254.5 -230.5
t-178.5 -300.5q350 -3 586 158q148 100 202 228q46 108 1 175q-36 55 -123 55z" />
    <glyph glyph-name="Egrave" unicode="&#xc8;" horiz-adv-x="797" 
d="M848 1171q108 0 131 -67q22 -66 -47 -151q-89 -112 -266 -172q-106 -36 -229 -45q18 -54 75.5 -77t101.5 -11q6 1 10 0.5t4 -3t-3 -6.5q-11 -11 -43 -15q-263 -28 -391 -183q-92 -112 -83 -246q8 -117 90 -183q59 -48 140 -51q-21 118 22 240.5t126.5 200.5t173.5 78
q83 0 103 -81q22 -86 -35 -200q-65 -132 -187 -202q-83 -47 -179 -54q33 -130 155 -217q6 -4 5 -9.5t-6 -7.5t-11 1q-129 88 -163 232q-135 -4 -214.5 73t-79.5 185q0 60 21.5 115.5t55.5 97t77.5 77.5t86.5 60t82.5 41.5t66 25.5t36.5 8q-37 8 -63.5 37t-36.5 71
q-122 -2 -239 40.5t-192.5 120t-75.5 168.5q0 61 27 111.5t70 84t98.5 56.5t112 33t111.5 10q110 0 145 -14q16 -6 18.5 -19t-8.5 -21t-28 -2q-7 3 -15.5 11t-16.5 14.5t-32.5 11.5t-63.5 5q-159 0 -264.5 -74t-105.5 -201q0 -94 67.5 -169t170.5 -113.5t218 -37.5
q-9 67 36.5 144t117.5 137.5t161 101t162 40.5zM644 445q-53 0 -111.5 -43.5t-102.5 -110.5t-66 -157t-6 -173q155 4 270 132q86 95 105 204q17 99 -37 134q-22 14 -52 14zM434 750q237 17 387 136q96 76 111 156q13 70 -47 95q-25 11 -60 11q-42 0 -96.5 -19t-109.5 -56
t-99.5 -84.5t-69 -110.5t-16.5 -128zM900 1507q-36 -22 -51 -45.5t-12 -39.5t8.5 -37.5t3.5 -33.5q-5 -41 -43 -38q-11 0 -24.5 9.5t-13.5 27.5q-1 51 41 97.5t84 69.5q11 6 12 -3q0 -4 -5 -7z" />
    <glyph glyph-name="Eacute" unicode="&#xc9;" horiz-adv-x="797" 
d="M893 1325q37 22 51.5 45t12 39t-8 38t-4.5 34q3 22 16 30.5t27 7.5q11 0 24.5 -9.5t14.5 -27.5q1 -51 -41 -97.5t-85 -69.5q-10 -7 -12 2q0 5 5 8zM848 1171q108 0 131 -67q22 -66 -47 -151q-89 -112 -266 -172q-106 -36 -229 -45q18 -54 75.5 -77t101.5 -11q6 1 10 0.5
t4 -3t-3 -6.5q-11 -11 -43 -15q-263 -28 -391 -183q-92 -112 -83 -246q8 -117 90 -183q59 -48 140 -51q-21 118 22 240.5t126.5 200.5t173.5 78q83 0 103 -81q22 -86 -35 -200q-65 -132 -187 -202q-83 -47 -179 -54q33 -130 155 -217q6 -4 5 -9.5t-6 -7.5t-11 1
q-129 88 -163 232q-135 -4 -214.5 73t-79.5 185q0 60 21.5 115.5t55.5 97t77.5 77.5t86.5 60t82.5 41.5t66 25.5t36.5 8q-37 8 -63.5 37t-36.5 71q-122 -2 -239 40.5t-192.5 120t-75.5 168.5q0 61 27 111.5t70 84t98.5 56.5t112 33t111.5 10q110 0 145 -14q16 -6 18.5 -19
t-8.5 -21t-28 -2q-7 3 -15.5 11t-16.5 14.5t-32.5 11.5t-63.5 5q-159 0 -264.5 -74t-105.5 -201q0 -94 67.5 -169t170.5 -113.5t218 -37.5q-9 67 36.5 144t117.5 137.5t161 101t162 40.5zM644 445q-53 0 -111.5 -43.5t-102.5 -110.5t-66 -157t-6 -173q155 4 270 132
q86 95 105 204q17 99 -37 134q-22 14 -52 14zM434 750q237 17 387 136q96 76 111 156q13 70 -47 95q-25 11 -60 11q-42 0 -96.5 -19t-109.5 -56t-99.5 -84.5t-69 -110.5t-16.5 -128z" />
    <glyph glyph-name="Ecircumflex" unicode="&#xca;" horiz-adv-x="797" 
d="M848 1171q108 0 131 -67q22 -66 -47 -151q-89 -112 -266 -172q-106 -36 -229 -45q18 -54 75.5 -77t101.5 -11q6 1 10 0.5t4 -3t-3 -6.5q-11 -11 -43 -15q-263 -28 -391 -183q-92 -112 -83 -246q8 -117 90 -183q59 -48 140 -51q-21 118 22 240.5t126.5 200.5t173.5 78
q83 0 103 -81q22 -86 -35 -200q-65 -132 -187 -202q-83 -47 -179 -54q33 -130 155 -217q6 -4 5 -9.5t-6 -7.5t-11 1q-129 88 -163 232q-135 -4 -214.5 73t-79.5 185q0 60 21.5 115.5t55.5 97t77.5 77.5t86.5 60t82.5 41.5t66 25.5t36.5 8q-37 8 -63.5 37t-36.5 71
q-122 -2 -239 40.5t-192.5 120t-75.5 168.5q0 61 27 111.5t70 84t98.5 56.5t112 33t111.5 10q110 0 145 -14q16 -6 18.5 -19t-8.5 -21t-28 -2q-7 3 -15.5 11t-16.5 14.5t-32.5 11.5t-63.5 5q-159 0 -264.5 -74t-105.5 -201q0 -94 67.5 -169t170.5 -113.5t218 -37.5
q-9 67 36.5 144t117.5 137.5t161 101t162 40.5zM644 445q-53 0 -111.5 -43.5t-102.5 -110.5t-66 -157t-6 -173q155 4 270 132q86 95 105 204q17 99 -37 134q-22 14 -52 14zM434 750q237 17 387 136q96 76 111 156q13 70 -47 95q-25 11 -60 11q-42 0 -96.5 -19t-109.5 -56
t-99.5 -84.5t-69 -110.5t-16.5 -128zM847 1479h9l101 -169h-53q-48 76 -75 114l-138 -114h-30q157 146 186 169z" />
    <glyph glyph-name="Edieresis" unicode="&#xcb;" horiz-adv-x="797" 
d="M848 1171q108 0 131 -67q22 -66 -47 -151q-89 -112 -266 -172q-106 -36 -229 -45q18 -54 75.5 -77t101.5 -11q6 1 10 0.5t4 -3t-3 -6.5q-11 -11 -43 -15q-263 -28 -391 -183q-92 -112 -83 -246q8 -117 90 -183q59 -48 140 -51q-21 118 22 240.5t126.5 200.5t173.5 78
q83 0 103 -81q22 -86 -35 -200q-65 -132 -187 -202q-83 -47 -179 -54q33 -130 155 -217q6 -4 5 -9.5t-6 -7.5t-11 1q-129 88 -163 232q-135 -4 -214.5 73t-79.5 185q0 60 21.5 115.5t55.5 97t77.5 77.5t86.5 60t82.5 41.5t66 25.5t36.5 8q-37 8 -63.5 37t-36.5 71
q-122 -2 -239 40.5t-192.5 120t-75.5 168.5q0 61 27 111.5t70 84t98.5 56.5t112 33t111.5 10q110 0 145 -14q16 -6 18.5 -19t-8.5 -21t-28 -2q-7 3 -15.5 11t-16.5 14.5t-32.5 11.5t-63.5 5q-159 0 -264.5 -74t-105.5 -201q0 -94 67.5 -169t170.5 -113.5t218 -37.5
q-9 67 36.5 144t117.5 137.5t161 101t162 40.5zM644 445q-53 0 -111.5 -43.5t-102.5 -110.5t-66 -157t-6 -173q155 4 270 132q86 95 105 204q17 99 -37 134q-22 14 -52 14zM434 750q237 17 387 136q96 76 111 156q13 70 -47 95q-25 11 -60 11q-42 0 -96.5 -19t-109.5 -56
t-99.5 -84.5t-69 -110.5t-16.5 -128zM692 1332q-17 0 -29 12t-12 29t12 29t29 12q16 0 28.5 -12t12.5 -29t-12.5 -29t-28.5 -12zM925 1332q-17 0 -29 12t-12 29t12 29t29 12t29 -12t12 -29t-12 -29t-29 -12z" />
    <glyph glyph-name="Igrave" unicode="&#xcc;" horiz-adv-x="1032" 
d="M1276 1505q-36 -22 -51 -45.5t-12 -39.5t8.5 -37.5t3.5 -33.5q-5 -41 -43 -38q-11 0 -24.5 9.5t-13.5 27.5q-1 51 41 97.5t84 69.5q11 6 12 -3q0 -4 -5 -7zM485 -48q-123 0 -218 43t-148 111.5t-71.5 157t1.5 177t82 175t160 147.5q30 19 43 0q10 -16 -3 -28
q-6 -4 -13 -5q-2 0 -11 -1t-14 -2t-14.5 -3.5t-18 -7.5t-19.5 -13.5t-23.5 -21.5t-26.5 -30q-45 -58 -70 -131.5t-27.5 -148.5t21.5 -146.5t69 -127t122.5 -89.5t175.5 -34q103 0 183.5 39.5t131 105t91.5 152t66.5 179t55.5 188.5t57.5 177t73.5 147t104 98
q-64 -14 -146 -7t-144 20.5t-133.5 27t-113.5 13.5q-131 0 -204 -97q-60 -82 -48 -182q13 -103 99 -153q56 -32 133 -32q17 0 32.5 1.5t27.5 4t22.5 7t18 8t14.5 9t11 9t8.5 9.5t5.5 8.5t4 7.5l3 5q8 12 20 12t16 -10t-6 -25q-23 -31 -71.5 -48t-106.5 -17q-154 0 -221 104
q-55 85 -27 193q27 107 119 164q66 41 151 41q58 0 132 -14.5t131 -27.5t152.5 -16.5t196.5 17.5q18 4 19 -8q-1 -8 -11 -12q-55 -15 -99 -63t-74.5 -116t-57.5 -152.5t-54.5 -174t-59 -178t-76 -167t-100.5 -139t-138.5 -95.5t-184.5 -35z" />
    <glyph glyph-name="Iacute" unicode="&#xcd;" horiz-adv-x="1032" 
d="M1238 1319q37 22 51.5 45t12 39t-8 38t-4.5 34q3 22 16 30.5t27 7.5q11 0 24.5 -9.5t14.5 -27.5q1 -51 -41 -97.5t-85 -69.5q-10 -7 -12 2q0 5 5 8zM485 -48q-123 0 -218 43t-148 111.5t-71.5 157t1.5 177t82 175t160 147.5q30 19 43 0q10 -16 -3 -28q-6 -4 -13 -5
q-2 0 -11 -1t-14 -2t-14.5 -3.5t-18 -7.5t-19.5 -13.5t-23.5 -21.5t-26.5 -30q-45 -58 -70 -131.5t-27.5 -148.5t21.5 -146.5t69 -127t122.5 -89.5t175.5 -34q103 0 183.5 39.5t131 105t91.5 152t66.5 179t55.5 188.5t57.5 177t73.5 147t104 98q-64 -14 -146 -7t-144 20.5
t-133.5 27t-113.5 13.5q-131 0 -204 -97q-60 -82 -48 -182q13 -103 99 -153q56 -32 133 -32q17 0 32.5 1.5t27.5 4t22.5 7t18 8t14.5 9t11 9t8.5 9.5t5.5 8.5t4 7.5l3 5q8 12 20 12t16 -10t-6 -25q-23 -31 -71.5 -48t-106.5 -17q-154 0 -221 104q-55 85 -27 193
q27 107 119 164q66 41 151 41q58 0 132 -14.5t131 -27.5t152.5 -16.5t196.5 17.5q18 4 19 -8q-1 -8 -11 -12q-55 -15 -99 -63t-74.5 -116t-57.5 -152.5t-54.5 -174t-59 -178t-76 -167t-100.5 -139t-138.5 -95.5t-184.5 -35z" />
    <glyph glyph-name="Icircumflex" unicode="&#xce;" horiz-adv-x="1032" 
d="M485 -48q-123 0 -218 43t-148 111.5t-71.5 157t1.5 177t82 175t160 147.5q30 19 43 0q10 -16 -3 -28q-6 -4 -13 -5q-2 0 -11 -1t-14 -2t-14.5 -3.5t-18 -7.5t-19.5 -13.5t-23.5 -21.5t-26.5 -30q-45 -58 -70 -131.5t-27.5 -148.5t21.5 -146.5t69 -127t122.5 -89.5
t175.5 -34q103 0 183.5 39.5t131 105t91.5 152t66.5 179t55.5 188.5t57.5 177t73.5 147t104 98q-64 -14 -146 -7t-144 20.5t-133.5 27t-113.5 13.5q-131 0 -204 -97q-60 -82 -48 -182q13 -103 99 -153q56 -32 133 -32q17 0 32.5 1.5t27.5 4t22.5 7t18 8t14.5 9t11 9t8.5 9.5
t5.5 8.5t4 7.5l3 5q8 12 20 12t16 -10t-6 -25q-23 -31 -71.5 -48t-106.5 -17q-154 0 -221 104q-55 85 -27 193q27 107 119 164q66 41 151 41q58 0 132 -14.5t131 -27.5t152.5 -16.5t196.5 17.5q18 4 19 -8q-1 -8 -11 -12q-55 -15 -99 -63t-74.5 -116t-57.5 -152.5
t-54.5 -174t-59 -178t-76 -167t-100.5 -139t-138.5 -95.5t-184.5 -35zM1175 1479h9l101 -169h-53q-48 76 -75 114l-138 -114h-30q157 146 186 169z" />
    <glyph glyph-name="Idieresis" unicode="&#xcf;" horiz-adv-x="1032" 
d="M485 -48q-123 0 -218 43t-148 111.5t-71.5 157t1.5 177t82 175t160 147.5q30 19 43 0q10 -16 -3 -28q-6 -4 -13 -5q-2 0 -11 -1t-14 -2t-14.5 -3.5t-18 -7.5t-19.5 -13.5t-23.5 -21.5t-26.5 -30q-45 -58 -70 -131.5t-27.5 -148.5t21.5 -146.5t69 -127t122.5 -89.5
t175.5 -34q103 0 183.5 39.5t131 105t91.5 152t66.5 179t55.5 188.5t57.5 177t73.5 147t104 98q-64 -14 -146 -7t-144 20.5t-133.5 27t-113.5 13.5q-131 0 -204 -97q-60 -82 -48 -182q13 -103 99 -153q56 -32 133 -32q17 0 32.5 1.5t27.5 4t22.5 7t18 8t14.5 9t11 9t8.5 9.5
t5.5 8.5t4 7.5l3 5q8 12 20 12t16 -10t-6 -25q-23 -31 -71.5 -48t-106.5 -17q-154 0 -221 104q-55 85 -27 193q27 107 119 164q66 41 151 41q58 0 132 -14.5t131 -27.5t152.5 -16.5t196.5 17.5q18 4 19 -8q-1 -8 -11 -12q-55 -15 -99 -63t-74.5 -116t-57.5 -152.5
t-54.5 -174t-59 -178t-76 -167t-100.5 -139t-138.5 -95.5t-184.5 -35zM1003 1332q-17 0 -29 12t-12 29t12 29t29 12t29 -12t12 -29t-12 -29t-29 -12zM1236 1332q-17 0 -29 12t-12 29t12 29t29 12q16 0 28.5 -12t12.5 -29t-12.5 -29t-28.5 -12z" />
    <glyph glyph-name="Eth" unicode="&#xd0;" horiz-adv-x="1474" 
d="M842 1189q131 0 241 -35.5t184.5 -93t126.5 -132t75.5 -151t23.5 -152.5q0 -181 -81 -343.5t-226 -264t-316 -101.5q-53 0 -114 21t-100.5 43.5t-103.5 62.5q-112 -121 -246 -121q-120 0 -165 66q-34 51 -2 104q38 63 137 71l25 1q96 0 242 -90q40 56 75 142
q-223 -22 -364.5 101t-141.5 307q0 101 52.5 201.5t145 181.5t232.5 131.5t300 50.5zM870 -67q119 0 225 60t178.5 157t115 221t42.5 251q0 208 -119 353t-325 183q-16 3 -24 -22q-5 -13 -26 -83.5t-57 -190.5t-64 -211q82 -9 111 -51q12 -17 10.5 -33.5t-17.5 -20.5
q-19 -5 -57 30t-57 42q-100 -328 -128 -376q103 25 170.5 82.5t67.5 110.5q0 15 11.5 22t23.5 1.5t12 -22.5q0 -39 -86 -111t-207 -100q-50 -102 -104 -166q55 -35 76.5 -47.5t67.5 -36.5t83.5 -33t76.5 -9zM163 622q0 -79 28.5 -152t82.5 -132t145 -89t205 -17
q32 76 131 397q-22 1 -45 -2.5t-35 -7.5l-11 -4q-20 -5 -20 7q0 10 36 20t82 11q91 297 145 496q4 20 -19 21q-133 6 -251 -23t-203 -83t-147.5 -126t-93 -153t-30.5 -163zM305 -62q136 0 225 118q-74 46 -127 70t-102 24q-86 0 -120 -58q-29 -49 0 -97q34 -57 124 -57z" />
    <glyph glyph-name="Ntilde" unicode="&#xd1;" horiz-adv-x="1483" 
d="M2143 1243q64 0 71 -34q5 -23 -16 -35q-19 -11 -40 2q-34 22 -67 28t-78 -7t-98 -50q-333 -233 -651 -1129q-2 -5 -4.5 -13.5t-4 -12t-4.5 -8.5t-8 -7.5t-12 -4.5q-8 -2 -13 3.5t-7.5 13t-5.5 21.5q-35 171 -110 803q-26 -53 -61 -130.5t-59.5 -131.5t-59 -124t-62 -119
t-65 -106t-73 -95.5t-81 -77t-93 -61t-105.5 -36.5t-122 -14q-146 0 -230.5 80.5t-84.5 192.5q0 86 37 155t91.5 106.5t106.5 56.5t93 19q28 0 31 -21q2 -19 -16 -24q-5 -2 -11 -1q-9 1 -27 7t-30 7t-45 -6q-41 -12 -76 -42.5t-59 -71t-36.5 -89.5t-12 -97.5t17.5 -94.5
t48 -81t84 -56t122 -21q77 0 147 24t124 61t106.5 97.5t90 117.5t79 138t68.5 141.5t65 145.5t62 135q20 41 24.5 93.5t-9 104t-40.5 95.5t-75 71t-108 27q-102 0 -194 -44t-153.5 -111.5t-98 -148.5t-36.5 -156q0 -95 68 -158.5t169 -63.5q49 0 83 8.5t47.5 18t29 25
t22.5 20.5q22 15 33.5 -1.5t-10.5 -33.5q-2 -1 -3 -2q-76 -52 -201 -52q-113 0 -186.5 68t-73.5 168q0 82 41 169.5t110 159t169.5 117.5t209.5 46q105 0 170 -66t85 -197q21 -138 56 -429.5t49 -395.5q4 -28 7.5 -37t11.5 -9t20 35q84 226 170.5 407t158.5 296t147.5 199.5
t129.5 126t111.5 65t87 27.5t62.5 4zM1384 1297q-10 0 -16.5 8t-6.5 19q0 30 23.5 49.5t60.5 19.5q31 0 75 -30.5t72 -30.5q36 0 55.5 17t19.5 41q9 0 17 -7t8 -17q0 -31 -24 -50.5t-59 -19.5q-24 0 -77 30t-78 30q-36 0 -53 -17.5t-17 -41.5z" />
    <glyph glyph-name="Ograve" unicode="&#xd2;" horiz-adv-x="888" 
d="M845 1507q-36 -22 -51 -45.5t-12 -39.5t8.5 -37.5t3.5 -33.5q-5 -41 -43 -38q-11 0 -24.5 9.5t-13.5 27.5q-1 51 41 97.5t84 69.5q11 6 12 -3q0 -4 -5 -7zM791 1196q75 0 114.5 -39.5t38 -102t-29.5 -139.5q25 -64 25.5 -149t-21.5 -174t-59.5 -179.5t-92.5 -170
t-117 -142t-136 -98.5t-146 -36q-74 0 -134 36t-100 108.5t-45.5 181.5t30.5 254q-62 40 -94.5 103t-32.5 136q0 76 32.5 141.5t82 107.5t109 72.5t112 43.5t92.5 13q32 0 32 -22q1 -18 -17 -24q-6 -2 -13 -1q-5 1 -30 8t-46 6t-55 -11q-91 -27 -155.5 -80.5t-92.5 -118
t-30 -131t27.5 -126t84.5 -97.5q41 125 120.5 242.5t172 201.5t192.5 135t182 51zM766 1167q-102 0 -223 -93t-220.5 -238.5t-148.5 -297.5q139 -49 281 -5t258 142.5t166 210.5q-28 89 -100 89q-19 0 -25 -19t-1 -40q2 -8 -4 -10.5t-11 6.5q-8 19 -9.5 42.5t17 43
t52.5 19.5q61 0 104 -76q19 63 15 113.5t-43 81.5t-108 31zM369 -14q98 0 189 65t155.5 166.5t110 219t61.5 229.5t1 191q-61 -119 -180.5 -213.5t-259.5 -132t-277 8.5q-36 -147 -27.5 -265.5t69 -193.5t158.5 -75z" />
    <glyph glyph-name="Oacute" unicode="&#xd3;" horiz-adv-x="888" 
d="M871 1324q37 22 51.5 45t12 39t-8 38t-4.5 34q3 22 16 30.5t27 7.5q11 0 24.5 -9.5t14.5 -27.5q1 -51 -41 -97.5t-85 -69.5q-10 -7 -12 2q0 5 5 8zM791 1196q75 0 114.5 -39.5t38 -102t-29.5 -139.5q25 -64 25.5 -149t-21.5 -174t-59.5 -179.5t-92.5 -170t-117 -142
t-136 -98.5t-146 -36q-74 0 -134 36t-100 108.5t-45.5 181.5t30.5 254q-62 40 -94.5 103t-32.5 136q0 76 32.5 141.5t82 107.5t109 72.5t112 43.5t92.5 13q32 0 32 -22q1 -18 -17 -24q-6 -2 -13 -1q-5 1 -30 8t-46 6t-55 -11q-91 -27 -155.5 -80.5t-92.5 -118t-30 -131
t27.5 -126t84.5 -97.5q41 125 120.5 242.5t172 201.5t192.5 135t182 51zM766 1167q-102 0 -223 -93t-220.5 -238.5t-148.5 -297.5q139 -49 281 -5t258 142.5t166 210.5q-28 89 -100 89q-19 0 -25 -19t-1 -40q2 -8 -4 -10.5t-11 6.5q-8 19 -9.5 42.5t17 43t52.5 19.5
q61 0 104 -76q19 63 15 113.5t-43 81.5t-108 31zM369 -14q98 0 189 65t155.5 166.5t110 219t61.5 229.5t1 191q-61 -119 -180.5 -213.5t-259.5 -132t-277 8.5q-36 -147 -27.5 -265.5t69 -193.5t158.5 -75z" />
    <glyph glyph-name="Ocircumflex" unicode="&#xd4;" horiz-adv-x="888" 
d="M791 1196q75 0 114.5 -39.5t38 -102t-29.5 -139.5q25 -64 25.5 -149t-21.5 -174t-59.5 -179.5t-92.5 -170t-117 -142t-136 -98.5t-146 -36q-74 0 -134 36t-100 108.5t-45.5 181.5t30.5 254q-62 40 -94.5 103t-32.5 136q0 76 32.5 141.5t82 107.5t109 72.5t112 43.5
t92.5 13q32 0 32 -22q1 -18 -17 -24q-6 -2 -13 -1q-5 1 -30 8t-46 6t-55 -11q-91 -27 -155.5 -80.5t-92.5 -118t-30 -131t27.5 -126t84.5 -97.5q41 125 120.5 242.5t172 201.5t192.5 135t182 51zM766 1167q-102 0 -223 -93t-220.5 -238.5t-148.5 -297.5q139 -49 281 -5
t258 142.5t166 210.5q-28 89 -100 89q-19 0 -25 -19t-1 -40q2 -8 -4 -10.5t-11 6.5q-8 19 -9.5 42.5t17 43t52.5 19.5q61 0 104 -76q19 63 15 113.5t-43 81.5t-108 31zM369 -14q98 0 189 65t155.5 166.5t110 219t61.5 229.5t1 191q-61 -119 -180.5 -213.5t-259.5 -132
t-277 8.5q-36 -147 -27.5 -265.5t69 -193.5t158.5 -75zM798 1479h9l101 -169h-53q-48 76 -75 114l-138 -114h-30q157 146 186 169z" />
    <glyph glyph-name="Otilde" unicode="&#xd5;" horiz-adv-x="888" 
d="M791 1196q75 0 114.5 -39.5t38 -102t-29.5 -139.5q25 -64 25.5 -149t-21.5 -174t-59.5 -179.5t-92.5 -170t-117 -142t-136 -98.5t-146 -36q-74 0 -134 36t-100 108.5t-45.5 181.5t30.5 254q-62 40 -94.5 103t-32.5 136q0 76 32.5 141.5t82 107.5t109 72.5t112 43.5
t92.5 13q32 0 32 -22q1 -18 -17 -24q-6 -2 -13 -1q-5 1 -30 8t-46 6t-55 -11q-91 -27 -155.5 -80.5t-92.5 -118t-30 -131t27.5 -126t84.5 -97.5q41 125 120.5 242.5t172 201.5t192.5 135t182 51zM766 1167q-102 0 -223 -93t-220.5 -238.5t-148.5 -297.5q139 -49 281 -5
t258 142.5t166 210.5q-28 89 -100 89q-19 0 -25 -19t-1 -40q2 -8 -4 -10.5t-11 6.5q-8 19 -9.5 42.5t17 43t52.5 19.5q61 0 104 -76q19 63 15 113.5t-43 81.5t-108 31zM369 -14q98 0 189 65t155.5 166.5t110 219t61.5 229.5t1 191q-61 -119 -180.5 -213.5t-259.5 -132
t-277 8.5q-36 -147 -27.5 -265.5t69 -193.5t158.5 -75zM620 1293q-10 0 -16.5 8t-6.5 19q0 30 23.5 49.5t60.5 19.5q31 0 75 -30.5t72 -30.5q36 0 55.5 17t19.5 41q9 0 17 -7t8 -17q0 -31 -24 -50.5t-59 -19.5q-24 0 -77 30t-78 30q-36 0 -53 -17.5t-17 -41.5z" />
    <glyph glyph-name="Odieresis" unicode="&#xd6;" horiz-adv-x="888" 
d="M791 1196q75 0 114.5 -39.5t38 -102t-29.5 -139.5q25 -64 25.5 -149t-21.5 -174t-59.5 -179.5t-92.5 -170t-117 -142t-136 -98.5t-146 -36q-74 0 -134 36t-100 108.5t-45.5 181.5t30.5 254q-62 40 -94.5 103t-32.5 136q0 76 32.5 141.5t82 107.5t109 72.5t112 43.5
t92.5 13q32 0 32 -22q1 -18 -17 -24q-6 -2 -13 -1q-5 1 -30 8t-46 6t-55 -11q-91 -27 -155.5 -80.5t-92.5 -118t-30 -131t27.5 -126t84.5 -97.5q41 125 120.5 242.5t172 201.5t192.5 135t182 51zM766 1167q-102 0 -223 -93t-220.5 -238.5t-148.5 -297.5q139 -49 281 -5
t258 142.5t166 210.5q-28 89 -100 89q-19 0 -25 -19t-1 -40q2 -8 -4 -10.5t-11 6.5q-8 19 -9.5 42.5t17 43t52.5 19.5q61 0 104 -76q19 63 15 113.5t-43 81.5t-108 31zM369 -14q98 0 189 65t155.5 166.5t110 219t61.5 229.5t1 191q-61 -119 -180.5 -213.5t-259.5 -132
t-277 8.5q-36 -147 -27.5 -265.5t69 -193.5t158.5 -75zM671 1334q-17 0 -29 12t-12 29t12 29t29 12t29 -12t12 -29t-12 -29t-29 -12zM904 1334q-17 0 -29 12t-12 29t12 29t29 12q16 0 28.5 -12t12.5 -29t-12.5 -29t-28.5 -12z" />
    <glyph glyph-name="multiply" unicode="&#xd7;" horiz-adv-x="594" 
d="M520 430l-184 -143l96 -135h-45l-80 112l-146 -113h-54l181 140l-99 139h45l83 -116l149 116h54z" />
    <glyph glyph-name="Oslash" unicode="&#xd8;" horiz-adv-x="858" 
d="M791 1196q11 0 16 -1q13 42 7 70q0 16 17 -2q21 -23 14 -74q77 -20 94 -98.5t-25 -175.5q25 -64 25.5 -149t-21.5 -174t-59.5 -179.5t-92.5 -170t-117 -142t-136 -98.5t-146 -36q-37 0 -75 11q-11 -23 -19 -43q-40 -96 -32 -137q2 -7 -4 -7q-6 1 -13 9q-39 50 12 163
q4 9 14 31q-68 34 -110 104.5t-52.5 184t30.5 264.5q-62 40 -94.5 103t-32.5 136q0 76 32.5 141.5t82 107.5t109 72.5t112 43.5t92.5 13q32 0 32 -22q1 -18 -17 -24q-6 -2 -13 -1q-5 1 -30 8t-46 6t-55 -11q-91 -27 -155.5 -80.5t-92.5 -118t-30 -131t27.5 -126t84.5 -97.5
q41 125 120.5 242.5t172 201.5t192.5 135t182 51zM369 -14q98 0 189 65t155.5 166.5t110 219t61.5 229.5t1 191q-47 -93 -133 -173t-191 -130l-261 -557q33 -11 68 -11zM766 1167q-102 0 -223 -93t-220.5 -238.5t-148.5 -297.5q154 -61 340 15q257 547 267 571q14 35 16 41
q-20 2 -31 2zM261 16l241 513q-182 -66 -333 -9q-47 -170 -21.5 -309.5t113.5 -194.5zM734 920l-158 -338q102 54 183 136t120 168q-28 89 -100 89q-19 0 -25 -19t-1 -40q2 -8 -4 -10.5t-11 6.5q-2 2 -4 8zM818 1101l-40 -86q12 2 20 2q61 0 104 -76q27 74 11 133t-75 81
q-10 -31 -20 -54z" />
    <glyph glyph-name="Ugrave" unicode="&#xd9;" horiz-adv-x="876" 
d="M863 509q17 0 16 -6q-1 -3 -3 -4q-30 -21 -54 -76.5t-80 -214.5q-39 -109 -34 -144q4 -32 34 -32q49 0 95 79q1 2 3 2.5t3.5 -1.5t0.5 -5q-16 -45 -54 -79t-82 -34q-39 0 -54.5 25.5t-6 79.5t45.5 133h-3q-20 -31 -37 -55t-50 -61t-65.5 -61.5t-77.5 -43t-91 -18.5
q-120 0 -120 88q1 54 61 186q2 4 6 14q126 280 169 441q125 460 -196 460q-73 0 -137.5 -28.5t-111 -75t-79 -108t-46 -126.5t-6 -131t34.5 -121t81 -96.5t129 -58.5q39 -6 51.5 -1.5t24 15.5t18.5 12q20 4 26 -10.5t-8 -25.5q-11 -9 -38.5 -13t-65.5 0.5t-79.5 17.5t-81 42
t-71 69t-49.5 104t-15 142q4 100 56.5 193.5t150 156t214.5 62.5q125 0 195.5 -70.5t77.5 -212.5t-71 -354q-21 -58 -50.5 -127t-51 -117.5t-42.5 -101t-29.5 -86.5t-7 -62.5t21.5 -42t58 -13.5q56 0 115.5 38.5t107 97t84 120t56.5 115.5q46 124 112 124zM738 800
q-36 -22 -51 -45.5t-12 -39.5t8.5 -37.5t3.5 -33.5q-5 -41 -43 -38q-11 0 -24.5 9.5t-13.5 27.5q-1 51 41 97.5t84 69.5q11 6 12 -3q-1 -4 -5 -7z" />
    <glyph glyph-name="Uacute" unicode="&#xda;" horiz-adv-x="876" 
d="M704 632q-7 -4 -4 -9.5t11 -0.5q43 23 85 69.5t41 97.5q-1 18 -14.5 27.5t-24.5 9.5q-8 1 -16 -1.5t-16.5 -11.5t-10.5 -25q-1 -12 4.5 -34t8 -38t-12 -39t-51.5 -45zM863 509q17 0 16 -6q-1 -3 -3 -4q-30 -21 -54 -76.5t-80 -214.5q-39 -109 -34 -144q4 -32 34 -32
q49 0 95 79q1 2 3 2.5t3.5 -1.5t0.5 -5q-16 -45 -54 -79t-82 -34q-39 0 -54.5 25.5t-6 79.5t45.5 133h-3q-20 -31 -37 -55t-50 -61t-65.5 -61.5t-77.5 -43t-91 -18.5q-120 0 -120 88q1 54 61 186q2 4 6 14q126 280 169 441q125 460 -196 460q-73 0 -137.5 -28.5t-111 -75
t-79 -108t-46 -126.5t-6 -131t34.5 -121t81 -96.5t129 -58.5q39 -6 51.5 -1.5t24 15.5t18.5 12q20 4 26 -10.5t-8 -25.5q-11 -9 -38.5 -13t-65.5 0.5t-79.5 17.5t-81 42t-71 69t-49.5 104t-15 142q4 100 56.5 193.5t150 156t214.5 62.5q125 0 195.5 -70.5t77.5 -212.5
t-71 -354q-21 -58 -50.5 -127t-51 -117.5t-42.5 -101t-29.5 -86.5t-7 -62.5t21.5 -42t58 -13.5q56 0 115.5 38.5t107 97t84 120t56.5 115.5q46 124 112 124z" />
    <glyph glyph-name="Ucircumflex" unicode="&#xdb;" horiz-adv-x="876" 
d="M863 509q17 0 16 -6q-1 -3 -3 -4q-30 -21 -54 -76.5t-80 -214.5q-39 -109 -34 -144q4 -32 34 -32q49 0 95 79q1 2 3 2.5t3.5 -1.5t0.5 -5q-16 -45 -54 -79t-82 -34q-39 0 -54.5 25.5t-6 79.5t45.5 133h-3q-20 -31 -37 -55t-50 -61t-65.5 -61.5t-77.5 -43t-91 -18.5
q-120 0 -120 88q1 54 61 186q2 4 6 14q126 280 169 441q125 460 -196 460q-73 0 -137.5 -28.5t-111 -75t-79 -108t-46 -126.5t-6 -131t34.5 -121t81 -96.5t129 -58.5q39 -6 51.5 -1.5t24 15.5t18.5 12q20 4 26 -10.5t-8 -25.5q-11 -9 -38.5 -13t-65.5 0.5t-79.5 17.5t-81 42
t-71 69t-49.5 104t-15 142q4 100 56.5 193.5t150 156t214.5 62.5q125 0 195.5 -70.5t77.5 -212.5t-71 -354q-21 -58 -50.5 -127t-51 -117.5t-42.5 -101t-29.5 -86.5t-7 -62.5t21.5 -42t58 -13.5q56 0 115.5 38.5t107 97t84 120t56.5 115.5q46 124 112 124zM735 1345h9
l101 -169h-53q-48 76 -75 114l-138 -114h-30q157 146 186 169z" />
    <glyph glyph-name="Udieresis" unicode="&#xdc;" horiz-adv-x="891" 
d="M617 1199q-17 0 -29 12t-12 29t12 29t29 12q16 0 28.5 -12.5t12.5 -28.5t-12.5 -28.5t-28.5 -12.5zM850 1199q-17 0 -29 12t-12 29t12 29t29 12t29 -12.5t12 -28.5t-12 -28.5t-29 -12.5zM863 509q17 0 16 -6q-1 -3 -3 -4q-30 -21 -54 -76.5t-80 -214.5q-39 -109 -34 -144
q4 -32 34 -32q49 0 95 79q1 2 3 2.5t3.5 -1.5t0.5 -5q-16 -45 -54 -79t-82 -34q-39 0 -54.5 25.5t-6 79.5t45.5 133h-3q-20 -31 -37 -55t-50 -61t-65.5 -61.5t-77.5 -43t-91 -18.5q-120 0 -120 88q1 54 61 186q2 4 6 14q126 280 169 441q125 460 -196 460
q-73 0 -137.5 -28.5t-111 -75t-79 -108t-46 -126.5t-6 -131t34.5 -121t81 -96.5t129 -58.5q39 -6 51.5 -1.5t24 15.5t18.5 12q20 4 26 -10.5t-8 -25.5q-11 -9 -38.5 -13t-65.5 0.5t-79.5 17.5t-81 42t-71 69t-49.5 104t-15 142q4 100 56.5 193.5t150 156t214.5 62.5
q125 0 195.5 -70.5t77.5 -212.5t-71 -354q-21 -58 -50.5 -127t-51 -117.5t-42.5 -101t-29.5 -86.5t-7 -62.5t21.5 -42t58 -13.5q56 0 115.5 38.5t107 97t84 120t56.5 115.5q46 124 112 124z" />
    <glyph glyph-name="Yacute" unicode="&#xdd;" horiz-adv-x="1067" 
d="M853 613q37 22 51.5 45t12 39t-8 38t-4.5 34q3 22 16 30.5t27 7.5q11 0 24.5 -9.5t14.5 -27.5q1 -51 -41 -97.5t-85 -69.5q-10 -7 -12 2q1 5 5 8zM863 -55q222 8 341.5 -44t119.5 -133q0 -43 -27.5 -71.5t-56.5 -39.5q-24 -8 -28 -3q-1 2 4 4q1 1 2 1q24 7 44 31.5
t20 67.5q0 85 -115.5 130.5t-310.5 38.5q-58 -138 -122 -232.5t-132.5 -145.5t-134.5 -72t-144 -21q-89 0 -150 40t-61 102q0 73 64 136.5t167.5 105.5t225.5 68t247 34q37 98 94 290h-2q-26 -42 -48 -72t-63.5 -74t-93 -68.5t-108.5 -24.5q-27 0 -48 4t-34.5 13t-23.5 18
t-12.5 26t-4.5 29.5t3.5 35.5t9 37t14 41t16 41t17.5 43q117 283 155 446q105 455 -214 455q-96 0 -175 -49t-124.5 -123.5t-60.5 -165.5t4.5 -173t83 -147t163.5 -87q39 -6 51.5 -1.5t23.5 15.5t18 12q20 4 26.5 -10.5t-7.5 -25.5q-11 -9 -38 -13t-65 0.5t-80 17.5
t-82.5 42t-73.5 69t-53 104t-20 142q0 74 29.5 147.5t81 132.5t129.5 95.5t167 36.5q125 0 198 -70.5t85 -212.5t-59 -355q-15 -47 -35.5 -100t-37 -94t-34.5 -85t-29.5 -77t-20 -65t-8 -54.5t8 -39.5t26 -25.5t48.5 -8.5q56 0 114 38.5t103.5 97t80 120t52.5 115.5
q42 124 108 124q10 0 13.5 -2.5t2.5 -4.5t-3 -4q-34 -21 -59 -78.5t-72 -215.5q-43 -145 -90 -259zM360 -522q83 0 153.5 35.5t124.5 101t94 139.5t77 170q-273 -17 -459.5 -108.5t-186.5 -209.5q0 -56 53 -92t144 -36z" />
    <glyph glyph-name="Thorn" unicode="&#xde;" horiz-adv-x="1293" 
d="M1173 1180q181 -16 290.5 -108t109.5 -233q0 -110 -63.5 -207t-167.5 -153.5t-219 -56.5q-104 0 -127 46q-14 29 12 51q9 8 14 4q1 -2 -2 -7q-4 -8 -3.5 -17.5t9.5 -19.5t22 -18.5t36 -13.5t51 -5q156 0 268 115t112 275q0 77 -27.5 136.5t-75 96.5t-102.5 58t-120 30
q-11 1 -17 -1.5t-7.5 -5.5t-4.5 -11q-4 -11 -60.5 -188t-115.5 -358t-82 -243q-21 -56 -47 -108.5t-69 -112.5t-92 -104t-117.5 -73t-144.5 -29q-91 0 -164 23t-119 61.5t-74.5 89t-35.5 106t3.5 113.5t38 109t72 94t101.5 69q10 85 53.5 170t119.5 162t174 136.5t228 95
t271 35.5h14q56 188 136.5 281t159.5 93q80 4 131 -28q46 -28 14 -62q-18 -21 -42 -1q-6 6 -18.5 28t-31.5 34.5t-54 12.5q-70 0 -130.5 -96.5t-106.5 -264.5zM1100 1138q6 21 -18 21q-55 -1 -113 -8.5t-128 -25.5t-134.5 -45t-129.5 -71t-116.5 -99.5t-92.5 -134
t-60 -171.5q53 14 111 14q155 0 202 -87q35 -64 -3 -138q-36 -69 -108 -90q-22 -7 -46 -7q-98 0 -153 78.5t-56 182.5q-46 -27 -81 -69t-55.5 -90.5t-27 -102t1.5 -104t34 -97t66.5 -81t103.5 -55t140 -20.5q38 0 78 11t88.5 40.5t91.5 74.5t85.5 120.5t73.5 172.5
q179 557 246 781zM306 581q-4 -63 11.5 -120.5t54 -97.5t93.5 -40q75 0 120 62q43 58 24 120q-24 76 -131 93q-27 4 -57 4q-58 0 -115 -21z" />
    <glyph glyph-name="germandbls" unicode="&#xdf;" horiz-adv-x="539" 
d="M668 753q0 -39 -14.5 -71t-57 -69t-86.5 -67t-134 -87q-76 -49 6 -141q11 -13 37.5 -39t40.5 -42t27.5 -41.5t14.5 -51.5q0 -16 -7 -38t-24 -48.5t-55.5 -44.5t-90.5 -18q-63 0 -101 27t-34 85q3 50 36 55q25 3 38 -20q6 -12 3 -26q-3 -15 -13.5 -31.5t-10.5 -27.5
q0 -20 26.5 -35t49.5 -15q53 0 93 29.5t40 89.5q0 25 -16 50t-53.5 63t-48.5 51q-12 13 -14 16t-14.5 20.5t-14.5 27.5t-5 29.5t4.5 34t23.5 34t43 36.5q30 19 77 47t71 42.5t55 38t46 41.5t26 42.5t11 51.5q0 39 -25 64.5t-69 25.5q-50 0 -94.5 -21t-77.5 -54t-64 -83
t-52 -99t-42.5 -110.5t-35 -110t-30 -105.5t-26.5 -88q-19 -57 -39.5 -96.5t-37 -57t-30.5 -24.5t-22 -5.5t-11 5.5q-1 2 4.5 8t18 24.5t23.5 44.5q26 64 55.5 153.5t51.5 159t50.5 147.5t60.5 134.5t73.5 104t98.5 72t126 23.5q52 -1 85.5 -32t33.5 -78z" />
    <glyph glyph-name="agrave" unicode="&#xe0;" horiz-adv-x="540" 
d="M502 794q-36 -22 -51 -45.5t-12 -39.5t8.5 -37.5t3.5 -33.5q-5 -41 -43 -38q-11 0 -24.5 9.5t-13.5 27.5q-1 51 41 97.5t84 69.5q11 6 12 -3q-1 -4 -5 -7zM417 208q-31 -100 -30 -132q1 -45 38 -45q47 0 90 79q2 4 5.5 3t1.5 -7q-14 -45 -48.5 -79t-78.5 -34
q-33 0 -50 17.5t-17.5 46t5 55t16.5 54.5h-3q-24 -58 -81 -115t-118 -57q-62 0 -91 39.5t-29 93.5q0 76 47.5 167.5t118.5 154.5t132 63q10 0 20 -2t24.5 -10t25 -20.5t17.5 -37t7 -57.5h2q40 116 104 116q18 0 17 -6q0 -2 -3 -4q-28 -18 -48.5 -66t-61.5 -178
q-8 -25 -12 -39zM333 492q-73 0 -150 -104q-73 -99 -91 -208q-20 -114 44 -142q18 -8 41 -8q52 0 108 70t88 160q33 88 28 139.5t-23 72t-45 20.5z" />
    <glyph glyph-name="aacute" unicode="&#xe1;" horiz-adv-x="540" 
d="M385 606q37 22 51.5 45t12 39t-8 38t-4.5 34q3 22 16 30.5t27 7.5q11 0 24.5 -9.5t14.5 -27.5q1 -51 -41 -97.5t-85 -69.5q-10 -7 -12 2q1 5 5 8zM417 208q-31 -100 -30 -132q1 -45 38 -45q47 0 90 79q2 4 5.5 3t1.5 -7q-14 -45 -48.5 -79t-78.5 -34q-33 0 -50 17.5
t-17.5 46t5 55t16.5 54.5h-3q-24 -58 -81 -115t-118 -57q-62 0 -91 39.5t-29 93.5q0 76 47.5 167.5t118.5 154.5t132 63q10 0 20 -2t24.5 -10t25 -20.5t17.5 -37t7 -57.5h2q40 116 104 116q18 0 17 -6q0 -2 -3 -4q-28 -18 -48.5 -66t-61.5 -178q-8 -25 -12 -39zM333 492
q-73 0 -150 -104q-73 -99 -91 -208q-20 -114 44 -142q18 -8 41 -8q52 0 108 70t88 160q33 88 28 139.5t-23 72t-45 20.5z" />
    <glyph glyph-name="acircumflex" unicode="&#xe2;" horiz-adv-x="540" 
d="M408 773h9l101 -169h-53q-48 76 -75 114l-138 -114h-30q157 146 186 169zM417 208q-31 -100 -30 -132q1 -45 38 -45q47 0 90 79q2 4 5.5 3t1.5 -7q-14 -45 -48.5 -79t-78.5 -34q-33 0 -50 17.5t-17.5 46t5 55t16.5 54.5h-3q-24 -58 -81 -115t-118 -57q-62 0 -91 39.5
t-29 93.5q0 76 47.5 167.5t118.5 154.5t132 63q10 0 20 -2t24.5 -10t25 -20.5t17.5 -37t7 -57.5h2q40 116 104 116q18 0 17 -6q0 -2 -3 -4q-28 -18 -48.5 -66t-61.5 -178q-8 -25 -12 -39zM333 492q-73 0 -150 -104q-73 -99 -91 -208q-20 -114 44 -142q18 -8 41 -8
q52 0 108 70t88 160q33 88 28 139.5t-23 72t-45 20.5z" />
    <glyph glyph-name="atilde" unicode="&#xe3;" horiz-adv-x="541" 
d="M241 587q-10 0 -16.5 8t-6.5 19q0 30 23.5 49.5t60.5 19.5q31 0 75 -30.5t72 -30.5q36 0 55.5 17t19.5 41q9 0 17 -7t8 -17q0 -31 -24 -50.5t-59 -19.5q-24 0 -77 30t-78 30q-36 0 -53 -17.5t-17 -41.5zM434 208q-31 -100 -30 -132q1 -45 38 -45q47 0 90 79q2 4 5.5 3
t1.5 -7q-14 -45 -48.5 -79t-78.5 -34q-33 0 -50 17.5t-17.5 46t5 55t16.5 54.5h-3q-24 -58 -81 -115t-118 -57q-62 0 -91 39.5t-29 93.5q0 76 47.5 167.5t118.5 154.5t132 63q10 0 20 -2t24.5 -10t25 -20.5t17.5 -37t7 -57.5h2q40 116 104 116q18 0 17 -6q0 -2 -3 -4
q-28 -18 -48.5 -66t-61.5 -178q-8 -25 -12 -39zM350 492q-73 0 -150 -104q-73 -99 -91 -208q-20 -114 44 -142q18 -8 41 -8q52 0 108 70t88 160q33 88 28 139.5t-23 72t-45 20.5z" />
    <glyph glyph-name="adieresis" unicode="&#xe4;" horiz-adv-x="545" 
d="M273 613q-17 0 -29 12t-12 29t12 29t29 12t29 -12.5t12 -28.5t-12 -28.5t-29 -12.5zM506 613q-17 0 -29 12t-12 29t12 29t29 12q16 0 28.5 -12.5t12.5 -28.5t-12.5 -28.5t-28.5 -12.5zM417 208q-31 -100 -30 -132q1 -45 38 -45q47 0 90 79q2 4 5.5 3t1.5 -7
q-14 -45 -48.5 -79t-78.5 -34q-33 0 -50 17.5t-17.5 46t5 55t16.5 54.5h-3q-24 -58 -81 -115t-118 -57q-62 0 -91 39.5t-29 93.5q0 76 47.5 167.5t118.5 154.5t132 63q10 0 20 -2t24.5 -10t25 -20.5t17.5 -37t7 -57.5h2q40 116 104 116q18 0 17 -6q0 -2 -3 -4
q-28 -18 -48.5 -66t-61.5 -178q-8 -25 -12 -39zM333 492q-73 0 -150 -104q-73 -99 -91 -208q-20 -114 44 -142q18 -8 41 -8q52 0 108 70t88 160q33 88 28 139.5t-23 72t-45 20.5z" />
    <glyph glyph-name="aring" unicode="&#xe5;" horiz-adv-x="540" 
d="M539 703q-8 -49 -47 -73t-90 -26q-45 -1 -65.5 27t-9.5 63q23 75 106 92q48 10 80 -16.5t26 -66.5zM462 773q-29 7 -52.5 -12.5t-36.5 -53.5q-12 -29 -3.5 -54.5t34.5 -32.5q28 -7 52.5 13t34.5 54q11 31 3.5 55t-32.5 31zM417 208q-31 -100 -30 -132q1 -45 38 -45
q47 0 90 79q2 4 5.5 3t1.5 -7q-14 -45 -48.5 -79t-78.5 -34q-33 0 -50 17.5t-17.5 46t5 55t16.5 54.5h-3q-24 -58 -81 -115t-118 -57q-62 0 -91 39.5t-29 93.5q0 76 47.5 167.5t118.5 154.5t132 63q10 0 20 -2t24.5 -10t25 -20.5t17.5 -37t7 -57.5h2q40 116 104 116
q18 0 17 -6q0 -2 -3 -4q-28 -18 -48.5 -66t-61.5 -178q-8 -25 -12 -39zM333 492q-73 0 -150 -104q-73 -99 -91 -208q-20 -114 44 -142q18 -8 41 -8q52 0 108 70t88 160q33 88 28 139.5t-23 72t-45 20.5z" />
    <glyph glyph-name="ae" unicode="&#xe6;" horiz-adv-x="758" 
d="M652 512q53 10 88.5 -18.5t33.5 -74.5q-2 -36 -27.5 -71.5t-59.5 -62t-87.5 -55t-92.5 -45t-94 -38.5q-2 -112 90 -118q51 -4 104.5 40.5t87.5 109.5q2 5 5.5 5.5t5 -2t0.5 -6.5q-18 -59 -88 -124t-148 -58q-69 7 -97.5 54.5t-18.5 117.5v-1h-2q-24 -57 -83.5 -116
t-119.5 -56q-62 3 -89 41.5t-27 92.5q0 76 47 166.5t117 153.5t131 65q13 0 27.5 -4t31.5 -16t28 -39.5t11 -67.5q29 4 49 22q83 89 177 105zM170 31q57 -9 116.5 63t92.5 165q32 88 27 139.5t-23 72.5t-44 21q-69 1 -146 -100q-75 -98 -95 -206q-22 -118 47 -148
q12 -5 25 -7zM723 414q5 34 -11 56.5t-47 24.5q-44 0 -85 -27t-69.5 -68t-50.5 -87.5t-33 -85t-13 -62.5q284 105 309 249z" />
    <glyph glyph-name="ccedilla" unicode="&#xe7;" horiz-adv-x="461" 
d="M387 518q38 0 66.5 -14.5t41 -35.5t11 -45.5t-17.5 -43.5q-14 -16 -34 -17.5t-34 11.5q-17 20 -15 37t14 28q26 20 18.5 43.5t-48.5 23.5q-81 0 -155 -105q-70 -98 -82 -209q-14 -116 52 -149q22 -11 51 -11q57 0 103.5 42.5t79.5 108.5q2 6 6 7.5t5.5 -1.5t-0.5 -9
q-19 -59 -81 -122.5t-134 -64.5q-5 -13 -5 -98q0 -47 -30 -80t-68 -33q-50 0 -72.5 41t7.5 73l8 -9q-21 -22 -8 -45t44 -23q35 0 57 20.5t29 45t14.5 60t12.5 48.5q-59 4 -95.5 44t-36.5 116q0 77 43.5 162.5t113.5 144.5t139 59z" />
    <glyph glyph-name="egrave" unicode="&#xe8;" horiz-adv-x="433" 
d="M460 422q0 -139 -361 -275q-2 -51 21 -84.5t73 -33.5q101 0 187 149q6 9 10 6.5t1 -11.5q-4 -12 -19 -36.5t-41.5 -59t-69.5 -59t-90 -24.5q-109 0 -128 96q-18 91 46 213q63 121 160 178q57 34 114 34q41 0 69 -27t28 -66zM346 495q-59 0 -115.5 -54.5t-90.5 -130
t-40 -144.5q221 77 289 190q39 66 11 111q-18 28 -54 28zM431 794q-36 -22 -51 -45.5t-12 -39.5t8.5 -37.5t3.5 -33.5q-5 -41 -43 -38q-11 0 -24.5 9.5t-13.5 27.5q-1 51 41 97.5t84 69.5q11 6 12 -3q-1 -4 -5 -7z" />
    <glyph glyph-name="eacute" unicode="&#xe9;" horiz-adv-x="433" 
d="M385 606q37 22 51.5 45t12 39t-8 38t-4.5 34q3 22 16 30.5t27 7.5q11 0 24.5 -9.5t14.5 -27.5q1 -51 -41 -97.5t-85 -69.5q-10 -7 -12 2q1 5 5 8zM460 422q0 -139 -361 -275q-2 -51 21 -84.5t73 -33.5q101 0 187 149q6 9 10 6.5t1 -11.5q-4 -12 -19 -36.5t-41.5 -59
t-69.5 -59t-90 -24.5q-109 0 -128 96q-18 91 46 213q63 121 160 178q57 34 114 34q41 0 69 -27t28 -66zM346 495q-59 0 -115.5 -54.5t-90.5 -130t-40 -144.5q221 77 289 190q39 66 11 111q-18 28 -54 28z" />
    <glyph glyph-name="ecircumflex" unicode="&#xea;" horiz-adv-x="444" 
d="M460 422q0 -139 -361 -275q-2 -51 21 -84.5t73 -33.5q101 0 187 149q6 9 10 6.5t1 -11.5q-4 -12 -19 -36.5t-41.5 -59t-69.5 -59t-90 -24.5q-109 0 -128 96q-18 91 46 213q63 121 160 178q57 34 114 34q41 0 69 -27t28 -66zM346 495q-59 0 -115.5 -54.5t-90.5 -130
t-40 -144.5q221 77 289 190q39 66 11 111q-18 28 -54 28zM362 773h9l101 -169h-53q-48 76 -75 114l-138 -114h-30q157 146 186 169z" />
    <glyph glyph-name="edieresis" unicode="&#xeb;" horiz-adv-x="470" 
d="M460 422q0 -139 -361 -275q-2 -51 21 -84.5t73 -33.5q101 0 187 149q6 9 10 6.5t1 -11.5q-4 -12 -19 -36.5t-41.5 -59t-69.5 -59t-90 -24.5q-109 0 -128 96q-18 91 46 213q63 121 160 178q57 34 114 34q41 0 69 -27t28 -66zM346 495q-59 0 -115.5 -54.5t-90.5 -130
t-40 -144.5q221 77 289 190q39 66 11 111q-18 28 -54 28zM224 613q-17 0 -29 12t-12 29t12 29t29 12t29 -12.5t12 -28.5t-12 -28.5t-29 -12.5zM457 613q-17 0 -29 12t-12 29t12 29t29 12q16 0 28.5 -12.5t12.5 -28.5t-12.5 -28.5t-28.5 -12.5z" />
    <glyph glyph-name="igrave" unicode="&#xec;" horiz-adv-x="237" 
d="M76 456q-3 3 1 8q18 17 49.5 33t55.5 15q43 -1 55 -31t-4 -72q-9 -28 -59 -154t-57 -156q-6 -23 2 -45.5t32 -22.5q19 0 38.5 13.5t28.5 25.5t27 39q7 8 8 2q1 -2 0 -4q-18 -46 -55 -79t-79 -35q-49 -1 -62.5 37t9.5 95l116 292q23 61 -9.5 72.5t-83.5 -32.5
q-9 -7 -13 -1zM330 794q-36 -22 -51 -45.5t-12 -39.5t8.5 -37.5t3.5 -33.5q-5 -41 -43 -38q-11 0 -24.5 9.5t-13.5 27.5q-1 51 41 97.5t84 69.5q11 6 12 -3q-1 -4 -5 -7z" />
    <glyph glyph-name="iacute" unicode="&#xed;" horiz-adv-x="267" 
d="M76 456q-3 3 1 8q18 17 49.5 33t55.5 15q42 -1 53.5 -31t-4.5 -72q-9 -28 -59 -154t-57 -156q-6 -23 2 -45.5t32 -22.5q19 0 38.5 13.5t28.5 25.5t27 39q7 8 8 2q1 -2 0 -4q-18 -46 -55 -79t-79 -35q-47 -2 -60 36.5t9 95.5l116 292q23 61 -9.5 72.5t-83.5 -32.5
q-9 -7 -13 -1zM240 606q37 22 51.5 45t12 39t-8 38t-4.5 34q3 22 16 30.5t27 7.5q11 0 24.5 -9.5t14.5 -27.5q1 -51 -41 -97.5t-85 -69.5q-10 -7 -12 2q1 5 5 8z" />
    <glyph glyph-name="icircumflex" unicode="&#xee;" horiz-adv-x="297" 
d="M73 456q-3 3 1 8q18 17 49.5 33t55.5 15q42 -1 53.5 -31t-4.5 -72q-9 -28 -59 -154t-57 -156q-6 -23 2 -45.5t32 -22.5q19 0 38.5 13.5t28.5 25.5t27 39q7 8 8 2q1 -2 0 -4q-18 -46 -55 -79t-79 -35q-47 -2 -60 36.5t9 95.5l116 292q23 61 -9.5 72.5t-83.5 -32.5
q-9 -7 -13 -1zM225 773h9l101 -169h-53q-48 76 -75 114l-138 -114h-30q157 146 186 169z" />
    <glyph glyph-name="idieresis" unicode="&#xef;" horiz-adv-x="331" 
d="M76 456q-3 3 1 8q18 17 49.5 33t55.5 15q42 -1 53.5 -31t-4.5 -72q-9 -28 -59 -154t-57 -156q-6 -23 2 -45.5t32 -22.5q19 0 38.5 13.5t28.5 25.5t27 39q7 8 8 2q1 -2 0 -4q-18 -46 -55 -79t-79 -35q-47 -2 -60 36.5t9 95.5l116 292q23 61 -9.5 72.5t-83.5 -32.5
q-9 -7 -13 -1zM108 613q-17 0 -29 12t-12 29t12 29t29 12t29 -12.5t12 -28.5t-12 -28.5t-29 -12.5zM341 613q-17 0 -29 12t-12 29t12 29t29 12q16 0 28.5 -12.5t12.5 -28.5t-12.5 -28.5t-28.5 -12.5z" />
    <glyph glyph-name="eth" unicode="&#xf0;" horiz-adv-x="480" 
d="M524 715q15 6 18 -4q2 -8 -12 -13q-4 -1 -19 -7t-38 -15t-44 -17q97 -139 35 -379q-32 -125 -117.5 -213.5t-190.5 -68.5q-83 16 -97 117t43 218q59 120 153 163q54 26 112 17q47 -7 74 -41q3 114 -32 179q-130 -50 -156 -59q-7 -2 -11.5 0t-3 7.5t9.5 8.5q21 7 152 59
q-28 40 -64.5 53t-68.5 7q-21 -4 -24 11q-2 14 16 18q4 1 8 1q37 1 78 -20.5t73 -62.5q68 27 106 41zM168 11q75 -21 153 84q72 96 98 220q26 129 -27 170q-13 11 -31 14q-74 14 -153 -91q-73 -97 -97 -218q-25 -127 33 -167q10 -8 24 -12z" />
    <glyph glyph-name="ntilde" unicode="&#xf1;" horiz-adv-x="542" 
d="M228 587q-10 0 -16.5 8t-6.5 19q0 30 23.5 49.5t60.5 19.5q31 0 75 -30.5t72 -30.5q36 0 55.5 17t19.5 41q9 0 17 -7t8 -17q0 -31 -24 -50.5t-59 -19.5q-24 0 -77 30t-78 30q-36 0 -53 -17.5t-17 -41.5zM411 323q35 90 32 121q-5 41 -54 42q-48 0 -109 -70t-83 -127
l-101 -256q-6 -17 -23 -24q-16 -7 -39 -15q-5 -2 -8 1t-1 9q0 1 20.5 53.5t44.5 114.5t47.5 124.5t31.5 83.5q36 105 -18 105q-16 0 -38.5 -20.5t-33.5 -35t-18 -24.5q-5 -7 -11 -2q-2 3 1 8q7 10 15.5 21.5t28 33.5t43 36t44.5 14q28 0 41.5 -17.5t13 -43.5t-4.5 -47
t-10 -37h3q26 48 83.5 96t108.5 48q39 0 60 -16.5t23 -42t-1 -45.5t-10 -38q-11 -28 -52 -132t-43 -109q-41 -103 22 -103q34 0 58 25.5t36 54.5q4 7 8 6t1 -8q-3 -10 -10 -24t-21.5 -37t-38 -38.5t-49.5 -15.5q-18 0 -32 3t-22.5 10t-14.5 15.5t-7 21.5t-0.5 25.5t5 30.5
t9 33t12.5 37.5t15 39.5t17 42q6 16 10 24.5t9.5 22.5t9.5 26z" />
    <glyph glyph-name="ograve" unicode="&#xf2;" horiz-adv-x="474" 
d="M178 -6q-62 0 -96 34.5t-37.5 86.5t7.5 108t33 102t44 67q6 6 6 -1q5 -20 23 -38q9 -9 1 -18q-30 -48 -48 -105t-20 -107t20 -83.5t67 -33.5q59 0 109.5 63.5t87.5 162.5q21 55 30 101.5t6.5 85t-24 60.5t-61.5 22q-32 0 -60 -16.5t-28 -42.5q0 -7 4 -18.5t4 -19.5
q0 -18 -13.5 -32t-31.5 -14q-19 0 -31.5 13.5t-12.5 32.5q0 36 51 73t119 37q102 0 126 -98q23 -92 -29 -214q-53 -122 -143 -177q-50 -31 -103 -31zM457 794q-36 -22 -51 -45.5t-12 -39.5t8.5 -37.5t3.5 -33.5q-5 -41 -43 -38q-11 0 -24.5 9.5t-13.5 27.5q-1 51 41 97.5
t84 69.5q11 6 12 -3q-1 -4 -5 -7z" />
    <glyph glyph-name="oacute" unicode="&#xf3;" horiz-adv-x="474" 
d="M369 606q37 22 51.5 45t12 39t-8 38t-4.5 34q3 22 16 30.5t27 7.5q11 0 24.5 -9.5t14.5 -27.5q1 -51 -41 -97.5t-85 -69.5q-10 -7 -12 2q1 5 5 8zM178 -6q-62 0 -96 34.5t-37.5 86.5t7.5 108t33 102t44 67q6 6 6 -1q5 -20 23 -38q9 -9 1 -18q-30 -48 -48 -105t-20 -107
t20 -83.5t67 -33.5q59 0 109.5 63.5t87.5 162.5q21 55 30 101.5t6.5 85t-24 60.5t-61.5 22q-32 0 -60 -16.5t-28 -42.5q0 -7 4 -18.5t4 -19.5q0 -18 -13.5 -32t-31.5 -14q-19 0 -31.5 13.5t-12.5 32.5q0 36 51 73t119 37q102 0 126 -98q23 -92 -29 -214q-53 -122 -143 -177
q-50 -31 -103 -31z" />
    <glyph glyph-name="ocircumflex" unicode="&#xf4;" horiz-adv-x="474" 
d="M178 -6q-62 0 -96 34.5t-37.5 86.5t7.5 108t33 102t44 67q6 6 6 -1q5 -20 23 -38q9 -9 1 -18q-30 -48 -48 -105t-20 -107t20 -83.5t67 -33.5q59 0 109.5 63.5t87.5 162.5q21 55 30 101.5t6.5 85t-24 60.5t-61.5 22q-32 0 -60 -16.5t-28 -42.5q0 -7 4 -18.5t4 -19.5
q0 -18 -13.5 -32t-31.5 -14q-19 0 -31.5 13.5t-12.5 32.5q0 36 51 73t119 37q102 0 126 -98q23 -92 -29 -214q-53 -122 -143 -177q-50 -31 -103 -31zM349 773h9l101 -169h-53q-48 76 -75 114l-138 -114h-30q157 146 186 169z" />
    <glyph glyph-name="otilde" unicode="&#xf5;" horiz-adv-x="500" 
d="M178 -6q-62 0 -96 34.5t-37.5 86.5t7.5 108t33 102t44 67q6 6 6 -1q5 -20 23 -38q9 -9 1 -18q-30 -48 -48 -105t-20 -107t20 -83.5t67 -33.5q59 0 109.5 63.5t87.5 162.5q21 55 30 101.5t6.5 85t-24 60.5t-61.5 22q-32 0 -60 -16.5t-28 -42.5q0 -7 4 -18.5t4 -19.5
q0 -18 -13.5 -32t-31.5 -14q-19 0 -31.5 13.5t-12.5 32.5q0 36 51 73t119 37q102 0 126 -98q23 -92 -29 -214q-53 -122 -143 -177q-50 -31 -103 -31zM185 587q-10 0 -16.5 8t-6.5 19q0 30 23.5 49.5t60.5 19.5q31 0 75 -30.5t72 -30.5q36 0 55.5 17t19.5 41q9 0 17 -7t8 -17
q0 -31 -24 -50.5t-59 -19.5q-24 0 -77 30t-78 30q-36 0 -53 -17.5t-17 -41.5z" />
    <glyph glyph-name="odieresis" unicode="&#xf6;" horiz-adv-x="507" 
d="M178 -6q-62 0 -96 34.5t-37.5 86.5t7.5 108t33 102t44 67q6 6 6 -1q5 -20 23 -38q9 -9 1 -18q-30 -48 -48 -105t-20 -107t20 -83.5t67 -33.5q59 0 109.5 63.5t87.5 162.5q21 55 30 101.5t6.5 85t-24 60.5t-61.5 22q-32 0 -60 -16.5t-28 -42.5q0 -7 4 -18.5t4 -19.5
q0 -18 -13.5 -32t-31.5 -14q-19 0 -31.5 13.5t-12.5 32.5q0 36 51 73t119 37q102 0 126 -98q23 -92 -29 -214q-53 -122 -143 -177q-50 -31 -103 -31zM220 613q-17 0 -29 12t-12 29t12 29t29 12t29 -12.5t12 -28.5t-12 -28.5t-29 -12.5zM453 613q-17 0 -29 12t-12 29t12 29
t29 12q16 0 28.5 -12.5t12.5 -28.5t-12.5 -28.5t-28.5 -12.5z" />
    <glyph glyph-name="divide" unicode="&#xf7;" horiz-adv-x="641" 
d="M131 282l372 -1l13 34h-373zM348 395q-14 0 -24 10t-10 23q0 14 10 24t24 10t23.5 -10t9.5 -24t-9.5 -23.5t-23.5 -9.5zM294 134q-14 0 -24 10t-10 24t10 23.5t24 9.5t23.5 -9.5t9.5 -23.5t-9.5 -24t-23.5 -10z" />
    <glyph glyph-name="oslash" unicode="&#xf8;" horiz-adv-x="484" 
d="M490 533q8 0 -3 -12q-1 -1 -47 -58q22 -34 25 -86t-11 -106.5t-43.5 -108.5t-68 -94t-90 -60t-104.5 -10q-35 7 -58 30q-22 -29 -27 -33q-18 -20 -42 -25q-4 -1 -5 0.5t2 5.5l7 8l21 27t29 36q-22 33 -25 84t9.5 105t41 108t66 94t88.5 61.5t104 13.5q41 -6 66 -32
q6 7 12.5 15t9.5 11l2 3q18 23 41 23zM353 499q-64 12 -131 -64t-102.5 -181t-18.5 -175l305 378q-17 35 -53 42zM159 11q49 -14 102 29.5t89.5 112t56 147t7.5 131.5l-304 -378q16 -33 49 -42z" />
    <glyph glyph-name="ugrave" unicode="&#xf9;" 
d="M352 142q-17 -30 -42.5 -60.5t-71.5 -60t-92 -28.5q-47 1 -71.5 23t-24 53.5t12.5 67.5q17 40 42 97.5t42.5 97.5t21.5 51q42 103 -14 105q-15 0 -38 -20t-35.5 -36t-18.5 -24q-7 -7 -11 -2q-2 3 1 8q79 105 135 105q24 0 38 -11.5t17.5 -43.5t-19.5 -87
q-9 -23 -25.5 -59t-30.5 -66.5t-28.5 -65.5t-21 -62.5t-6.5 -51t14 -37t42 -15.5q54 -4 110.5 53.5t96.5 147.5q23 49 66 164q48 121 112 124q17 1 16 -6q-1 -3 -3 -4q-29 -21 -54 -78t-80 -213q-30 -91 -33 -117q-7 -56 34 -60q26 -2 51 22t42 57q4 4 6.5 2.5t0.5 -6.5
q-16 -45 -54 -80t-82 -33q-35 2 -49.5 26.5t-11 55.5t17.5 67h-2zM451 794q-36 -22 -51 -45.5t-12 -39.5t8.5 -37.5t3.5 -33.5q-5 -41 -43 -38q-11 0 -24.5 9.5t-13.5 27.5q-1 51 41 97.5t84 69.5q11 6 12 -3q-1 -4 -5 -7z" />
    <glyph glyph-name="uacute" unicode="&#xfa;" 
d="M430 606q37 22 51.5 45t12 39t-8 38t-4.5 34q3 22 16 30.5t27 7.5q11 0 24.5 -9.5t14.5 -27.5q1 -51 -41 -97.5t-85 -69.5q-10 -7 -12 2q1 5 5 8zM352 142q-17 -30 -42.5 -60.5t-71.5 -60t-92 -28.5q-47 1 -71.5 23t-24 53.5t12.5 67.5q17 40 42 97.5t42.5 97.5t21.5 51
q42 103 -14 105q-15 0 -38 -20t-35.5 -36t-18.5 -24q-7 -7 -11 -2q-2 3 1 8q79 105 135 105q24 0 38 -11.5t17.5 -43.5t-19.5 -87q-9 -23 -25.5 -59t-30.5 -66.5t-28.5 -65.5t-21 -62.5t-6.5 -51t14 -37t42 -15.5q54 -4 110.5 53.5t96.5 147.5q23 49 66 164q48 121 112 124
q17 1 16 -6q-1 -3 -3 -4q-29 -21 -54 -78t-80 -213q-30 -91 -33 -117q-7 -56 34 -60q26 -2 51 22t42 57q4 4 6.5 2.5t0.5 -6.5q-16 -45 -54 -80t-82 -33q-35 2 -49.5 26.5t-11 55.5t17.5 67h-2z" />
    <glyph glyph-name="ucircumflex" unicode="&#xfb;" 
d="M352 142q-17 -30 -42.5 -60.5t-71.5 -60t-92 -28.5q-47 1 -71.5 23t-24 53.5t12.5 67.5q17 40 42 97.5t42.5 97.5t21.5 51q42 103 -14 105q-15 0 -38 -20t-35.5 -36t-18.5 -24q-7 -7 -11 -2q-2 3 1 8q79 105 135 105q24 0 38 -11.5t17.5 -43.5t-19.5 -87
q-9 -23 -25.5 -59t-30.5 -66.5t-28.5 -65.5t-21 -62.5t-6.5 -51t14 -37t42 -15.5q54 -4 110.5 53.5t96.5 147.5q23 49 66 164q48 121 112 124q17 1 16 -6q-1 -3 -3 -4q-29 -21 -54 -78t-80 -213q-30 -91 -33 -117q-7 -56 34 -60q26 -2 51 22t42 57q4 4 6.5 2.5t0.5 -6.5
q-16 -45 -54 -80t-82 -33q-35 2 -49.5 26.5t-11 55.5t17.5 67h-2zM381 773h9l101 -169h-53q-48 76 -75 114l-138 -114h-30q157 146 186 169z" />
    <glyph glyph-name="udieresis" unicode="&#xfc;" 
d="M352 142q-17 -30 -42.5 -60.5t-71.5 -60t-92 -28.5q-47 1 -71.5 23t-24 53.5t12.5 67.5q17 40 42 97.5t42.5 97.5t21.5 51q42 103 -14 105q-15 0 -38 -20t-35.5 -36t-18.5 -24q-7 -7 -11 -2q-2 3 1 8q79 105 135 105q24 0 38 -11.5t17.5 -43.5t-19.5 -87
q-9 -23 -25.5 -59t-30.5 -66.5t-28.5 -65.5t-21 -62.5t-6.5 -51t14 -37t42 -15.5q54 -4 110.5 53.5t96.5 147.5q23 49 66 164q48 121 112 124q17 1 16 -6q-1 -3 -3 -4q-29 -21 -54 -78t-80 -213q-30 -91 -33 -117q-7 -56 34 -60q26 -2 51 22t42 57q4 4 6.5 2.5t0.5 -6.5
q-16 -45 -54 -80t-82 -33q-35 2 -49.5 26.5t-11 55.5t17.5 67h-2zM247 613q-17 0 -29 12t-12 29t12 29t29 12t29 -12.5t12 -28.5t-12 -28.5t-29 -12.5zM480 613q-17 0 -29 12t-12 29t12 29t29 12q16 0 28.5 -12.5t12.5 -28.5t-12.5 -28.5t-28.5 -12.5z" />
    <glyph glyph-name="yacute" unicode="&#xfd;" horiz-adv-x="508" 
d="M444 208q-50 -157 -88 -258q-123 -319 -315 -415q-127 -64 -243 -14q-85 37 -119 113q-25 58 -8 115q15 49 54 87t87 57t94 27.5t82 5.5q22 -2 22 -19q0 -16 -19 -19q-4 -1 -10 0q-9 2 -23.5 8t-23.5 7.5t-36 -0.5q-19 -3 -41 -11t-54 -25.5t-56 -51t-31 -77.5
q-17 -105 53 -170q67 -63 170 -48q132 19 235 161q53 72 92 172q82 211 102 289h-2q-28 -52 -81 -101t-119 -48q-47 1 -73 23t-26.5 53.5t10.5 67.5q21 57 58.5 149t39.5 97q19 48 14.5 76t-32.5 29q-15 0 -38 -20.5t-34.5 -35.5t-17.5 -24q-5 -7 -11 -2q-2 3 1 8l4 4
q3 5 6.5 10t9.5 12.5t11.5 14t13.5 15t15.5 15t16.5 13t17.5 11t18 7.5t18.5 3q24 0 38.5 -11.5t19.5 -43.5t-16 -87q-8 -23 -23.5 -59t-28.5 -66.5t-26.5 -65.5t-19 -62.5t-4.5 -51t15.5 -37t42.5 -15.5q54 -4 109.5 53.5t91.5 147.5q19 45 60 164q42 121 108 124
q18 1 16 -6q0 -2 -2 -4q-16 -11 -28.5 -28.5t-29.5 -62t-28 -77.5t-39 -123zM436 606q37 22 51.5 45t12 39t-8 38t-4.5 34q3 22 16 30.5t27 7.5q11 0 24.5 -9.5t14.5 -27.5q1 -51 -41 -97.5t-85 -69.5q-10 -7 -12 2q1 5 5 8z" />
    <glyph glyph-name="thorn" unicode="&#xfe;" horiz-adv-x="522" 
d="M203 285q-44 -127 -35.5 -203t69.5 -76q58 0 125 67t100 164q56 157 5 221q-36 45 -104 19q-76 -29 -130 -125q-17 -31 -30 -67zM174 381q44 127 97.5 240.5t122.5 215t144.5 174t165 114.5t182.5 41q47 -1 72.5 -13t18.5 -32q-4 -12 -20 -14t-29 7q-52 32 -111.5 27
t-120 -36.5t-124 -97.5t-122.5 -155t-116 -210.5t-104 -263.5q22 43 55.5 73.5t68 43.5t70.5 14t63 -15.5t45.5 -45.5t18 -75t-19.5 -104q-39 -115 -124.5 -197t-160.5 -82q-102 0 -125 82l-86 -248q-29 -85 -69 -147t-80.5 -94t-74.5 -46.5t-63 -15.5q-67 -2 -121 27
q-55 30 -24 63q18 21 42 1q6 -6 18.5 -28t31.5 -34.5t54 -12.5q62 -1 122.5 71.5t99.5 177.5q47 125 203 595z" />
    <glyph glyph-name="ydieresis" unicode="&#xff;" horiz-adv-x="508" 
d="M444 208q-50 -157 -88 -258q-123 -319 -315 -415q-127 -64 -243 -14q-85 37 -119 113q-25 58 -8 115q15 49 54 87t87 57t94 27.5t82 5.5q22 -2 22 -19q0 -16 -19 -19q-4 -1 -10 0q-9 2 -23.5 8t-23.5 7.5t-36 -0.5q-19 -3 -41 -11t-54 -25.5t-56 -51t-31 -77.5
q-17 -105 53 -170q67 -63 170 -48q132 19 235 161q53 72 92 172q82 211 102 289h-2q-28 -52 -81 -101t-119 -48q-47 1 -73 23t-26.5 53.5t10.5 67.5q21 57 58.5 149t39.5 97q19 48 14.5 76t-32.5 29q-15 0 -38 -20.5t-34.5 -35.5t-17.5 -24q-5 -7 -11 -2q-2 3 1 8l4 4
q3 5 6.5 10t9.5 12.5t11.5 14t13.5 15t15.5 15t16.5 13t17.5 11t18 7.5t18.5 3q24 0 38.5 -11.5t19.5 -43.5t-16 -87q-8 -23 -23.5 -59t-28.5 -66.5t-26.5 -65.5t-19 -62.5t-4.5 -51t15.5 -37t42.5 -15.5q54 -4 109.5 53.5t91.5 147.5q19 45 60 164q42 121 108 124
q18 1 16 -6q0 -2 -2 -4q-16 -11 -28.5 -28.5t-29.5 -62t-28 -77.5t-39 -123zM242 613q-17 0 -29 12t-12 29t12 29t29 12t29 -12.5t12 -28.5t-12 -28.5t-29 -12.5zM475 613q-17 0 -29 12t-12 29t12 29t29 12q16 0 28.5 -12.5t12.5 -28.5t-12.5 -28.5t-28.5 -12.5z" />
    <glyph glyph-name="Amacron" unicode="&#x100;" horiz-adv-x="1556" 
d="M2100 1179q42 0 66.5 -13t18.5 -30q-5 -12 -18.5 -14t-25.5 4q-32 15 -59.5 22.5t-62 7t-68.5 -17.5t-73 -49t-82 -89.5t-88 -137.5q-82 -145 -265 -655q-36 -99 -35 -132q0 -41 35 -43q46 -3 95 78q2 5 6 2q2 -2 1 -6q-17 -45 -55 -80.5t-81 -32.5q-28 2 -43 18
t-17 35.5t3 47t10 42t11 29.5q35 97 19 137q-45 109 -114 188q-167 -219 -241 -300q-176 -193 -344 -244q-72 -22 -150 -22q-122 0 -218 45t-150 116t-73.5 161.5t0 180t81 173t158.5 138.5q24 14 35 -2q10 -15 -7 -27l-4 -2q-7 -3 -21 -4t-33.5 -11.5t-48.5 -39.5
q-42 -42 -70.5 -101.5t-38 -125.5t-4 -135t34.5 -131t74.5 -110.5t119 -77.5t164.5 -29q61 0 121 17.5t111.5 44.5t108 73t99.5 88.5t97.5 107t92 113.5t90.5 121q-90 95 -213.5 145t-254.5 50q-194 0 -307 -125q-87 -95 -88 -218q-2 -118 77 -186q64 -55 165 -55
q72 0 97 43q11 19 30 10q17 -9 7 -27q-2 -3 -5 -6q-35 -35 -130 -35q-153 0 -221 108q-60 95 -29 221q33 132 146 216q114 83 274 83q290 0 479 -187q121 172 298 346.5t320 240.5q-43 -14 -111.5 -16t-132 3.5t-149.5 12t-142 6.5q-157 0 -230 -97q-54 -73 -35 -158
q18 -81 90 -113q34 -15 75 -15q44 0 75 12.5t46.5 34t22.5 41.5t8 44t21 27q18 3 23 -15q2 -6 1 -13q-3 -17 -14 -38.5t-32.5 -48t-60.5 -44t-89 -17.5q-113 0 -163 83q-46 74 -17 164q31 97 130 143q66 30 150 30q55 0 197 -12.5t218 -12.5q67 0 158 23.5t154 23.5z
M1435 341q99 274 186.5 445t199.5 281q-113 -75 -254 -226t-261 -314q76 -81 129 -186zM1794 1349q0 5 5 7t10 1l5 -1q4 -2 11 -4.5t27.5 -6.5t40.5 -4.5t46.5 6.5t48.5 22q12 9 27.5 26.5t27.5 25.5t27 4q16 -4 17.5 -20.5t-10.5 -33.5q-26 -39 -96.5 -49t-128.5 1.5
t-58 25.5z" />
    <glyph glyph-name="amacron" unicode="&#x101;" horiz-adv-x="540" 
d="M434 208q-31 -100 -30 -132q1 -45 38 -45q47 0 90 79q2 4 5.5 3t1.5 -7q-14 -45 -48.5 -79t-78.5 -34q-33 0 -50 17.5t-17.5 46t5 55t16.5 54.5h-3q-24 -58 -81 -115t-118 -57q-62 0 -91 39.5t-29 93.5q0 76 47.5 167.5t118.5 154.5t132 63q10 0 20 -2t24.5 -10t25 -20.5
t17.5 -37t7 -57.5h2q40 116 104 116q18 0 17 -6q0 -2 -3 -4q-28 -18 -48.5 -66t-61.5 -178q-8 -25 -12 -39zM350 492q-73 0 -150 -104q-73 -99 -91 -208q-20 -114 44 -142q18 -8 41 -8q52 0 108 70t88 160q33 88 28 139.5t-23 72t-45 20.5zM241 622q0 5 5 7t10 1l5 -1
q4 -2 11 -4.5t27.5 -6.5t40.5 -4.5t46.5 6.5t48.5 22q12 9 27.5 26.5t27.5 25.5t27 4q16 -4 17.5 -20.5t-10.5 -33.5q-26 -39 -96.5 -49t-128.5 1.5t-58 25.5z" />
    <glyph glyph-name="Abreve" unicode="&#x102;" horiz-adv-x="1556" 
d="M2100 1179q42 0 66.5 -13t18.5 -30q-5 -12 -18.5 -14t-25.5 4q-32 15 -59.5 22.5t-62 7t-68.5 -17.5t-73 -49t-82 -89.5t-88 -137.5q-82 -145 -265 -655q-36 -99 -35 -132q0 -41 35 -43q46 -3 95 78q2 5 6 2q2 -2 1 -6q-17 -45 -55 -80.5t-81 -32.5q-28 2 -43 18
t-17 35.5t3 47t10 42t11 29.5q35 97 19 137q-45 109 -114 188q-167 -219 -241 -300q-176 -193 -344 -244q-72 -22 -150 -22q-122 0 -218 45t-150 116t-73.5 161.5t0 180t81 173t158.5 138.5q24 14 35 -2q10 -15 -7 -27l-4 -2q-7 -3 -21 -4t-33.5 -11.5t-48.5 -39.5
q-42 -42 -70.5 -101.5t-38 -125.5t-4 -135t34.5 -131t74.5 -110.5t119 -77.5t164.5 -29q61 0 121 17.5t111.5 44.5t108 73t99.5 88.5t97.5 107t92 113.5t90.5 121q-90 95 -213.5 145t-254.5 50q-194 0 -307 -125q-87 -95 -88 -218q-2 -118 77 -186q64 -55 165 -55
q72 0 97 43q11 19 30 10q17 -9 7 -27q-2 -3 -5 -6q-35 -35 -130 -35q-153 0 -221 108q-60 95 -29 221q33 132 146 216q114 83 274 83q290 0 479 -187q121 172 298 346.5t320 240.5q-43 -14 -111.5 -16t-132 3.5t-149.5 12t-142 6.5q-157 0 -230 -97q-54 -73 -35 -158
q18 -81 90 -113q34 -15 75 -15q44 0 75 12.5t46.5 34t22.5 41.5t8 44t21 27q18 3 23 -15q2 -6 1 -13q-3 -17 -14 -38.5t-32.5 -48t-60.5 -44t-89 -17.5q-113 0 -163 83q-46 74 -17 164q31 97 130 143q66 30 150 30q55 0 197 -12.5t218 -12.5q67 0 158 23.5t154 23.5z
M1435 341q99 274 186.5 445t199.5 281q-113 -75 -254 -226t-261 -314q76 -81 129 -186zM2075 1417h45q-26 -49 -72.5 -78t-100.5 -29q-45 0 -71 28.5t-11 78.5h53q-25 -92 47 -92q73 0 110 92z" />
    <glyph glyph-name="abreve" unicode="&#x103;" horiz-adv-x="550" 
d="M507 711h45q-26 -49 -72.5 -78t-100.5 -29q-45 0 -71 28.5t-11 78.5h53q-25 -92 47 -92q73 0 110 92zM417 208q-31 -100 -30 -132q1 -45 38 -45q47 0 90 79q2 4 5.5 3t1.5 -7q-14 -45 -48.5 -79t-78.5 -34q-33 0 -50 17.5t-17.5 46t5 55t16.5 54.5h-3q-24 -58 -81 -115
t-118 -57q-62 0 -91 39.5t-29 93.5q0 76 47.5 167.5t118.5 154.5t132 63q10 0 20 -2t24.5 -10t25 -20.5t17.5 -37t7 -57.5h2q40 116 104 116q18 0 17 -6q0 -2 -3 -4q-28 -18 -48.5 -66t-61.5 -178q-8 -25 -12 -39zM333 492q-73 0 -150 -104q-73 -99 -91 -208
q-20 -114 44 -142q18 -8 41 -8q52 0 108 70t88 160q33 88 28 139.5t-23 72t-45 20.5z" />
    <glyph glyph-name="Aogonek" unicode="&#x104;" horiz-adv-x="1556" 
d="M2100 1179q42 0 66.5 -13t18.5 -30q-5 -12 -18.5 -14t-25.5 4q-32 15 -59.5 22.5t-62 7t-68.5 -17.5t-73 -49t-82 -89.5t-88 -137.5q-82 -145 -265 -655q-36 -99 -35 -132q0 -41 35 -43q46 -3 95 78q2 5 6 2q2 -2 1 -6q-16 -43 -50.5 -77t-75.5 -36q-99 -63 -99 -135
q0 -43 31 -60t74 -7l3 -16q-31 -9 -65 -8t-61 24t-27 61q0 72 116 144q-76 21 -18 169q35 97 19 137q-45 109 -114 188q-167 -219 -241 -300q-176 -193 -344 -244q-72 -22 -150 -22q-122 0 -218 45t-150 116t-73.5 161.5t0 180t81 173t158.5 138.5q24 14 35 -2
q10 -15 -7 -27l-4 -2q-7 -3 -21 -4t-33.5 -11.5t-48.5 -39.5q-42 -42 -70.5 -101.5t-38 -125.5t-4 -135t34.5 -131t74.5 -110.5t119 -77.5t164.5 -29q61 0 121 17.5t111.5 44.5t108 73t99.5 88.5t97.5 107t92 113.5t90.5 121q-90 95 -213.5 145t-254.5 50q-194 0 -307 -125
q-87 -95 -88 -218q-2 -118 77 -186q64 -55 165 -55q72 0 97 43q11 19 30 10q17 -9 7 -27q-2 -3 -5 -6q-35 -35 -130 -35q-153 0 -221 108q-60 95 -29 221q33 132 146 216q114 83 274 83q290 0 479 -187q121 172 298 346.5t320 240.5q-43 -14 -111.5 -16t-132 3.5t-149.5 12
t-142 6.5q-157 0 -230 -97q-54 -73 -35 -158q18 -81 90 -113q34 -15 75 -15q44 0 75 12.5t46.5 34t22.5 41.5t8 44t21 27q18 3 23 -15q2 -6 1 -13q-3 -17 -14 -38.5t-32.5 -48t-60.5 -44t-89 -17.5q-113 0 -163 83q-46 74 -17 164q31 97 130 143q66 30 150 30
q55 0 197 -12.5t218 -12.5q67 0 158 23.5t154 23.5zM1435 341q99 274 186.5 445t199.5 281q-113 -75 -254 -226t-261 -314q76 -81 129 -186z" />
    <glyph glyph-name="aogonek" unicode="&#x105;" horiz-adv-x="540" 
d="M371 -4q-76 23 -23 169h-2q-24 -57 -83 -116t-119 -56q-62 3 -89.5 41.5t-27.5 92.5q0 76 47 166.5t117 153.5t131 65q13 0 27.5 -4t31.5 -16t28 -39.5t11 -67.5q23 64 48.5 89t57.5 27q17 1 16 -6q-1 -3 -3 -4q-30 -21 -50.5 -72t-71.5 -211q-29 -94 -30 -124
q-2 -50 37 -53q47 -2 92 79q2 5 6 2q2 -2 1 -6q-14 -42 -47.5 -76.5t-74.5 -36.5q-100 -64 -100 -135q0 -43 31 -60t74 -7l3 -16q-31 -9 -65 -8t-61 24t-27 61q0 74 115 144zM333 492q-69 0 -146 -100q-74 -99 -94 -206q-22 -118 47 -148q12 -5 25 -7q56 -9 115.5 63
t92.5 165q33 88 28 139.5t-23 72.5t-45 21z" />
    <glyph glyph-name="Cacute" unicode="&#x106;" horiz-adv-x="930" 
d="M984 1319q37 22 51.5 45t12 39t-8 38t-4.5 34q3 22 16 30.5t27 7.5q11 0 24.5 -9.5t14.5 -27.5q1 -51 -41 -97.5t-85 -69.5q-10 -7 -12 2q0 5 5 8zM1035 1168q95 0 124 -79q31 -85 -29 -205q-73 -148 -241 -251q-238 -146 -577 -141q-30 -74 -34 -165t17.5 -173
t80.5 -137.5t146 -55.5q47 0 88.5 9t74 26.5t57.5 35t47 42.5t34 39.5t26 37t16 24.5q8 12 17 5q4 -5 1 -12q-18 -30 -31.5 -50.5t-48.5 -59t-71 -62.5t-93 -43.5t-120 -19.5q-85 0 -148.5 36.5t-96.5 95.5t-46.5 133t-5 151t34.5 148q-148 19 -247.5 104.5t-99.5 208.5
q0 87 47.5 176.5t134 165.5t224.5 124t301 48q34 0 38 -22q4 -18 -15 -26q-14 -6 -31 2q-44 17 -98 17q-64 0 -136 -19t-144.5 -59t-130.5 -95.5t-94.5 -137t-36.5 -174.5q0 -107 84 -188.5t213 -101.5q66 158 197 308t287 245t285 95zM986 1131q-100 0 -233 -85
t-254.5 -230.5t-178.5 -300.5q350 -3 586 158q148 100 202 228q46 108 1 175q-36 55 -123 55z" />
    <glyph glyph-name="cacute" unicode="&#x107;" horiz-adv-x="419" 
d="M369 606q37 22 51.5 45t12 39t-8 38t-4.5 34q3 22 16 30.5t27 7.5q11 0 24.5 -9.5t14.5 -27.5q1 -51 -41 -97.5t-85 -69.5q-10 -7 -12 2q1 5 5 8zM329 505q-55 0 -112.5 -57t-93.5 -138.5t-36 -151.5q0 -58 25 -92.5t78 -34.5q57 0 104.5 42.5t79.5 108.5q2 5 5.5 6.5
t5 -1t0.5 -8.5q-19 -59 -81.5 -123t-135.5 -64q-62 0 -101.5 40.5t-39.5 119.5q0 77 42.5 162t115 144.5t148.5 59.5q42 0 72.5 -24t34.5 -54.5t-16 -60.5q-13 -16 -33.5 -18t-34.5 12q-17 20 -15 37t14 27q25 21 17.5 44.5t-43.5 23.5z" />
    <glyph glyph-name="Ccircumflex" unicode="&#x108;" horiz-adv-x="930" 
d="M1035 1168q95 0 124 -79q31 -85 -29 -205q-73 -148 -241 -251q-238 -146 -577 -141q-30 -74 -34 -165t17.5 -173t80.5 -137.5t146 -55.5q47 0 88.5 9t74 26.5t57.5 35t47 42.5t34 39.5t26 37t16 24.5q8 12 17 5q4 -5 1 -12q-18 -30 -31.5 -50.5t-48.5 -59t-71 -62.5
t-93 -43.5t-120 -19.5q-85 0 -148.5 36.5t-96.5 95.5t-46.5 133t-5 151t34.5 148q-148 19 -247.5 104.5t-99.5 208.5q0 87 47.5 176.5t134 165.5t224.5 124t301 48q34 0 38 -22q4 -18 -15 -26q-14 -6 -31 2q-44 17 -98 17q-64 0 -136 -19t-144.5 -59t-130.5 -95.5
t-94.5 -137t-36.5 -174.5q0 -107 84 -188.5t213 -101.5q66 158 197 308t287 245t285 95zM986 1131q-100 0 -233 -85t-254.5 -230.5t-178.5 -300.5q350 -3 586 158q148 100 202 228q46 108 1 175q-36 55 -123 55zM1038 1541h9l101 -169h-53q-48 76 -75 114l-138 -114h-30
q157 146 186 169z" />
    <glyph glyph-name="Ccaron" unicode="&#x10c;" horiz-adv-x="938" 
d="M1035 1168q95 0 124 -79q31 -85 -29 -205q-73 -148 -241 -251q-238 -146 -577 -141q-30 -74 -34 -165t17.5 -173t80.5 -137.5t146 -55.5q47 0 88.5 9t74 26.5t57.5 35t47 42.5t34 39.5t26 37t16 24.5q8 12 17 5q4 -5 1 -12q-18 -30 -31.5 -50.5t-48.5 -59t-71 -62.5
t-93 -43.5t-120 -19.5q-85 0 -148.5 36.5t-96.5 95.5t-46.5 133t-5 151t34.5 148q-148 19 -247.5 104.5t-99.5 208.5q0 87 47.5 176.5t134 165.5t224.5 124t301 48q34 0 38 -22q4 -18 -15 -26q-14 -6 -31 2q-44 17 -98 17q-64 0 -136 -19t-144.5 -59t-130.5 -95.5
t-94.5 -137t-36.5 -174.5q0 -107 84 -188.5t213 -101.5q66 158 197 308t287 245t285 95zM986 1131q-100 0 -233 -85t-254.5 -230.5t-178.5 -300.5q350 -3 586 158q148 100 202 228q46 108 1 175q-36 55 -123 55zM1002 1310h-9l-102 169h54q48 -76 74 -114l138 114h30
q-25 -24 -70 -65t-78.5 -71.5t-36.5 -32.5z" />
    <glyph glyph-name="ccaron" unicode="&#x10d;" horiz-adv-x="479" 
d="M329 505q-55 0 -112.5 -57t-93.5 -138.5t-36 -151.5q0 -58 25 -92.5t78 -34.5q57 0 104.5 42.5t79.5 108.5q2 5 5.5 6.5t5 -1t0.5 -8.5q-19 -59 -81.5 -123t-135.5 -64q-62 0 -101.5 40.5t-39.5 119.5q0 77 42.5 162t115 144.5t148.5 59.5q42 0 72.5 -24t34.5 -54.5
t-16 -60.5q-13 -16 -33.5 -18t-34.5 12q-17 20 -15 37t14 27q25 21 17.5 44.5t-43.5 23.5zM321 604h-9l-102 169h54q48 -76 74 -114l138 114h30q-144 -136 -185 -169z" />
    <glyph glyph-name="Dcaron" unicode="&#x10e;" horiz-adv-x="1474" 
d="M842 1189q131 0 241 -35.5t184.5 -93t126.5 -132t75.5 -151t23.5 -152.5q0 -181 -81 -343.5t-226 -264t-316 -101.5q-53 0 -114 21t-100.5 43.5t-103.5 62.5q-112 -121 -246 -121q-120 0 -165 66q-34 51 -2 104q38 63 137 71l25 1q96 0 242 -90q40 56 75 142
q-223 -22 -364.5 101t-141.5 307q0 101 52.5 201.5t145 181.5t232.5 131.5t300 50.5zM163 622q0 -79 28.5 -152t82.5 -132t145 -89t205 -17q34 80 137 416t146 501q4 20 -19 21q-133 6 -251 -23t-203 -83t-147.5 -126t-93 -153t-30.5 -163zM305 -62q136 0 225 118
q-74 46 -127 70t-102 24q-86 0 -120 -58q-29 -49 0 -97q34 -57 124 -57zM870 -67q119 0 225 60t178.5 157t115 221t42.5 251q0 208 -119 353t-325 183q-16 3 -24 -22q-3 -9 -67.5 -225t-130.5 -423.5t-87 -245.5q103 25 170.5 82.5t67.5 110.5q0 15 11.5 22t23.5 1.5
t12 -22.5q0 -39 -86 -111t-207 -100q-50 -102 -104 -166q55 -35 76.5 -47.5t67.5 -36.5t83.5 -33t76.5 -9zM1185 1310h-9l-102 169h54q48 -76 74 -114l138 114h30q-25 -24 -70 -65t-78.5 -71.5t-36.5 -32.5z" />
    <glyph glyph-name="dcaron" unicode="&#x10f;" horiz-adv-x="750" 
d="M753 606q37 22 51.5 45t12 39t-8 38t-4.5 34q3 22 16 30.5t27 7.5q11 0 24.5 -9.5t14.5 -27.5q1 -51 -41 -97.5t-85 -69.5q-10 -7 -12 2q1 5 5 8zM1039 1181q47 0 73 -12.5t21 -30.5q-4 -12 -17.5 -14t-25.5 4q-39 17 -73 23t-78.5 -3t-85.5 -38.5t-90.5 -91.5
t-97.5 -155q-42 -81 -116 -286t-127 -369q-36 -112 -28 -148q7 -29 37 -29q46 0 89 79q2 4 5.5 3t2.5 -7q-15 -45 -50.5 -79t-79.5 -34q-34 0 -50 21t-13 55.5t7 55t11 41.5h-2q-24 -58 -81.5 -115t-120.5 -57q-59 0 -88 40t-29 93q0 76 48 167.5t119 154.5t131 63
q13 0 26.5 -4.5t30 -16t27 -39t10.5 -67.5l2 -1q28 85 53 155t56 146t63 136t69 118.5t77.5 100.5t86.5 75t98.5 49.5t109.5 16.5zM378 260q33 88 28 139.5t-23 72t-45 20.5q-73 0 -149 -104q-73 -99 -92 -208q-20 -114 44 -142q18 -8 41 -8q52 0 108 70t88 160z" />
    <glyph glyph-name="Dcroat" unicode="&#x110;" horiz-adv-x="1474" 
d="M842 1189q131 0 241 -35.5t184.5 -93t126.5 -132t75.5 -151t23.5 -152.5q0 -181 -81 -343.5t-226 -264t-316 -101.5q-53 0 -114 21t-100.5 43.5t-103.5 62.5q-112 -121 -246 -121q-120 0 -165 66q-34 51 -2 104q38 63 137 71l25 1q96 0 242 -90q40 56 75 142
q-223 -22 -364.5 101t-141.5 307q0 101 52.5 201.5t145 181.5t232.5 131.5t300 50.5zM870 -67q119 0 225 60t178.5 157t115 221t42.5 251q0 208 -119 353t-325 183q-16 3 -24 -22q-5 -13 -26 -83.5t-57 -190.5t-64 -211q82 -9 111 -51q12 -17 10.5 -33.5t-17.5 -20.5
q-15 -4 -27 4t-27.5 25.5t-27.5 26.5q-16 10 -32 16q-100 -328 -128 -376q103 25 170.5 82.5t67.5 110.5q0 15 11.5 22t23.5 1.5t12 -22.5q0 -39 -86 -111t-207 -100q-50 -102 -104 -166q55 -35 76.5 -47.5t67.5 -36.5t83.5 -33t76.5 -9zM163 622q0 -79 28.5 -152t82.5 -132
t145 -89t205 -17q32 76 131 397q-22 1 -45 -2.5t-35 -7.5l-11 -4q-20 -5 -20 7q0 10 36 20t82 11q91 297 145 496q4 20 -19 21q-133 6 -251 -23t-203 -83t-147.5 -126t-93 -153t-30.5 -163zM305 -62q136 0 225 118q-74 46 -127 70t-102 24q-86 0 -120 -58q-29 -49 0 -97
q34 -57 124 -57z" />
    <glyph glyph-name="dcroat" unicode="&#x111;" horiz-adv-x="552" 
d="M1039 1181q48 0 73.5 -12.5t19.5 -30.5q-4 -12 -17.5 -14t-25.5 4q-39 17 -73 23.5t-78.5 -2.5t-86 -38.5t-90.5 -92t-96 -155.5q-49 -92 -141 -354h92q10 0 13.5 -6.5t-1 -13.5t-14.5 -7h-36q-36 1 -63 1l-93 -275q-33 -103 -30 -138q4 -36 37 -38q47 -3 91 79
q2 3 5.5 2t2.5 -7q-15 -45 -52 -80.5t-81 -32.5q-61 4 -63 69q-1 36 21 104h-2q-24 -58 -83 -116.5t-119 -55.5q-63 3 -90 41.5t-27 92.5q0 76 47 166t117 153t131 65q13 0 27.5 -4t31.5 -16t28 -39.5t11 -67.5l33 98h-14q-12 0 -16 6.5t0.5 13t14.5 6.5h25q42 120 82 212.5
t93.5 182t110 147.5t130 94t155.5 36zM378 260q33 88 28 139.5t-23 72t-45 20.5q-69 1 -145 -99q-75 -98 -95 -206q-22 -118 47 -148q12 -5 25 -7q56 -9 115.5 63t92.5 165z" />
    <glyph glyph-name="Emacron" unicode="&#x112;" horiz-adv-x="797" 
d="M848 1171q108 0 131 -67q22 -66 -47 -151q-89 -112 -266 -172q-106 -36 -229 -45q18 -54 75.5 -77t101.5 -11q6 1 10 0.5t4 -3t-3 -6.5q-11 -11 -43 -15q-263 -28 -391 -183q-92 -112 -83 -246q8 -117 90 -183q59 -48 140 -51q-21 118 22 240.5t126.5 200.5t173.5 78
q83 0 103 -81q22 -86 -35 -200q-65 -132 -187 -202q-83 -47 -179 -54q33 -130 155 -217q6 -4 5 -9.5t-6 -7.5t-11 1q-129 88 -163 232q-135 -4 -214.5 73t-79.5 185q0 60 21.5 115.5t55.5 97t77.5 77.5t86.5 60t82.5 41.5t66 25.5t36.5 8q-37 8 -63.5 37t-36.5 71
q-122 -2 -239 40.5t-192.5 120t-75.5 168.5q0 61 27 111.5t70 84t98.5 56.5t112 33t111.5 10q110 0 145 -14q16 -6 18.5 -19t-8.5 -21t-28 -2q-7 3 -15.5 11t-16.5 14.5t-32.5 11.5t-63.5 5q-159 0 -264.5 -74t-105.5 -201q0 -94 67.5 -169t170.5 -113.5t218 -37.5
q-9 67 36.5 144t117.5 137.5t161 101t162 40.5zM644 445q-53 0 -111.5 -43.5t-102.5 -110.5t-66 -157t-6 -173q155 4 270 132q86 95 105 204q17 99 -37 134q-22 14 -52 14zM434 750q237 17 387 136q96 76 111 156q13 70 -47 95q-25 11 -60 11q-42 0 -96.5 -19t-109.5 -56
t-99.5 -84.5t-69 -110.5t-16.5 -128zM618 1349q0 5 5 7t10 1l5 -1q4 -2 11 -4.5t27.5 -6.5t40.5 -4.5t46.5 6.5t48.5 22q12 9 27.5 26.5t27.5 25.5t27 4q16 -4 17.5 -20.5t-10.5 -33.5q-26 -39 -96.5 -49t-128.5 1.5t-58 25.5z" />
    <glyph glyph-name="emacron" unicode="&#x113;" horiz-adv-x="467" 
d="M460 422q0 -139 -361 -275q-2 -51 21 -84.5t73 -33.5q101 0 187 149q6 9 10 6.5t1 -11.5q-4 -12 -19 -36.5t-41.5 -59t-69.5 -59t-90 -24.5q-109 0 -128 96q-18 91 46 213q63 121 160 178q57 34 114 34q41 0 69 -27t28 -66zM346 495q-59 0 -115.5 -54.5t-90.5 -130
t-40 -144.5q221 77 289 190q39 66 11 111q-18 28 -54 28zM201 622q0 5 5 7t10 1l5 -1q4 -2 11 -4.5t27.5 -6.5t40.5 -4.5t46.5 6.5t48.5 22q12 9 27.5 26.5t27.5 25.5t27 4q16 -4 17.5 -20.5t-10.5 -33.5q-26 -39 -96.5 -49t-128.5 1.5t-58 25.5z" />
    <glyph glyph-name="Ebreve" unicode="&#x114;" horiz-adv-x="797" 
d="M848 1171q108 0 131 -67q22 -66 -47 -151q-89 -112 -266 -172q-106 -36 -229 -45q18 -54 75.5 -77t101.5 -11q6 1 10 0.5t4 -3t-3 -6.5q-11 -11 -43 -15q-263 -28 -391 -183q-92 -112 -83 -246q8 -117 90 -183q59 -48 140 -51q-21 118 22 240.5t126.5 200.5t173.5 78
q83 0 103 -81q22 -86 -35 -200q-65 -132 -187 -202q-83 -47 -179 -54q33 -130 155 -217q6 -4 5 -9.5t-6 -7.5t-11 1q-129 88 -163 232q-135 -4 -214.5 73t-79.5 185q0 60 21.5 115.5t55.5 97t77.5 77.5t86.5 60t82.5 41.5t66 25.5t36.5 8q-37 8 -63.5 37t-36.5 71
q-122 -2 -239 40.5t-192.5 120t-75.5 168.5q0 61 27 111.5t70 84t98.5 56.5t112 33t111.5 10q110 0 145 -14q16 -6 18.5 -19t-8.5 -21t-28 -2q-7 3 -15.5 11t-16.5 14.5t-32.5 11.5t-63.5 5q-159 0 -264.5 -74t-105.5 -201q0 -94 67.5 -169t170.5 -113.5t218 -37.5
q-9 67 36.5 144t117.5 137.5t161 101t162 40.5zM644 445q-53 0 -111.5 -43.5t-102.5 -110.5t-66 -157t-6 -173q155 4 270 132q86 95 105 204q17 99 -37 134q-22 14 -52 14zM434 750q237 17 387 136q96 76 111 156q13 70 -47 95q-25 11 -60 11q-42 0 -96.5 -19t-109.5 -56
t-99.5 -84.5t-69 -110.5t-16.5 -128zM957 1479h45q-26 -49 -72.5 -78t-100.5 -29q-45 0 -71 28.5t-11 78.5h53q-25 -92 47 -92q73 0 110 92z" />
    <glyph glyph-name="Edotaccent" unicode="&#x116;" horiz-adv-x="797" 
d="M848 1171q108 0 131 -67q22 -66 -47 -151q-89 -112 -266 -172q-106 -36 -229 -45q18 -54 75.5 -77t101.5 -11q6 1 10 0.5t4 -3t-3 -6.5q-11 -11 -43 -15q-263 -28 -391 -183q-92 -112 -83 -246q8 -117 90 -183q59 -48 140 -51q-21 118 22 240.5t126.5 200.5t173.5 78
q83 0 103 -81q22 -86 -35 -200q-65 -132 -187 -202q-83 -47 -179 -54q33 -130 155 -217q6 -4 5 -9.5t-6 -7.5t-11 1q-129 88 -163 232q-135 -4 -214.5 73t-79.5 185q0 60 21.5 115.5t55.5 97t77.5 77.5t86.5 60t82.5 41.5t66 25.5t36.5 8q-37 8 -63.5 37t-36.5 71
q-122 -2 -239 40.5t-192.5 120t-75.5 168.5q0 61 27 111.5t70 84t98.5 56.5t112 33t111.5 10q110 0 145 -14q16 -6 18.5 -19t-8.5 -21t-28 -2q-7 3 -15.5 11t-16.5 14.5t-32.5 11.5t-63.5 5q-159 0 -264.5 -74t-105.5 -201q0 -94 67.5 -169t170.5 -113.5t218 -37.5
q-9 67 36.5 144t117.5 137.5t161 101t162 40.5zM644 445q-53 0 -111.5 -43.5t-102.5 -110.5t-66 -157t-6 -173q155 4 270 132q86 95 105 204q17 99 -37 134q-22 14 -52 14zM434 750q237 17 387 136q96 76 111 156q13 70 -47 95q-25 11 -60 11q-42 0 -96.5 -19t-109.5 -56
t-99.5 -84.5t-69 -110.5t-16.5 -128zM795 1333q-17 0 -29 12t-12 29q0 16 12 28.5t29 12.5t29 -12t12 -29t-12 -29t-29 -12z" />
    <glyph glyph-name="edotaccent" unicode="&#x117;" horiz-adv-x="433" 
d="M460 422q0 -139 -361 -275q-2 -51 21 -84.5t73 -33.5q101 0 187 149q6 9 10 6.5t1 -11.5q-4 -12 -19 -36.5t-41.5 -59t-69.5 -59t-90 -24.5q-109 0 -128 96q-18 91 46 213q63 121 160 178q57 34 114 34q41 0 69 -27t28 -66zM346 495q-59 0 -115.5 -54.5t-90.5 -130
t-40 -144.5q221 77 289 190q39 66 11 111q-18 28 -54 28zM357 613q-17 0 -29 12t-12 29q0 16 12.5 28.5t28.5 12.5q17 0 29 -12t12 -29t-12 -29t-29 -12z" />
    <glyph glyph-name="Eogonek" unicode="&#x118;" horiz-adv-x="797" 
d="M362 -57q-36 -23 -61.5 -61t-25.5 -79q0 -43 31 -60t74 -7l3 -16q-31 -9 -65 -8t-61 24t-27 61t30.5 76t81.5 69q-135 -4 -214.5 73t-79.5 185q0 60 21.5 115.5t55.5 97t77.5 77.5t86.5 60t82.5 41.5t66 25.5t36.5 8q-37 8 -63.5 37t-36.5 71q-122 -2 -239 40.5
t-192.5 120t-75.5 168.5q0 61 27 111.5t70 84t98.5 56.5t112 33t111.5 10q110 0 145 -14q16 -6 18.5 -19t-8.5 -21t-28 -2q-7 3 -15.5 11t-16.5 14.5t-32.5 11.5t-63.5 5q-159 0 -264.5 -74t-105.5 -201q0 -94 67.5 -169t170.5 -113.5t218 -37.5q-9 67 36.5 144t117.5 137.5
t161 101t162 40.5q108 0 131 -67q22 -66 -47 -151q-89 -112 -266 -172q-106 -36 -229 -45q18 -54 75.5 -77t101.5 -11q6 1 10 0.5t4 -3t-3 -6.5q-11 -11 -43 -15q-263 -28 -391 -183q-92 -112 -83 -246q8 -117 90 -183q59 -48 140 -51q-21 118 22 240.5t126.5 200.5
t173.5 78q83 0 103 -81q22 -86 -35 -200q-65 -132 -187 -202q-83 -47 -179 -54zM434 750q237 17 387 136q96 76 111 156q13 70 -47 95q-25 11 -60 11q-42 0 -96.5 -19t-109.5 -56t-99.5 -84.5t-69 -110.5t-16.5 -128zM644 445q-53 0 -111.5 -43.5t-102.5 -110.5t-66 -157
t-6 -173q155 4 270 132q86 95 105 204q17 99 -37 134q-22 14 -52 14z" />
    <glyph glyph-name="eogonek" unicode="&#x119;" horiz-adv-x="429" 
d="M335 495q-82 -7 -154.5 -115t-81.5 -215q215 75 286 188q42 67 14 113q-20 32 -64 29zM174 -4q-110 10 -130 107q-19 93 46 210q64 117 165 171q40 21 80 29q56 10 90 -19.5t34 -71.5q0 -72 -95.5 -142t-265.5 -133q-2 -114 89 -118q103 -5 192 149q6 9 10 6.5t1 -11.5
q-3 -10 -16 -32t-35.5 -52t-58.5 -56t-75 -35q-40 -26 -71 -63.5t-31 -76.5q0 -43 31 -60t74 -7l3 -16q-31 -9 -65 -8t-61 24t-27 61q0 73 116 144z" />
    <glyph glyph-name="Ecaron" unicode="&#x11a;" horiz-adv-x="797" 
d="M848 1171q108 0 131 -67q22 -66 -47 -151q-89 -112 -266 -172q-106 -36 -229 -45q18 -54 75.5 -77t101.5 -11q6 1 10 0.5t4 -3t-3 -6.5q-11 -11 -43 -15q-263 -28 -391 -183q-92 -112 -83 -246q8 -117 90 -183q59 -48 140 -51q-21 118 22 240.5t126.5 200.5t173.5 78
q83 0 103 -81q22 -86 -35 -200q-65 -132 -187 -202q-83 -47 -179 -54q33 -130 155 -217q6 -4 5 -9.5t-6 -7.5t-11 1q-129 88 -163 232q-135 -4 -214.5 73t-79.5 185q0 60 21.5 115.5t55.5 97t77.5 77.5t86.5 60t82.5 41.5t66 25.5t36.5 8q-37 8 -63.5 37t-36.5 71
q-122 -2 -239 40.5t-192.5 120t-75.5 168.5q0 61 27 111.5t70 84t98.5 56.5t112 33t111.5 10q110 0 145 -14q16 -6 18.5 -19t-8.5 -21t-28 -2q-7 3 -15.5 11t-16.5 14.5t-32.5 11.5t-63.5 5q-159 0 -264.5 -74t-105.5 -201q0 -94 67.5 -169t170.5 -113.5t218 -37.5
q-9 67 36.5 144t117.5 137.5t161 101t162 40.5zM644 445q-53 0 -111.5 -43.5t-102.5 -110.5t-66 -157t-6 -173q155 4 270 132q86 95 105 204q17 99 -37 134q-22 14 -52 14zM434 750q237 17 387 136q96 76 111 156q13 70 -47 95q-25 11 -60 11q-42 0 -96.5 -19t-109.5 -56
t-99.5 -84.5t-69 -110.5t-16.5 -128zM799 1310h-9l-102 169h54q48 -76 74 -114l138 114h30q-25 -24 -70 -65t-78.5 -71.5t-36.5 -32.5z" />
    <glyph glyph-name="ecaron" unicode="&#x11b;" horiz-adv-x="461" 
d="M460 422q0 -139 -361 -275q-2 -51 21 -84.5t73 -33.5q101 0 187 149q6 9 10 6.5t1 -11.5q-4 -12 -19 -36.5t-41.5 -59t-69.5 -59t-90 -24.5q-109 0 -128 96q-18 91 46 213q63 121 160 178q57 34 114 34q41 0 69 -27t28 -66zM346 495q-59 0 -115.5 -54.5t-90.5 -130
t-40 -144.5q221 77 289 190q39 66 11 111q-18 28 -54 28zM304 604h-9l-102 169h54q48 -76 74 -114l138 114h30q-144 -136 -185 -169z" />
    <glyph glyph-name="Gcircumflex" unicode="&#x11c;" horiz-adv-x="941" 
d="M966 502q17 0 16 -5l-3 -5q-40 -32 -69 -116q-4 -11 -80.5 -233.5t-96.5 -277.5q-43 -118 -105.5 -206t-132 -136.5t-137.5 -71.5t-135 -23q-116 0 -194 53t-78 137q0 65 36 108.5t91.5 63t126.5 35.5t136 26t124.5 34.5t88.5 61.5q5 6 8 -1q3 -5 -2 -12
q-19 -32 -60.5 -53.5t-92 -33t-107.5 -21.5t-109.5 -23t-95.5 -33.5t-69 -58t-26 -90.5q0 -73 59 -124.5t164 -51.5q133 0 251 94.5t190 289.5q40 109 73.5 203.5t46.5 134.5l13 40h-4q-17 -25 -37 -50t-56.5 -61.5t-74 -64t-88 -47t-99.5 -19.5q-126 0 -200.5 94t-74.5 252
q0 106 49 236q-61 35 -93 92.5t-34 121.5t27 131.5t82 124t139 97.5t191 53q18 2 27 -8t3.5 -21.5t-24.5 -14.5q-10 -2 -49 3t-81 -7q-105 -27 -179.5 -100.5t-99.5 -156.5t-1.5 -166.5t99.5 -129.5q46 115 123 226.5t168 199.5t194.5 142t195.5 54q109 0 125 -94
q17 -98 -66 -239q-89 -153 -235 -252q-152 -103 -312 -103q-88 0 -152 24q-39 -115 -39 -216q0 -141 56.5 -229.5t163.5 -88.5q120 0 238.5 110t177.5 285q41 117 109 117zM893 1159q-111 0 -238 -90.5t-230.5 -232t-158.5 -293.5q61 -24 146 -24q194 0 369 152
q129 112 189 252q56 129 15 194q-27 42 -92 42zM913 1541h9l101 -169h-53q-48 76 -75 114l-138 -114h-30q157 146 186 169z" />
    <glyph glyph-name="gcircumflex" unicode="&#x11d;" horiz-adv-x="490" 
d="M348 165h-3q-23 -57 -81 -114.5t-118 -57.5q-62 0 -91 39.5t-29 93.5q0 76 47.5 167.5t118.5 154.5t132 63q13 0 26 -4t29.5 -15.5t27 -39.5t11.5 -68l2 -1q39 117 104 117q17 0 17 -6q-1 -2 -3 -4q-28 -19 -47.5 -65.5t-61.5 -176.5q-3 -8 -4.5 -13t-4 -13t-4.5 -15
q-24 -74 -57.5 -181t-53.5 -169t-33 -95q-46 -121 -127.5 -179t-174.5 -58q-72 0 -127.5 25.5t-82.5 64.5t-32 86.5t14.5 90t67.5 76t117 44.5q15 2 63.5 7.5t72.5 10t56.5 18.5t50.5 36q4 6 7 -3q2 -6 -2 -13q-16 -25 -46.5 -36t-99.5 -21.5t-101 -17.5q-54 -12 -91 -44
t-50.5 -71t-8.5 -81.5t28 -77.5t66 -57.5t99 -22.5q76 0 141.5 45t96.5 136q37 108 71.5 219.5t50.5 168.5zM332 491q-73 0 -149 -104q-73 -100 -92 -209q-20 -115 45 -141q16 -7 38 -7q55 0 110.5 69t87.5 160q18 51 24 92t2 66.5t-14.5 42.5t-23.5 24t-28 7zM389 773h9
l101 -169h-53q-48 76 -75 114l-138 -114h-30q157 146 186 169z" />
    <glyph glyph-name="Gbreve" unicode="&#x11e;" horiz-adv-x="941" 
d="M966 502q17 0 16 -5l-3 -5q-40 -32 -69 -116q-4 -11 -80.5 -233.5t-96.5 -277.5q-43 -118 -105.5 -206t-132 -136.5t-137.5 -71.5t-135 -23q-116 0 -194 53t-78 137q0 65 36 108.5t91.5 63t126.5 35.5t136 26t124.5 34.5t88.5 61.5q5 6 8 -1q3 -5 -2 -12
q-19 -32 -60.5 -53.5t-92 -33t-107.5 -21.5t-109.5 -23t-95.5 -33.5t-69 -58t-26 -90.5q0 -73 59 -124.5t164 -51.5q133 0 251 94.5t190 289.5q40 109 73.5 203.5t46.5 134.5l13 40h-4q-17 -25 -37 -50t-56.5 -61.5t-74 -64t-88 -47t-99.5 -19.5q-126 0 -200.5 94t-74.5 252
q0 106 49 236q-61 35 -93 92.5t-34 121.5t27 131.5t82 124t139 97.5t191 53q18 2 27 -8t3.5 -21.5t-24.5 -14.5q-10 -2 -49 3t-81 -7q-105 -27 -179.5 -100.5t-99.5 -156.5t-1.5 -166.5t99.5 -129.5q46 115 123 226.5t168 199.5t194.5 142t195.5 54q109 0 125 -94
q17 -98 -66 -239q-89 -153 -235 -252q-152 -103 -312 -103q-88 0 -152 24q-39 -115 -39 -216q0 -141 56.5 -229.5t163.5 -88.5q120 0 238.5 110t177.5 285q41 117 109 117zM893 1159q-111 0 -238 -90.5t-230.5 -232t-158.5 -293.5q61 -24 146 -24q194 0 369 152
q129 112 189 252q56 129 15 194q-27 42 -92 42zM944 1421h45q-26 -49 -72.5 -78t-100.5 -29q-45 0 -71 28.5t-11 78.5h53q-25 -92 47 -92q73 0 110 92z" />
    <glyph glyph-name="gbreve" unicode="&#x11f;" horiz-adv-x="490" 
d="M348 165h-3q-23 -57 -81 -114.5t-118 -57.5q-62 0 -91 39.5t-29 93.5q0 76 47.5 167.5t118.5 154.5t132 63q13 0 26 -4t29.5 -15.5t27 -39.5t11.5 -68l2 -1q39 117 104 117q17 0 17 -6q-1 -2 -3 -4q-28 -19 -47.5 -65.5t-61.5 -176.5q-3 -8 -4.5 -13t-4 -13t-4.5 -15
q-24 -74 -57.5 -181t-53.5 -169t-33 -95q-46 -121 -127.5 -179t-174.5 -58q-72 0 -127.5 25.5t-82.5 64.5t-32 86.5t14.5 90t67.5 76t117 44.5q15 2 63.5 7.5t72.5 10t56.5 18.5t50.5 36q4 6 7 -3q2 -6 -2 -13q-16 -25 -46.5 -36t-99.5 -21.5t-101 -17.5q-54 -12 -91 -44
t-50.5 -71t-8.5 -81.5t28 -77.5t66 -57.5t99 -22.5q76 0 141.5 45t96.5 136q37 108 71.5 219.5t50.5 168.5zM332 491q-73 0 -149 -104q-73 -100 -92 -209q-20 -115 45 -141q16 -7 38 -7q55 0 110.5 69t87.5 160q18 51 24 92t2 66.5t-14.5 42.5t-23.5 24t-28 7zM477 711h45
q-26 -49 -72.5 -78t-100.5 -29q-45 0 -71 28.5t-11 78.5h53q-25 -92 47 -92q73 0 110 92z" />
    <glyph glyph-name="Gcommaaccent" unicode="&#x122;" horiz-adv-x="941" 
d="M966 502q17 0 16 -5l-3 -5q-40 -32 -69 -116q-4 -11 -80.5 -233.5t-96.5 -277.5q-43 -118 -105.5 -206t-132 -136.5t-137.5 -71.5t-135 -23q-116 0 -194 53t-78 137q0 65 36 108.5t91.5 63t126.5 35.5t136 26t124.5 34.5t88.5 61.5q5 6 8 -1q3 -5 -2 -12
q-19 -32 -60.5 -53.5t-92 -33t-107.5 -21.5t-109.5 -23t-95.5 -33.5t-69 -58t-26 -90.5q0 -73 59 -124.5t164 -51.5q133 0 251 94.5t190 289.5q40 109 73.5 203.5t46.5 134.5l13 40h-4q-17 -25 -37 -50t-56.5 -61.5t-74 -64t-88 -47t-99.5 -19.5q-126 0 -200.5 94t-74.5 252
q0 106 49 236q-61 35 -93 92.5t-34 121.5t27 131.5t82 124t139 97.5t191 53q18 2 27 -8t3.5 -21.5t-24.5 -14.5q-10 -2 -49 3t-81 -7q-105 -27 -179.5 -100.5t-99.5 -156.5t-1.5 -166.5t99.5 -129.5q46 115 123 226.5t168 199.5t194.5 142t195.5 54q109 0 125 -94
q17 -98 -66 -239q-89 -153 -235 -252q-152 -103 -312 -103q-88 0 -152 24q-39 -115 -39 -216q0 -141 56.5 -229.5t163.5 -88.5q120 0 238.5 110t177.5 285q41 117 109 117zM893 1159q-111 0 -238 -90.5t-230.5 -232t-158.5 -293.5q61 -24 146 -24q194 0 369 152
q129 112 189 252q56 129 15 194q-27 42 -92 42z" />
    <glyph glyph-name="gcommaaccent" unicode="&#x123;" horiz-adv-x="490" 
d="M348 165h-3q-23 -57 -81 -114.5t-118 -57.5q-62 0 -91 39.5t-29 93.5q0 76 47.5 167.5t118.5 154.5t132 63q13 0 26 -4t29.5 -15.5t27 -39.5t11.5 -68l2 -1q39 117 104 117q17 0 17 -6q-1 -2 -3 -4q-28 -19 -47.5 -65.5t-61.5 -176.5q-3 -8 -4.5 -13t-4 -13t-4.5 -15
q-24 -74 -57.5 -181t-53.5 -169t-33 -95q-46 -121 -127.5 -179t-174.5 -58q-72 0 -127.5 25.5t-82.5 64.5t-32 86.5t14.5 90t67.5 76t117 44.5q15 2 63.5 7.5t72.5 10t56.5 18.5t50.5 36q4 6 7 -3q2 -6 -2 -13q-16 -25 -46.5 -36t-99.5 -21.5t-101 -17.5q-54 -12 -91 -44
t-50.5 -71t-8.5 -81.5t28 -77.5t66 -57.5t99 -22.5q76 0 141.5 45t96.5 136q37 108 71.5 219.5t50.5 168.5zM332 491q-73 0 -149 -104q-73 -100 -92 -209q-20 -115 45 -141q16 -7 38 -7q55 0 110.5 69t87.5 160q18 51 24 92t2 66.5t-14.5 42.5t-23.5 24t-28 7zM424 813
q-36 -22 -51 -45.5t-12 -39.5t8.5 -37.5t3.5 -33.5q-5 -41 -43 -38q-11 0 -24.5 9.5t-13.5 27.5q-1 51 41 97.5t84 69.5q11 6 12 -3q-1 -4 -5 -7z" />
    <glyph glyph-name="Hcircumflex" unicode="&#x124;" horiz-adv-x="1632" 
d="M2171 1179q47 0 72.5 -12t18.5 -30q-4 -12 -17.5 -14t-25.5 4q-38 17 -72 23t-78.5 -3t-86.5 -38.5t-93.5 -91.5t-103.5 -155q-44 -80 -123.5 -281t-141.5 -374q-37 -102 -34 -136q4 -36 35 -39q45 -3 94 78q2 4 5.5 2.5t1.5 -6.5q-16 -45 -54 -80.5t-82 -32.5
q-96 6 -37 170q1 1 1 2q20 60 24 88.5t-5 50.5q-86 219 -291 326q-71 -230 -100 -305q-96 -244 -240 -336q-102 -65 -239 -65q-122 0 -218.5 45t-150 116t-73 161.5t-0.5 180t80.5 173t158.5 138.5q25 14 36 -2q10 -15 -7 -27l-4 -2q-7 -3 -21.5 -4t-34 -11.5t-47.5 -38.5
q-50 -49 -79.5 -121.5t-36 -151t15 -157t66.5 -141t126.5 -101.5t187.5 -39q69 0 128.5 20t104.5 54t83.5 83.5t67 104.5t54 120.5t45.5 128.5t40 131q4 14 6.5 22t6 20.5t6.5 22.5q-124 55 -252 55q-197 0 -314 -126q-89 -95 -94 -218q-4 -118 73 -185q63 -56 164 -56
q72 0 97 43q11 19 30 10q17 -9 7 -27q-2 -3 -5 -6q-33 -35 -130 -35q-153 0 -221 108q-59 95 -29 221q33 132 146 216q115 84 275 84q147 0 265 -48q45 143 91 229.5t114 118.5q-51 -3 -107 18t-108 54t-104.5 66.5t-114 57t-119.5 23.5q-49 0 -90 -19.5t-64 -50.5
t-35.5 -69t-5 -76t28 -69t63.5 -50.5t101 -19.5q23 0 41 3.5t28 8.5t18.5 13.5t11.5 13t6.5 14t4.5 10.5q9 17 26 9t7 -29q-1 -2 -3 -4q-18 -26 -55.5 -42t-86.5 -16q-64 0 -112 21.5t-70.5 56t-31 76.5t5.5 84t39.5 76.5t71 56t99.5 21.5q59 0 118 -20t104 -48.5t97 -59.5
t96.5 -54t102 -32t113.5 8q10 3 15.5 -1.5t3.5 -11t-10 -8.5q-38 -10 -70.5 -35t-57 -57.5t-48 -81t-40 -94t-36.5 -107.5q57 -27 108 -65.5t82.5 -71t62 -76.5t42 -64t27.5 -51q16 38 42.5 106t47.5 120t51.5 122.5t60 124t67 113t79 102t89 78.5t104 54t118.5 18z
M1689 1541h9l101 -169h-53q-48 76 -75 114l-138 -114h-30q157 146 186 169z" />
    <glyph glyph-name="Imacron" unicode="&#x12a;" horiz-adv-x="1032" 
d="M485 -48q-123 0 -218 43t-148 111.5t-71.5 157t1.5 177t82 175t160 147.5q30 19 43 0q10 -16 -3 -28q-6 -4 -13 -5q-2 0 -11 -1t-14 -2t-14.5 -3.5t-18 -7.5t-19.5 -13.5t-23.5 -21.5t-26.5 -30q-45 -58 -70 -131.5t-27.5 -148.5t21.5 -146.5t69 -127t122.5 -89.5
t175.5 -34q103 0 183.5 39.5t131 105t91.5 152t66.5 179t55.5 188.5t57.5 177t73.5 147t104 98q-64 -14 -146 -7t-144 20.5t-133.5 27t-113.5 13.5q-131 0 -204 -97q-60 -82 -48 -182q13 -103 99 -153q56 -32 133 -32q17 0 32.5 1.5t27.5 4t22.5 7t18 8t14.5 9t11 9t8.5 9.5
t5.5 8.5t4 7.5l3 5q8 12 20 12t16 -10t-6 -25q-23 -31 -71.5 -48t-106.5 -17q-154 0 -221 104q-55 85 -27 193q27 107 119 164q66 41 151 41q58 0 132 -14.5t131 -27.5t152.5 -16.5t196.5 17.5q18 4 19 -8q-1 -8 -11 -12q-55 -15 -99 -63t-74.5 -116t-57.5 -152.5
t-54.5 -174t-59 -178t-76 -167t-100.5 -139t-138.5 -95.5t-184.5 -35zM935 1349q0 5 5 7t10 1l5 -1q4 -2 11 -4.5t27.5 -6.5t40.5 -4.5t46.5 6.5t48.5 22q12 9 27.5 26.5t27.5 25.5t27 4q16 -4 17.5 -20.5t-10.5 -33.5q-26 -39 -96.5 -49t-128.5 1.5t-58 25.5z" />
    <glyph glyph-name="imacron" unicode="&#x12b;" horiz-adv-x="278" 
d="M244 362q-12 -33 -63.5 -167.5t-72.5 -194.5q-49 34 -17 121q16 43 38 98t39.5 98t20.5 50q12 32 14.5 55.5t-6 36.5t-26.5 13q-21 0 -52 -33q-3 -3 -6.5 -2.5t-4.5 3.5t0 6q54 58 94 57q24 0 38.5 -11.5t19.5 -43t-16 -86.5zM111 622q0 5 5 7t10 1l5 -1q4 -2 11 -4.5
t27.5 -6.5t40.5 -4.5t46.5 6.5t48.5 22q12 9 27.5 26.5t27.5 25.5t27 4q16 -4 17.5 -20.5t-10.5 -33.5q-26 -39 -96.5 -49t-128.5 1.5t-58 25.5z" />
    <glyph glyph-name="Ibreve" unicode="&#x12c;" horiz-adv-x="1032" 
d="M485 -48q-123 0 -218 43t-148 111.5t-71.5 157t1.5 177t82 175t160 147.5q30 19 43 0q10 -16 -3 -28q-6 -4 -13 -5q-2 0 -11 -1t-14 -2t-14.5 -3.5t-18 -7.5t-19.5 -13.5t-23.5 -21.5t-26.5 -30q-45 -58 -70 -131.5t-27.5 -148.5t21.5 -146.5t69 -127t122.5 -89.5
t175.5 -34q103 0 183.5 39.5t131 105t91.5 152t66.5 179t55.5 188.5t57.5 177t73.5 147t104 98q-64 -14 -146 -7t-144 20.5t-133.5 27t-113.5 13.5q-131 0 -204 -97q-60 -82 -48 -182q13 -103 99 -153q56 -32 133 -32q17 0 32.5 1.5t27.5 4t22.5 7t18 8t14.5 9t11 9t8.5 9.5
t5.5 8.5t4 7.5l3 5q8 12 20 12t16 -10t-6 -25q-23 -31 -71.5 -48t-106.5 -17q-154 0 -221 104q-55 85 -27 193q27 107 119 164q66 41 151 41q58 0 132 -14.5t131 -27.5t152.5 -16.5t196.5 17.5q18 4 19 -8q-1 -8 -11 -12q-55 -15 -99 -63t-74.5 -116t-57.5 -152.5
t-54.5 -174t-59 -178t-76 -167t-100.5 -139t-138.5 -95.5t-184.5 -35zM1229 1479h45q-26 -49 -72.5 -78t-100.5 -29q-45 0 -71 28.5t-11 78.5h53q-25 -92 47 -92q73 0 110 92z" />
    </font>
</defs>
</svg>
